<svg width="63" height="64" viewBox="0 0 63 64" fill="none" xmlns="http://www.w3.org/2000/svg">
<rect y="0.5" width="63" height="63" rx="7" fill="white"/>
<path d="M24.7901 10.4055C24.7901 9.90657 25.1896 9.5 25.6797 9.5C26.1708 9.5 26.5693 9.90657 26.5693 10.4055C26.5693 10.9054 26.1708 11.311 25.6797 11.311C25.1896 11.311 24.7901 10.9054 24.7901 10.4055ZM45.9998 23.907C45.9999 23.9148 45.9999 23.9228 45.9999 23.9307V50.5197C45.9999 53.2658 43.8051 55.5 41.1073 55.5H21.8928C19.1951 55.5 17.0003 53.2658 17.0003 50.5197V45.1588C17.0002 45.152 17.0002 45.1451 17.0003 45.1382V39.895C16.9999 39.8814 16.9999 39.8676 17.0003 39.854V29.2791C17.0002 29.2723 17.0002 29.2654 17.0003 29.2585V23.9306C17.0003 23.9227 17.0003 23.9148 17.0004 23.9069C17.0003 23.9038 17.0003 23.9007 17.0003 23.8975C17.0003 23.8904 17.0004 23.8832 17.0005 23.8762C17.0142 22.3481 17.6053 20.9138 18.6685 19.8321L19.1935 19.2977C19.328 19.1607 19.4021 18.9789 19.4021 18.7854V18.6457H18.6015C18.3675 18.6457 18.138 18.5488 17.9726 18.3803C17.8071 18.2119 17.7119 17.9783 17.7119 17.7402V13.4843C17.7119 12.4203 18.1193 11.4197 18.8586 10.6672C19.5979 9.91472 20.5807 9.5 21.626 9.5H21.6766C22.1677 9.5 22.5662 9.90657 22.5662 10.4055C22.5662 10.9054 22.1677 11.311 21.6766 11.311H21.626C20.4509 11.3128 19.4928 12.2881 19.491 13.4843V16.8346H43.5091V13.4843C43.5073 12.2881 42.5493 11.3128 41.3742 11.311H29.6827C29.1926 11.311 28.7932 10.9054 28.7932 10.4055C28.7932 9.90657 29.1926 9.5 29.6827 9.5H41.3743C42.4195 9.5 43.4025 9.91472 44.1416 10.6672C44.8809 11.4198 45.2884 12.4203 45.2884 13.4843V17.7402C45.2884 17.9783 45.1932 18.2119 45.0276 18.3803C44.8623 18.5487 44.6327 18.6457 44.3988 18.6457H43.5982V18.7854C43.5982 18.9789 43.6723 19.1608 43.8068 19.2976L44.3319 19.8322C45.3949 20.9138 45.986 22.3481 45.9997 23.8762C45.9999 23.8832 46 23.8904 46 23.8975C45.9999 23.9007 45.9999 23.9038 45.9998 23.907ZM18.888 22.9921H44.1123C43.9457 22.2865 43.5911 21.639 43.0741 21.1129L42.5489 20.5784C42.0783 20.0996 41.8191 19.4628 41.8191 18.7854V18.6457H21.1813V18.7854C21.1813 19.4627 20.9221 20.0996 20.4515 20.5785L19.9264 21.1128C19.4093 21.639 19.0546 22.2865 18.888 22.9921ZM18.7794 26.8925C19.6188 26.0831 20.5557 25.3781 21.5611 24.8032H18.7794V26.8925ZM18.7794 39.6851C19.9414 42.321 22.3037 44.3125 25.1325 45.0296L29.0019 46.0106C29.384 46.1074 29.7755 45.9253 29.9535 45.5674L31.176 43.1093C31.7825 41.8897 32.1018 40.5029 32.0994 39.0988C32.096 37.1701 32.2826 35.1257 32.6697 32.849C32.7576 32.3318 32.6325 31.7886 32.3264 31.359C31.7255 30.5157 30.6826 29.3212 29.1255 28.4197C29.0094 28.3525 28.8589 28.3749 28.7593 28.4743L27.5823 29.6475C27.3361 29.8928 27.3247 30.2883 27.5561 30.5479L29.0406 32.2133C29.1476 32.3333 29.3003 32.4021 29.4594 32.4021H30.5941C30.8728 32.4021 31.1354 32.535 31.3035 32.7613C31.4717 32.9875 31.5259 33.2809 31.4501 33.5539L31.0996 34.8165C30.7769 35.9789 30.1306 37.0095 29.2306 37.7969C28.8327 38.145 28.5053 38.56 28.2576 39.0304L27.6123 40.2552C27.3909 40.6755 26.8876 40.849 26.4606 40.6518C26.034 40.4546 25.8307 39.9544 25.9958 39.5081C26.0103 39.4666 26.4033 38.308 25.6445 37.393C25.2828 36.9567 24.3913 36.929 24.0263 37.0595C23.794 37.1426 23.5381 37.1241 23.3196 37.0078C23.1013 36.8918 22.9399 36.6887 22.8742 36.447C22.8351 36.3077 21.9282 33.2168 18.7796 32.7595L18.7794 39.6851ZM18.7794 44.8422C21.1075 47.8788 24.5926 49.6142 28.3866 49.6142C35.1065 49.6142 40.5736 44.0491 40.5736 37.2087C40.5736 30.3682 35.1065 24.8032 28.3866 24.8032C24.5926 24.8032 21.1075 26.5386 18.7794 29.5751V30.934C20.9996 31.171 22.4141 32.3752 23.2365 33.4095C23.7488 34.0536 24.0896 34.7027 24.301 35.1855C25.2003 35.1317 26.3073 35.3847 27.004 36.2249C27.2122 36.476 27.3746 36.7345 27.5001 36.9935C27.6769 36.7916 27.8675 36.6012 28.071 36.4232C28.7049 35.8687 29.1601 35.1426 29.3875 34.3238L29.4183 34.2126C28.7732 34.201 28.1574 33.9173 27.7231 33.4301L26.2386 31.7646C25.3617 30.781 25.4052 29.2824 26.3375 28.3531L27.5144 27.18C28.1784 26.5182 29.2025 26.3806 30.0051 26.8453C31.8387 27.907 33.0626 29.3074 33.7665 30.2955C34.3529 31.1186 34.592 32.1617 34.4227 33.1576C34.0585 35.2999 33.8754 37.2978 33.8785 39.0954C33.8814 40.7834 33.4958 42.4541 32.7634 43.927L31.5408 46.3851C30.9857 47.5015 29.7652 48.0704 28.5719 47.7676L24.7025 46.7865C22.3619 46.1932 20.2891 44.8612 18.7794 43.0444V44.8422ZM18.7794 49.6142H21.5611C20.5557 49.0391 19.6188 48.3342 18.7794 47.5248V49.6142ZM44.0914 51.4252H18.9088C19.2925 52.7328 20.4851 53.689 21.8928 53.689H41.1073C42.5151 53.689 43.7077 52.7328 44.0914 51.4252ZM44.2208 24.8032H35.2029C39.4657 27.24 42.3527 31.8877 42.3527 37.2087C42.3527 42.5296 39.4657 47.1774 35.2029 49.6142H44.2208V24.8032Z" fill="#214475"/>
</svg>
