<svg width="63" height="64" viewBox="0 0 63 64" fill="none" xmlns="http://www.w3.org/2000/svg">
<rect y="0.5" width="63" height="63" rx="7" fill="white"/>
<path d="M47.0129 10.3232L39.6045 17.7315C39.0558 16.7712 38.0268 16.2224 36.9293 16.2224H36.3805C36.7235 14.8505 36.3805 13.41 35.5574 12.2438C33.5681 9.5 29.0408 9.5 28.9036 9.5C28.5606 9.5 28.2862 9.77438 28.2176 10.1174C27.6002 14.3703 23.0729 15.605 20.3977 16.0166C18.8199 16.2224 17.7224 17.5943 17.7224 19.172V20.201C17.7224 20.6126 17.3794 20.9555 16.9679 20.9555C14.4984 20.9555 13.0579 23.6994 14.4298 25.6887H11.686C11.2744 25.6887 11 25.963 11 26.3746V26.4432L12.9207 43.798C13.4695 47.2278 16.3505 49.7659 19.7803 49.903L21.4952 54.2932C21.6324 54.5676 21.8382 54.7048 22.1126 54.7048H35.4888C35.7632 54.7048 36.0375 54.5676 36.1061 54.2932L37.821 49.903C41.2508 49.6973 44.1319 47.1592 44.6806 43.7294L46.6013 26.3746C46.6699 26.0316 46.3955 25.6887 45.984 25.6201C45.9154 25.6201 46.2583 25.6201 43.2401 25.6201C43.5831 25.1399 43.7889 24.5225 43.7889 23.9052C43.7889 23.082 43.4459 22.3275 42.8971 21.7101L42.8285 21.6415L50.7171 13.9587C51.746 12.9298 51.746 11.2835 50.7171 10.2546C49.6881 9.22562 48.0418 9.29421 47.0129 10.3232ZM43.8575 40.0252H32.6763C32.2648 40.0252 31.9904 40.2996 31.9904 40.7112C31.9904 44.8269 25.7481 44.8269 25.7481 40.7112C25.7481 40.2996 25.4738 40.0252 25.0622 40.0252H13.881L13.4009 35.7037H24.9936C25.4052 35.7037 25.6795 35.4293 25.6795 35.0177C25.6795 30.902 31.9218 30.902 31.9218 35.0177C31.9218 35.4293 32.1962 35.7037 32.6077 35.7037H44.2691L43.8575 40.0252ZM35.0772 53.4014H22.6613L21.2894 49.9716H36.4491L35.0772 53.4014ZM37.5467 48.5997H20.1919C17.2422 48.5997 14.7728 46.4732 14.2926 43.6608L14.0868 41.3971H24.3762C25.1308 46.4732 32.4706 46.4732 33.2937 41.3971H43.7203L43.4459 43.5922C42.9657 46.5418 40.4963 48.6683 37.5467 48.5997ZM44.4748 34.3318H33.2937C32.5391 29.2556 25.1994 29.2556 24.3762 34.3318H13.2637L12.4405 27.1292H45.2294L44.4748 34.3318ZM31.373 19.1034C31.9904 17.8687 34.597 17.5943 35.5574 17.5943C35.9689 17.6629 38.4384 17.1142 38.6442 19.0348C38.7128 19.7894 38.5756 20.3382 38.7814 20.9555H35.4888C35.0772 20.9555 34.8028 21.2299 34.8028 21.6415C34.8028 22.0531 35.0772 22.3275 35.4888 22.3275H40.8393C43.1715 22.396 42.9657 25.7573 40.8393 25.7573H16.9679C14.7042 25.7573 14.7728 22.3275 16.9679 22.3275C17.5166 22.3275 18.0654 22.1217 18.477 21.6415C20.1233 22.8076 22.1126 22.6704 24.239 22.2589C24.582 22.1903 24.8564 21.8473 24.7878 21.4357C24.7192 21.0927 24.3762 20.8183 23.9646 20.8869C20.9464 21.3671 19.7803 20.8869 19.3687 20.6126C19.2315 20.4754 19.0943 20.3382 19.0257 20.1324V19.1034C19.0257 18.2117 19.6431 17.4571 20.5348 17.3199C23.4159 16.9084 28.3548 15.4679 29.3837 10.8719C30.5499 10.9405 33.2251 11.3521 34.4598 12.9984C35.0772 13.9587 35.283 15.1249 34.94 16.1538C33.7053 16.2224 31.03 16.634 30.0697 18.4175C29.8639 18.7605 30.0011 19.172 30.3441 19.3092C30.8242 19.5836 31.2358 19.4464 31.373 19.1034ZM49.7567 12.9984L41.6624 21.0927C40.9765 20.8869 40.5649 21.0927 40.2219 20.6811C39.9475 20.3382 40.0847 19.9952 40.0847 19.2406L47.9732 11.2835C48.4534 10.8033 49.208 10.8033 49.6881 11.2835C50.2369 11.7637 50.2369 12.5182 49.7567 12.9984Z" fill="#214475"/>
</svg>
