<svg width="63" height="64" viewBox="0 0 63 64" fill="none" xmlns="http://www.w3.org/2000/svg">
<rect y="0.5" width="63" height="63" rx="7" fill="white"/>
<mask id="mask0_748_1367" style="mask-type:luminance" maskUnits="userSpaceOnUse" x="8" y="8" width="46" height="48">
<path d="M52.2991 54.75V9.24982H8.75V54.75H52.2991Z" fill="white" stroke="white" stroke-width="1.5"/>
</mask>
<g mask="url(#mask0_748_1367)">
<path d="M24.8711 37.8416C24.8711 37.8416 25.5259 46.3754 29.7756 50.5259H47.2637C51.5135 46.3754 52.1683 37.8416 52.1683 37.8416H24.8711Z" stroke="#214475" stroke-width="1.5" stroke-miterlimit="10" stroke-linecap="round" stroke-linejoin="round"/>
<path d="M29.7773 54.1201H47.2654V50.5263H29.7773V54.1201Z" stroke="#214475" stroke-width="1.5" stroke-miterlimit="10" stroke-linecap="round" stroke-linejoin="round"/>
<path d="M29.182 37.8418C29.182 37.8418 28.9753 36.0453 30.6374 34.7675C32.4413 33.3806 33.6966 34.2759 34.3256 32.8689C34.9547 31.4619 37.3907 30.4783 39.014 32.0476C40.4555 33.4413 40.7999 34.1525 42.6749 33.1936C44.6739 32.1715 46.5064 33.4642 47.0211 35.2501C47.5358 37.0359 48.8541 37.8418 48.8541 37.8418H29.182Z" stroke="#214475" stroke-width="1.5" stroke-miterlimit="10" stroke-linecap="round" stroke-linejoin="round"/>
<path d="M37.3974 14.6335V31.2663C36.0872 31.1093 34.7658 31.8859 34.3258 32.8691C33.6967 34.2763 32.4412 33.3805 30.6375 34.7674C28.9755 36.0452 29.1822 37.8417 29.1822 37.8417H24.871C24.871 37.8417 25.3224 43.7204 27.9056 48.0927C28.4343 48.9887 29.0529 49.8204 29.7753 50.5263V54.1201H8.87988V14.6335H37.3974Z" stroke="#214475" stroke-width="1.5" stroke-miterlimit="10" stroke-linecap="round" stroke-linejoin="round"/>
<path d="M23.1406 25.77V25.6813C23.1406 22.9179 24.747 20.4305 27.2018 19.3926L29.1761 18.5581C29.1761 21.4549 27.4617 24.051 24.8674 25.0832L23.1406 25.77Z" stroke="#214475" stroke-width="1.5" stroke-miterlimit="10" stroke-linecap="round" stroke-linejoin="round"/>
<path d="M23.1369 25.7705V25.6817C23.1369 22.9184 21.5306 20.4309 19.0757 19.3931L17.1016 18.5586C17.1016 21.4554 18.8159 24.0515 21.4103 25.0837L23.1369 25.7705Z" stroke="#214475" stroke-width="1.5" stroke-miterlimit="10" stroke-linecap="round" stroke-linejoin="round"/>
<path d="M23.1406 33.7876C23.1406 30.9814 24.8013 28.4666 27.3144 27.4669L29.1761 26.7263C29.1761 29.5573 27.4913 32.0909 24.9496 33.082L23.1406 33.7876Z" stroke="#214475" stroke-width="1.5" stroke-miterlimit="10" stroke-linecap="round" stroke-linejoin="round"/>
<path d="M23.1369 33.7861C23.1369 30.98 21.4763 28.4651 18.9631 27.4654L17.1016 26.7248C17.1016 29.5558 18.7862 32.0894 21.3279 33.0806L23.1369 33.7861Z" stroke="#214475" stroke-width="1.5" stroke-miterlimit="10" stroke-linecap="round" stroke-linejoin="round"/>
<path d="M23.1406 33.7876V18.1647" stroke="#214475" stroke-width="1.5" stroke-miterlimit="10" stroke-linecap="round" stroke-linejoin="round"/>
<path d="M20.642 48.0933H27.9056C25.3224 43.721 24.871 37.8423 24.871 37.8423H8.87988V48.0933H12.8994" stroke="#214475" stroke-width="1.5" stroke-miterlimit="10" stroke-linecap="round" stroke-linejoin="round"/>
<path d="M50.9178 27.8613C50.6518 27.9698 50.355 28.0215 50.0784 28.0917C47.2758 28.8414 44.7474 30.5698 42.6702 32.6347C42.3727 32.9303 42.0904 33.2241 41.8308 33.5104C41.8167 33.5261 41.8018 33.5426 41.7876 33.5582C40.8181 33.8225 40.35 33.3774 39.5186 32.5465C40.8174 30.5615 42.3792 28.7662 44.1646 27.2473C45.7787 25.8742 47.5766 24.8425 49.5136 24.0599C50.5201 23.6551 51.6498 24.1784 52.0378 25.2284C52.4342 26.3002 51.9036 27.4592 50.9178 27.8613ZM50.9178 27.8613C50.9083 27.8651 50.9273 27.8573 50.9178 27.8613Z" stroke="#214475" stroke-width="1.5" stroke-miterlimit="10" stroke-linecap="round" stroke-linejoin="round"/>
<path d="M32.4149 9.87995L37.3974 14.6333H8.87988L13.7011 9.87995" stroke="#214475" stroke-width="1.5" stroke-miterlimit="10" stroke-linecap="round" stroke-linejoin="round"/>
</g>
</svg>
