<svg width="63" height="64" viewBox="0 0 63 64" fill="none" xmlns="http://www.w3.org/2000/svg">
<rect y="0.5" width="63" height="63" rx="7" fill="white"/>
<path d="M28.2479 49.3582L28.2938 51.727C28.6751 51.5863 29.0401 51.3725 29.406 51.1943L31.5028 50.1776C31.9376 49.9642 32.5071 49.5953 32.9879 49.5528C34.0801 49.4566 34.2556 50.7138 33.0721 51.3719C32.1935 51.8605 31.2416 52.2517 30.3375 52.6944L28.6167 53.548C27.5939 54.0593 27.4147 54.2422 26.2111 54.0434L9.91419 51.3714C9.07614 51.2446 7.91485 51.2917 7.88686 50.1407L7.88832 28.856C7.88843 27.6797 7.83233 26.4744 7.9496 25.3031C8.18732 22.9287 9.1219 20.6688 10.2283 18.5786L12.395 14.7843C12.8404 14.0354 14.1144 12.034 14.3022 11.2142C14.3676 10.9291 14.3804 10.6364 14.4045 10.3457C14.605 7.92139 14.574 7.05888 17.2097 6.86603L18.6769 6.7998L21.8017 6.80926L23.7125 6.92367C25.9732 7.08472 30.9101 7.57697 32.9484 8.56665C33.6828 8.9232 33.7391 9.39797 33.832 10.1399L34.0374 11.6324C34.2013 12.6947 34.3952 12.9445 34.9823 13.8052L37.7494 18.2457L38.7719 20.1019C39.2262 20.9035 39.7441 21.6449 40.0431 22.5257C40.5601 24.0487 40.6336 25.6452 40.6347 27.236L40.6333 34.86C40.5915 35.7746 39.1558 36.0296 38.8932 35.0598C38.8285 34.8206 38.852 34.5464 38.8514 34.3L38.8172 25.0421C38.8088 24.9279 38.809 24.7977 38.7766 24.6882L28.8211 28.2611C28.6472 28.3216 28.3919 28.3493 28.2475 28.4527L28.2479 49.3582ZM18.7598 8.55717C17.9709 8.56201 17.1893 8.55918 16.4082 8.68952C16.226 9.42616 16.228 10.1555 16.1216 10.894L30.0821 11.8133L32.0771 12.1024C32.133 12.1145 32.2216 12.1485 32.2766 12.1356L32.1484 10.6965C32.1281 10.532 32.1103 10.3205 32.0387 10.1691C30.2514 9.20647 24.7051 8.75041 22.7121 8.63739L18.7598 8.55717ZM15.6421 12.621L14.2654 15.1272C12.4301 18.2664 10.5067 21.1904 9.78579 24.8072L26.369 26.8107L26.5712 26.8419C26.6166 26.7572 26.6194 26.6207 26.6338 26.5243L26.947 25.006C27.2446 23.9689 27.6672 22.9472 28.1049 21.9623L31.688 14.8692C31.8402 14.5508 32.0107 14.2256 32.1225 13.8909C31.4798 13.7437 30.8337 13.6708 30.1805 13.5866L25.2948 13.1393L15.6421 12.621ZM33.5648 14.9909L32.1006 17.9709C30.6569 20.7164 29.0534 23.4662 28.3943 26.5282C28.4941 26.5474 28.7109 26.4421 28.8101 26.4037L31.8712 25.2752L38.3407 22.9154L33.5648 14.9909ZM9.67434 26.5354L9.66555 49.076C9.66615 49.2255 9.64404 49.4088 9.684 49.5504L26.4689 52.2637L26.469 28.5843L9.67434 26.5354Z" fill="#214475"/>
<path d="M19.8976 18.1395C19.4059 18.1882 18.9012 18.1063 18.4081 18.0846L17.5958 18.0728C17.4268 18.0706 17.2389 18.0785 17.081 18.011L16.9172 17.933C16.1343 17.473 16.3391 16.4446 17.1747 16.2385C17.526 16.2175 17.882 16.2742 18.2334 16.2856C18.6978 16.3005 19.8279 16.1713 20.2022 16.4716L20.232 16.4969C20.8641 17.0269 20.627 17.8763 19.8976 18.1395Z" fill="#214475"/>
<path d="M18.0735 44.5856C16.0802 44.6697 14.2649 43.2316 13.8217 41.2925C13.4328 39.5909 14.244 37.8213 15.1186 36.409L16.5508 34.3004C16.8911 33.8405 17.1729 33.347 17.7628 33.2083C18.4666 33.1728 18.7853 33.6853 19.1935 34.1789C19.6921 34.782 20.1283 35.4255 20.5506 36.083C21.8847 38.16 23.0037 40.9099 21.1396 43.084C20.3446 44.0113 19.2792 44.4879 18.0735 44.5856ZM17.8434 35.4115C17.1736 36.6281 16.2705 37.7074 15.7699 39.0181C15.0911 40.7955 15.7712 42.7421 17.9399 42.769C20.2859 42.6618 20.7248 40.4607 19.8976 38.5674C19.2902 37.1775 18.6156 36.55 17.8434 35.4115Z" fill="#214475"/>
<path d="M20.3915 56.4946L9.92988 54.8226C9.54425 54.7641 9.11261 54.7321 8.75245 54.5773C7.92244 54.2205 8.22274 52.9853 9.06127 52.8838C9.44447 52.8376 9.93212 53.007 10.3094 53.081L27.3541 55.8194C27.6556 55.8666 27.6602 55.8607 27.9303 55.7071L29.9129 54.6618C31.746 53.7755 33.6044 52.9237 35.5198 52.2292C34.434 49.1985 33.691 45.1492 33.5801 41.9771L33.5568 41.0101C33.5404 40.3278 33.5482 39.8065 34.0419 39.2832C35.6925 37.5332 40.0298 37.0587 42.2518 36.9959C45.1727 36.8894 52.2333 37.4562 53.6674 40.0561C53.9324 40.5365 53.8613 41.11 53.8567 41.6389C53.8261 45.1516 53.0007 48.7959 51.6758 52.0548L49.7377 56.3534C48.9885 57.959 48.4905 58.0447 46.8091 58.1885C45.8924 58.2669 44.9995 58.2826 44.0797 58.2822L40.1547 58.0374C36.7238 57.6543 37.5617 56.7239 36.1261 54.0515C35.1867 54.2759 34.282 54.6494 33.3957 55.0298L29.0444 57.1592C27.8364 57.832 28.0846 57.8024 26.6225 57.5216L20.3915 56.4946ZM42.3796 38.75C40.2735 38.853 36.9826 39.0652 35.307 40.5567C35.792 41.0031 36.3821 41.2746 36.9916 41.5102C39.608 42.5215 42.222 42.5348 44.9652 42.5292C47.145 42.4802 50.2838 42.2262 52.0203 40.8207C49.9828 39.0941 45.0114 38.6203 42.3796 38.75ZM35.3333 42.6704C35.412 43.0922 35.4416 43.528 35.493 43.9541L36.2751 48.3702C36.5635 49.6305 36.8875 50.8724 37.3106 52.0956L37.9375 53.7343C38.2405 54.5003 38.5138 55.3751 38.9987 56.0454C39.3746 56.1958 39.8288 56.2274 40.2294 56.2785L41.629 56.4204C41.8979 56.4519 42.1609 56.487 42.4323 56.5002L44.7374 56.5157C45.4742 56.5154 46.1978 56.5204 46.9314 56.4433C47.7971 56.3522 47.7836 56.3621 48.1639 55.573L49.5557 52.512C50.7318 49.7918 51.6079 46.9879 51.9671 44.0395L52.0598 43.2321C52.0738 43.1115 52.109 42.9634 52.0917 42.8434C49.5246 44.0515 46.7574 44.2604 43.9487 44.2597L41.0946 44.1646C39.1601 44.0058 37.0424 43.6584 35.3333 42.6704Z" fill="#214475"/>
</svg>
