<svg width="80" height="90" viewBox="0 0 80 90" fill="none" xmlns="http://www.w3.org/2000/svg">
<path d="M40 36.5625C39.1656 36.5625 38.35 36.3151 37.6562 35.8515C36.9624 35.388 36.4217 34.7291 36.1024 33.9582C35.7831 33.1873 35.6995 32.3391 35.8623 31.5207C36.0251 30.7024 36.4269 29.9506 37.0169 29.3606C37.6069 28.7706 38.3586 28.3688 39.177 28.2061C39.9953 28.0433 40.8436 28.1268 41.6144 28.4461C42.3853 28.7654 43.0442 29.3062 43.5078 29.9999C43.9713 30.6937 44.2188 31.5094 44.2188 32.3438C44.2188 33.4626 43.7743 34.5357 42.9831 35.3269C42.1919 36.118 41.1189 36.5625 40 36.5625ZM40 30.9375C39.7219 30.9375 39.45 31.02 39.2187 31.1745C38.9875 31.329 38.8072 31.5486 38.7008 31.8056C38.5944 32.0626 38.5665 32.3453 38.6208 32.6181C38.675 32.8909 38.809 33.1415 39.0056 33.3381C39.2023 33.5348 39.4529 33.6687 39.7257 33.723C39.9984 33.7772 40.2812 33.7494 40.5381 33.643C40.7951 33.5365 41.0147 33.3563 41.1693 33.125C41.3238 32.8938 41.4063 32.6219 41.4063 32.3438C41.4063 31.9708 41.2581 31.6131 40.9944 31.3494C40.7306 31.0857 40.373 30.9375 40 30.9375Z" fill="white"/>
<path d="M51.25 50.625C50.4156 50.625 49.6 50.3776 48.9062 49.914C48.2124 49.4505 47.6717 48.7916 47.3524 48.0207C47.0331 47.2498 46.9495 46.4016 47.1123 45.5832C47.2751 44.7649 47.6769 44.0131 48.2669 43.4231C48.8569 42.8331 49.6086 42.4313 50.427 42.2686C51.2453 42.1058 52.0936 42.1893 52.8644 42.5086C53.6353 42.8279 54.2942 43.3687 54.7578 44.0624C55.2213 44.7562 55.4688 45.5719 55.4688 46.4063C55.4688 47.5251 55.0243 48.5982 54.2331 49.3894C53.4419 50.1805 52.3689 50.625 51.25 50.625ZM51.25 45C50.9719 45 50.7 45.0825 50.4687 45.237C50.2375 45.3915 50.0572 45.6111 49.9508 45.8681C49.8444 46.1251 49.8165 46.4078 49.8708 46.6806C49.925 46.9534 50.059 47.204 50.2556 47.4006C50.4523 47.5973 50.7029 47.7312 50.9757 47.7855C51.2484 47.8397 51.5312 47.8119 51.7881 47.7055C52.0451 47.599 52.2647 47.4188 52.4193 47.1875C52.5738 46.9563 52.6563 46.6844 52.6563 46.4063C52.6563 46.0333 52.5081 45.6756 52.2444 45.4119C51.9806 45.1482 51.623 45 51.25 45Z" fill="white"/>
<path d="M39.9998 49.218C39.7453 49.2177 39.4957 49.1485 39.2775 49.0176C39.0593 48.8866 38.8807 48.6989 38.7607 48.4745C38.6408 48.2501 38.584 47.9973 38.5964 47.7431C38.6088 47.489 38.69 47.2429 38.8312 47.0312L50.0812 30.1562C50.2882 29.8459 50.61 29.6306 50.9757 29.5575C51.3415 29.4845 51.7214 29.5597 52.0317 29.7667C52.342 29.9737 52.5573 30.2955 52.6304 30.6613C52.7034 31.027 52.6282 31.4069 52.4212 31.7172L41.1712 48.5922C41.0426 48.7849 40.8684 48.9429 40.664 49.0521C40.4597 49.1612 40.2315 49.2182 39.9998 49.218Z" fill="white"/>
<path d="M37.1875 57.6562H31.5625C31.1895 57.6562 30.8319 57.8044 30.5681 58.0681C30.3044 58.3319 30.1562 58.6895 30.1562 59.0625V68.9062C30.1562 69.2792 30.3044 69.6369 30.5681 69.9006C30.8319 70.1643 31.1895 70.3125 31.5625 70.3125C31.9355 70.3125 32.2931 70.1643 32.5569 69.9006C32.8206 69.6369 32.9688 69.2792 32.9688 68.9062V66.0938H35.7812C36.1542 66.0938 36.5119 65.9456 36.7756 65.6819C37.0393 65.4181 37.1875 65.0605 37.1875 64.6875C37.1875 64.3145 37.0393 63.9569 36.7756 63.6931C36.5119 63.4294 36.1542 63.2812 35.7812 63.2812H32.9688V60.4688H37.1875C37.5605 60.4688 37.9181 60.3206 38.1819 60.0569C38.4456 59.7931 38.5938 59.4355 38.5938 59.0625C38.5938 58.6895 38.4456 58.3319 38.1819 58.0681C37.9181 57.8044 37.5605 57.6562 37.1875 57.6562Z" fill="white"/>
<path d="M45.625 57.6562C44.5061 57.6562 43.4331 58.1007 42.6419 58.8919C41.8507 59.6831 41.4062 60.7561 41.4062 61.875V68.9062C41.4062 69.2792 41.5544 69.6369 41.8181 69.9006C42.0819 70.1643 42.4395 70.3125 42.8125 70.3125C43.1855 70.3125 43.5431 70.1643 43.8069 69.9006C44.0706 69.6369 44.2188 69.2792 44.2188 68.9062V66.0938H47.0312V68.9062C47.0312 69.2792 47.1794 69.6369 47.4431 69.9006C47.7069 70.1643 48.0645 70.3125 48.4375 70.3125C48.8105 70.3125 49.1681 70.1643 49.4319 69.9006C49.6956 69.6369 49.8438 69.2792 49.8438 68.9062V61.875C49.8438 60.7561 49.3993 59.6831 48.6081 58.8919C47.8169 58.1007 46.7439 57.6562 45.625 57.6562ZM44.2188 63.2812V61.875C44.2188 61.502 44.3669 61.1444 44.6306 60.8806C44.8944 60.6169 45.252 60.4688 45.625 60.4688C45.998 60.4688 46.3556 60.6169 46.6194 60.8806C46.8831 61.1444 47.0312 61.502 47.0312 61.875V63.2812H44.2188Z" fill="white"/>
<path d="M59.6875 57.6562H54.0625C53.6895 57.6562 53.3319 57.8044 53.0681 58.0681C52.8044 58.3319 52.6562 58.6895 52.6562 59.0625C52.6562 59.4355 52.8044 59.7931 53.0681 60.0569C53.3319 60.3206 53.6895 60.4688 54.0625 60.4688H55.4688V68.9062C55.4688 69.2792 55.6169 69.6369 55.8806 69.9006C56.1444 70.1643 56.502 70.3125 56.875 70.3125C57.248 70.3125 57.6056 70.1643 57.8694 69.9006C58.1331 69.6369 58.2812 69.2792 58.2812 68.9062V60.4688H59.6875C60.0605 60.4688 60.4181 60.3206 60.6819 60.0569C60.9456 59.7931 61.0938 59.4355 61.0938 59.0625C61.0938 58.6895 60.9456 58.3319 60.6819 58.0681C60.4181 57.8044 60.0605 57.6562 59.6875 57.6562Z" fill="white"/>
<path d="M66.0606 23.0832C65.9601 22.9242 65.8287 22.787 65.6742 22.6798C65.5197 22.5725 65.3452 22.4973 65.1611 22.4586C64.9771 22.42 64.7871 22.4186 64.6025 22.4547C64.4179 22.4908 64.2424 22.5635 64.0864 22.6686C63.9304 22.7737 63.7971 22.909 63.6943 23.0665C63.5915 23.2241 63.5214 23.4006 63.4881 23.5858C63.4548 23.7709 63.4589 23.9608 63.5003 24.1443C63.5417 24.3278 63.6195 24.5011 63.7291 24.654C72.2453 37.3046 76.5625 47.9359 76.5625 56.2496C76.5625 64.4547 73.303 72.3238 67.5011 78.1257C61.6992 83.9276 53.8301 87.1871 45.625 87.1871C37.4199 87.1871 29.5508 83.9276 23.7489 78.1257C17.947 72.3238 14.6875 64.4547 14.6875 56.2496C14.6875 34.8085 43.3862 4.52633 44.6083 3.24664C44.88 2.98089 45.2449 2.83209 45.625 2.83209C46.0051 2.83209 46.37 2.98089 46.6417 3.24664C51.6049 8.57593 56.2432 14.1989 60.5312 20.0851C60.6399 20.2344 60.777 20.3608 60.9345 20.4572C61.092 20.5535 61.267 20.6179 61.4494 20.6466C61.6319 20.6754 61.8182 20.6679 61.9977 20.6246C62.1772 20.5813 62.3465 20.5031 62.4958 20.3945C62.6451 20.2858 62.7715 20.1488 62.8679 19.9912C62.9642 19.8337 63.0286 19.6587 63.0573 19.4763C63.0861 19.2938 63.0786 19.1075 63.0353 18.928C62.992 18.7485 62.9138 18.5792 62.8052 18.4299C58.4503 12.4384 53.7319 6.71966 48.6766 1.30602C47.8617 0.507684 46.7664 0.0605469 45.6257 0.0605469C44.485 0.0605469 43.3897 0.507684 42.5748 1.30602C41.5694 2.35789 22.4655 22.5291 14.9167 42.1112C11.7854 41.8073 8.87822 40.3526 6.7577 38.0287C4.63717 35.7047 3.45412 32.6768 3.4375 29.5309C3.4375 22.7598 10.75 13.359 15.0812 8.86742C15.3526 8.6042 15.7157 8.45698 16.0938 8.45698C16.4718 8.45698 16.8349 8.6042 17.1063 8.86742C19.8348 11.746 22.296 14.8666 24.4595 18.1909C24.559 18.3465 24.6881 18.4811 24.8396 18.5869C24.991 18.6926 25.1618 18.7675 25.3422 18.8073C25.5226 18.8471 25.7091 18.8509 25.891 18.8186C26.0728 18.7863 26.2466 18.7185 26.4023 18.6191C26.5579 18.5196 26.6925 18.3905 26.7983 18.239C26.9041 18.0876 26.979 17.9168 27.0187 17.7364C27.0585 17.556 27.0623 17.3695 27.03 17.1876C26.9977 17.0057 26.9299 16.832 26.8305 16.6763C24.5655 13.1967 21.9889 9.93016 19.1327 6.91695C18.319 6.1262 17.2291 5.68383 16.0945 5.68383C14.9598 5.68383 13.8699 6.1262 13.0563 6.91695C11.7836 8.23742 0.625 20.0907 0.625 29.5309C0.64561 33.2522 2.00091 36.8425 4.4445 39.6492C6.8881 42.4559 10.2577 44.2926 13.9408 44.8252C12.6557 48.501 11.9585 52.3565 11.875 56.2496C11.875 65.2007 15.4308 73.7851 21.7601 80.1145C28.0895 86.4438 36.6739 89.9996 45.625 89.9996C54.5761 89.9996 63.1605 86.4438 69.4899 80.1145C75.8192 73.7851 79.375 65.2007 79.375 56.2496C79.375 47.3663 74.8947 36.2077 66.0606 23.0832Z" fill="white"/>
</svg>
