<svg width="93" height="93" viewBox="0 0 93 93" fill="none" xmlns="http://www.w3.org/2000/svg">
<path d="M49.8707 16.8905C49.1229 16.8064 48.4487 17.3442 48.3646 18.0917C48.2805 18.8393 48.8183 19.5137 49.5659 19.5978C63.2528 21.1392 73.5739 32.7043 73.5739 46.4994C73.5739 61.4276 61.429 73.5725 46.5008 73.5725C31.5726 73.5725 19.4277 61.4276 19.4277 46.4994C19.4277 32.7223 29.7339 21.1588 43.4008 19.6018C44.1482 19.5166 44.6853 18.8417 44.6001 18.094C44.5149 17.3464 43.8407 16.8086 43.0923 16.8947C28.0481 18.6088 16.7031 31.3359 16.7031 46.4994C16.7031 62.93 30.0703 76.2971 46.5008 76.2971C62.9313 76.2971 76.2985 62.93 76.2985 46.4994C76.2985 31.3163 64.937 18.5872 49.8707 16.8905Z" fill="white"/>
<path d="M79.9885 58.6497C79.3293 56.543 79.9529 54.216 81.5769 52.7212C83.3116 51.1247 84.3066 48.857 84.3066 46.4995C84.3066 44.142 83.3116 41.8742 81.5771 40.2778C79.9529 38.7831 79.3293 36.4559 79.9885 34.3493C80.6925 32.0993 80.4202 29.638 79.2416 27.5963C78.0629 25.5547 76.0673 24.0882 73.7668 23.573C71.6129 23.0906 69.9093 21.387 69.4269 19.2331C68.9118 16.9327 67.4452 14.9372 65.4036 13.7584C63.362 12.5795 60.9006 12.3072 58.6506 13.0115C56.544 13.6706 54.217 13.0471 52.7221 11.423C51.1257 9.68838 48.858 8.69336 46.5005 8.69336C44.143 8.69336 41.8752 9.68838 40.2788 11.4228C38.7841 13.0471 36.4573 13.6706 34.3503 13.0115C32.1003 12.3074 29.6389 12.5795 27.5973 13.7584C25.5557 14.937 24.0891 16.9327 23.574 19.2331C23.0916 21.387 21.388 23.0906 19.2341 23.573C16.9337 24.0882 14.9382 25.5547 13.7593 27.5963C12.5805 29.638 12.3084 32.0993 13.0124 34.3493C13.6716 36.4559 13.048 38.7829 11.424 40.2778C9.68935 41.8742 8.69434 44.142 8.69434 46.4995C8.69434 48.857 9.68935 51.1247 11.4238 52.7212C13.048 54.2159 13.6716 56.543 13.0124 58.6497C12.3084 60.8996 12.5807 63.361 13.7593 65.4026C14.938 67.4443 16.9337 68.9108 19.2341 69.4259C21.388 69.9084 23.0916 71.612 23.574 73.7658C24.0891 76.0663 25.5557 78.0618 27.5973 79.2406C29.6391 80.4193 32.1003 80.6917 34.3503 79.9875C36.4575 79.3285 38.7841 79.9519 40.2788 81.5759C41.8752 83.3106 44.143 84.3056 46.5005 84.3056C48.858 84.3056 51.1257 83.3106 52.7221 81.5761C54.217 79.9519 56.5442 79.3283 58.6506 79.9875C60.9002 80.6914 63.362 80.4193 65.4036 79.2406C67.4452 78.062 68.9118 76.0663 69.4269 73.7658C69.9093 71.612 71.6129 69.9084 73.7668 69.4259C76.0673 68.9108 78.0628 67.4443 79.2416 65.4026C80.4204 63.361 80.6925 60.8996 79.9885 58.6497ZM77.3883 59.4634C77.8726 61.0108 77.6927 62.6363 76.8821 64.0403C76.0714 65.4444 74.7537 66.4129 73.1714 66.7673C69.9934 67.4791 67.4801 69.9925 66.7683 73.1704C66.4139 74.7525 65.4456 76.0703 64.0413 76.8811C62.6371 77.6918 61.0116 77.8714 59.4644 77.3874C56.356 76.4145 52.9228 77.3347 50.7176 79.731C49.6196 80.924 48.1219 81.5812 46.5006 81.5812C44.8793 81.5812 43.3817 80.9242 42.2837 79.731C40.6619 77.969 38.3761 77.0052 36.0441 77.0052C35.2047 77.0052 34.3594 77.1301 33.5369 77.3874C31.9897 77.8712 30.364 77.6916 28.96 76.8811C27.5559 76.0705 26.5874 74.7527 26.233 73.1704C25.5212 69.9925 23.0078 67.4791 19.8299 66.7673C18.2478 66.4129 16.93 65.4446 16.1192 64.0403C15.3085 62.6363 15.1287 61.0108 15.613 59.4634C16.5855 56.3554 15.6656 52.9221 13.2693 50.7166C12.0763 49.6186 11.4191 48.121 11.4191 46.4997C11.4191 44.8784 12.0761 43.3807 13.2693 42.2827C15.6655 40.0773 16.5855 36.6439 15.613 33.5359C15.1287 31.9885 15.3085 30.3631 16.1192 28.959C16.9298 27.5549 18.2476 26.5864 19.8299 26.232C23.0078 25.5202 25.5212 23.0069 26.233 19.8289C26.5874 18.2468 27.5557 16.929 28.96 16.1182C30.3642 15.3074 31.9899 15.1277 33.5369 15.612C36.6447 16.5845 40.0783 15.6645 42.2837 13.2683C43.3817 12.0753 44.8793 11.4181 46.5006 11.4181C48.1219 11.4181 49.6196 12.0751 50.7176 13.2683C52.9232 15.6645 56.3564 16.5845 59.4644 15.612C61.0114 15.1277 62.6371 15.3074 64.0413 16.1182C65.4454 16.9289 66.4139 18.2467 66.7683 19.8289C67.4801 23.0069 69.9934 25.5202 73.1714 26.232C74.7535 26.5864 76.0713 27.5547 76.8821 28.959C77.6927 30.3631 77.8726 31.9885 77.3883 33.5359C76.4158 36.6439 77.3356 40.0773 79.732 42.2827C80.925 43.3807 81.5822 44.8784 81.5822 46.4997C81.5822 48.121 80.9252 49.6186 79.732 50.7166C77.3356 52.9221 76.4156 56.3554 77.3883 59.4634Z" fill="white"/>
<path d="M79.8652 14.1192C80.2138 14.1192 80.5625 13.9863 80.8284 13.7202L92.2231 2.3255C92.7551 1.79347 92.7551 0.930863 92.2231 0.399019C91.6911 -0.133006 90.8285 -0.133006 90.2966 0.399019L78.9019 11.7937C78.3699 12.3257 78.3699 13.1883 78.9019 13.7202C79.1679 13.9861 79.5164 14.1192 79.8652 14.1192Z" fill="white"/>
<path d="M92.5733 19.0724C92.3755 18.3466 91.6268 17.9186 90.9006 18.1168L85.2033 19.6711C84.4774 19.8691 84.0495 20.618 84.2476 21.3438C84.4129 21.9496 84.962 22.3479 85.5611 22.3479C85.6797 22.3479 85.8005 22.3323 85.9206 22.2994L91.6179 20.7451C92.3436 20.5473 92.7715 19.7982 92.5733 19.0724Z" fill="white"/>
<path d="M71.1563 8.37424C71.2764 8.40711 71.397 8.42273 71.5158 8.42273C72.1148 8.42273 72.6639 8.0244 72.8292 7.41862L74.3835 1.72129C74.5815 0.995449 74.1537 0.246363 73.4279 0.0485565C72.7021 -0.149977 71.9532 0.278332 71.7552 1.00417L70.2009 6.70151C70.0025 7.42734 70.4303 8.17625 71.1563 8.37424Z" fill="white"/>
<path d="M12.1736 13.7212C12.4395 13.9871 12.7883 14.1202 13.1368 14.1202C13.4854 14.1202 13.8341 13.9873 14.1001 13.7212C14.6321 13.1891 14.6321 12.3265 14.1001 11.7947L2.70538 0.399996C2.17336 -0.13203 1.31075 -0.13203 0.778902 0.399996C0.246876 0.932021 0.246876 1.79463 0.778902 2.32648L12.1736 13.7212Z" fill="white"/>
<path d="M7.79734 19.6712L2.1 18.1169C1.37417 17.9185 0.625081 18.3466 0.427274 19.0725C0.229286 19.7983 0.65705 20.5474 1.38289 20.7452L7.08023 22.2995C7.20029 22.3324 7.3209 22.348 7.43969 22.348C8.03874 22.348 8.58784 21.9497 8.75314 21.3439C8.95094 20.618 8.52318 19.8691 7.79734 19.6712Z" fill="white"/>
<path d="M20.1719 7.41855C20.3372 8.02432 20.8863 8.42266 21.4853 8.42266C21.6039 8.42266 21.7247 8.40704 21.8448 8.37416C22.5706 8.17617 22.9986 7.42727 22.8004 6.70143L21.2461 1.00409C21.0481 0.278438 20.2999 -0.14987 19.5734 0.0484812C18.8475 0.24647 18.4196 0.995374 18.6178 1.72121L20.1719 7.41855Z" fill="white"/>
<path d="M80.8284 79.2799C80.2964 78.7479 79.4338 78.7479 78.9019 79.2799C78.3699 79.8119 78.3699 80.6745 78.9019 81.2064L90.2966 92.601C90.5625 92.867 90.9113 93.0001 91.2599 93.0001C91.6084 93.0001 91.9572 92.8671 92.2231 92.601C92.7551 92.069 92.7551 91.2064 92.2231 90.6746L80.8284 79.2799Z" fill="white"/>
<path d="M91.6177 72.2541L85.9203 70.6998C85.1941 70.5016 84.4456 70.9296 84.2476 71.6554C84.0496 72.3812 84.4774 73.1303 85.2032 73.3281L90.9005 74.8824C91.0206 74.9153 91.1412 74.9309 91.26 74.9309C91.8591 74.9309 92.4082 74.5326 92.5734 73.9268C92.7714 73.201 92.3435 72.4521 91.6177 72.2541Z" fill="white"/>
<path d="M72.8291 85.5812C72.6311 84.8556 71.8822 84.4273 71.1564 84.6256C70.4306 84.8236 70.0026 85.5725 70.2008 86.2984L71.7551 91.9957C71.9204 92.6015 72.4695 92.9998 73.0685 92.9998C73.1871 92.9998 73.3077 92.9842 73.428 92.9513C74.1538 92.7533 74.5818 92.0044 74.3836 91.2786L72.8291 85.5812Z" fill="white"/>
<path d="M12.1736 79.2799L0.778902 90.6746C0.246876 91.2066 0.246876 92.0692 0.778902 92.601C1.04482 92.867 1.39357 93.0001 1.74214 93.0001C2.09071 93.0001 2.43946 92.8671 2.70538 92.601L14.1001 81.2064C14.6321 80.6743 14.6321 79.8117 14.1001 79.2799C13.568 78.7479 12.7054 78.7479 12.1736 79.2799Z" fill="white"/>
<path d="M7.08029 70.6999L1.38295 72.2542C0.657113 72.4522 0.229167 73.2011 0.427337 73.927C0.59263 74.5327 1.14173 74.9311 1.74078 74.9311C1.85939 74.9311 1.98018 74.9154 2.10025 74.8826L7.79759 73.3283C8.52342 73.1303 8.95137 72.3814 8.7532 71.6555C8.55539 70.9297 7.80649 70.5014 7.08029 70.6999Z" fill="white"/>
<path d="M21.8447 84.6256C21.1189 84.4274 20.37 84.8554 20.172 85.5812L18.6177 91.2785C18.4197 92.0044 18.8475 92.7535 19.5733 92.9513C19.6934 92.9841 19.814 92.9998 19.9328 92.9998C20.5318 92.9998 21.0809 92.6014 21.2462 91.9957L22.8005 86.2983C22.9985 85.5727 22.5706 84.8236 21.8447 84.6256Z" fill="white"/>
<path d="M52.3659 50.9079C51.8339 51.4399 51.8339 52.3025 52.3659 52.8344C52.8979 53.3664 53.7605 53.3664 54.2924 52.8344L65.4706 41.6561C66.2678 40.8589 66.7068 39.7992 66.7068 38.6718C66.7068 37.5444 66.2678 36.4847 65.4706 35.6877L61.9575 32.1744C60.3119 30.5291 57.6345 30.5291 55.9891 32.1744L42.1384 46.0251L37.2926 41.1791C36.4954 40.3819 35.4357 39.9429 34.3083 39.9429C33.1809 39.9429 32.1212 40.3819 31.324 41.1791L27.5312 44.9719C26.7339 45.7692 26.2949 46.8288 26.2949 47.9563C26.2949 49.0837 26.7339 50.1434 27.5312 50.9404L37.2487 60.6581C38.5196 61.929 40.189 62.5646 41.8585 62.5646C43.5279 62.5646 45.1974 61.929 46.4683 60.6581L49.8181 57.3083C50.3501 56.7763 50.3501 55.9137 49.8181 55.3818C49.286 54.8498 48.4234 54.8498 47.8916 55.3818L44.5418 58.7316C43.0622 60.2111 40.6546 60.2111 39.1751 58.7316L29.4576 49.0139C29.175 48.7315 29.0195 48.3559 29.0195 47.9564C29.0195 47.5568 29.1752 47.1812 29.4576 46.8988L33.2504 43.106C33.533 42.8235 33.9087 42.6679 34.3081 42.6679C34.7075 42.6679 35.0832 42.8233 35.3658 43.106L41.175 48.9151C41.707 49.4472 42.5696 49.4472 43.1014 48.9151L57.9155 34.1012C58.4986 33.5182 59.4476 33.518 60.0309 34.1012L63.544 37.6145C63.8266 37.8969 63.9821 38.2726 63.9821 38.672C63.9821 39.0714 63.8264 39.4472 63.544 39.7297L52.3659 50.9079Z" fill="white"/>
</svg>
