<svg width="88" height="90" viewBox="0 0 88 90" fill="none" xmlns="http://www.w3.org/2000/svg">
<path d="M85.6242 29.3961L71.8166 15.9991C71.8468 15.6152 71.8621 15.229 71.8621 14.8414C71.8623 6.65771 65.2045 0 57.0209 0C49.5361 0 43.3043 5.54203 42.3187 12.8275L41.3215 12.8123C40.0112 12.7925 38.7398 13.3105 37.8175 14.2327L3.35521 48.6951C0.0860254 51.9645 0.0860254 57.2838 3.35521 60.5531L6.3797 63.5778C6.63722 63.8353 6.97454 63.964 7.31204 63.964C7.64937 63.964 7.98687 63.8353 8.24421 63.578C8.75925 63.0631 8.75925 62.2283 8.24438 61.7135L5.21989 58.6888C2.97868 56.4476 2.97868 52.8008 5.21989 50.5596L39.682 16.0972C40.103 15.676 40.6901 15.4387 41.2816 15.4487L56.5709 15.6795L42.4338 29.3961C41.4976 30.3045 40.9606 31.5737 40.9606 32.8781V44.8029C40.9606 45.531 41.5507 46.1213 42.279 46.1213C43.0072 46.1213 43.5973 45.531 43.5973 44.8029V32.8781C43.5973 32.2826 43.8425 31.7032 44.2699 31.2885L62.4866 13.6134C63.3515 12.7742 64.7066 12.7742 65.5714 13.6134L69.0329 16.972C68.6332 19.2136 67.6122 21.3135 66.081 23.014C65.4796 22.6561 64.7781 22.4497 64.0289 22.4497C61.8097 22.4497 60.0042 24.2552 60.0042 26.4744C60.0042 28.6937 61.8097 30.4991 64.0289 30.4991C66.2482 30.4991 68.0538 28.6937 68.0538 26.4744C68.0538 25.9727 67.9606 25.4925 67.7922 25.0492C69.3941 23.3564 70.5678 21.3144 71.2323 19.106L83.7881 31.2885C84.2156 31.703 84.4607 32.2824 84.4607 32.8781V44.4655C84.4607 45.1935 85.0509 45.7838 85.779 45.7838C86.5073 45.7838 87.0974 45.1935 87.0974 44.4655V32.8781C87.0974 31.5735 86.5606 30.3043 85.6242 29.3961ZM64.0291 27.8624C63.2637 27.8624 62.6411 27.2398 62.6411 26.4744C62.6411 25.7091 63.2637 25.0864 64.0291 25.0864C64.7944 25.0864 65.4172 25.7091 65.4172 26.4744C65.4171 27.2398 64.7944 27.8624 64.0291 27.8624ZM60.6506 11.7211L59.2246 13.1047C59.1487 13.0899 59.0708 13.0804 58.9908 13.0792L44.977 12.8675C45.9217 7.03389 50.9743 2.63672 57.0209 2.63672C63.2627 2.63672 68.4217 7.3473 69.1376 13.3996L67.4076 11.7211C65.513 9.88295 62.5451 9.88295 60.6506 11.7211Z" fill="white"/>
<path d="M85.779 50.8027C85.0509 50.8027 84.4606 51.393 84.4606 52.1211V81.6153C84.4606 84.7848 81.8821 87.3635 78.7126 87.3635H49.3455C46.176 87.3635 43.5973 84.7849 43.5973 81.6153V52.4586C43.5973 51.7305 43.0072 51.1402 42.2789 51.1402C41.5507 51.1402 40.9606 51.7305 40.9606 52.4586V72.6204C40.923 72.6504 40.8866 72.6824 40.8518 72.7172L34.1146 79.4544C31.8732 81.6958 28.2266 81.6954 25.9856 79.4544L13.6579 67.1268C13.143 66.6122 12.3084 66.6118 11.7934 67.1268C11.2785 67.6417 11.2785 68.4765 11.7934 68.9912L24.1211 81.3187C25.7559 82.9533 27.903 83.7707 30.0502 83.7707C32.1974 83.7707 34.3445 82.9533 35.9793 81.3187L40.9608 76.3372V81.6149C40.9608 86.2383 44.7221 89.9998 49.3457 89.9998H78.7128C83.3362 89.9998 87.0975 86.2385 87.0975 81.6149V52.1211C87.0974 51.393 86.5073 50.8027 85.779 50.8027Z" fill="white"/>
<path d="M63.8878 61.8972C61.7686 61.9118 60.9293 61.8163 59.1184 60.6317C58.5089 60.2331 57.6921 60.4039 57.2934 61.0132C56.8947 61.6224 57.0656 62.4396 57.675 62.8381C59.5823 64.086 60.8713 64.433 62.5783 64.513V68.0133C62.5783 68.7414 63.1684 69.3317 63.8966 69.3317C64.6249 69.3317 65.215 68.7414 65.215 68.0133V64.4138C68.5258 63.823 70.4591 61.1202 70.8832 58.5967C71.4206 55.4005 69.7475 52.6212 66.6211 51.5161C64.6175 50.8078 62.3944 49.9467 61.0973 48.9293C60.4636 48.4323 60.192 47.477 60.388 46.4362C60.5714 45.4636 61.2385 44.2823 62.5607 43.8838C65.5015 42.9977 68.336 44.9784 68.3645 44.9983C68.9544 45.4212 69.7755 45.2878 70.2012 44.6991C70.6277 44.109 70.4949 43.2848 69.9048 42.8583C69.7927 42.7771 67.85 41.3995 65.215 41.0822V37.7441C65.215 37.0161 64.6249 36.4258 63.8966 36.4258C63.1684 36.4258 62.5783 37.0161 62.5783 37.7441V41.1668C62.3213 41.2169 62.0617 41.2803 61.8003 41.3591C59.7477 41.9773 58.2138 43.7356 57.797 45.9477C57.4179 47.9595 58.0589 49.897 59.4701 51.0037C60.7575 52.0134 62.5746 52.8821 65.7423 54.0018C68.58 55.0048 68.4045 57.4376 68.2833 58.1594C67.9825 59.9476 66.4787 61.8798 63.8878 61.8972Z" fill="white"/>
<path d="M52.2617 73.6494C52.2617 74.3775 52.852 74.9678 53.5801 74.9678H74.4775C75.2057 74.9678 75.7958 74.3775 75.7958 73.6494C75.7958 72.9213 75.2057 72.3311 74.4775 72.3311H53.5801C52.852 72.3311 52.2617 72.9213 52.2617 73.6494Z" fill="white"/>
<path d="M53.5801 80.8711H74.4775C75.2057 80.8711 75.7958 80.2808 75.7958 79.5527C75.7958 78.8246 75.2057 78.2344 74.4775 78.2344H53.5801C52.852 78.2344 52.2617 78.8246 52.2617 79.5527C52.2617 80.2808 52.852 80.8711 53.5801 80.8711Z" fill="white"/>
<path d="M34.8077 65.8892C35.1451 65.8892 35.4826 65.7605 35.7401 65.503C36.2549 64.9881 36.2549 64.1534 35.7401 63.6385L20.9636 48.8618C20.4487 48.3469 19.6141 48.3468 19.099 48.8618C18.5842 49.3767 18.5842 50.2115 19.099 50.7263L33.8757 65.503C34.1329 65.7605 34.4702 65.8892 34.8077 65.8892Z" fill="white"/>
<path d="M14.9252 53.0354C14.4103 53.5503 14.4103 54.3851 14.9252 54.8998L29.7019 69.6765C29.9594 69.9338 30.2969 70.0627 30.6343 70.0627C30.9716 70.0627 31.3091 69.934 31.5666 69.6765C32.0815 69.1616 32.0815 68.3268 31.5666 67.8121L16.7899 53.0354C16.2749 52.5207 15.4402 52.5207 14.9252 53.0354Z" fill="white"/>
</svg>
