<svg width="72" height="66" viewBox="0 0 72 66" fill="none" xmlns="http://www.w3.org/2000/svg">
<path d="M36.1526 63.3071C36.1065 63.3524 36.0445 63.3778 35.9798 63.3777C35.9152 63.3777 35.8532 63.3522 35.8072 63.3068L8.08566 35.7829C6.16638 33.8774 4.66002 31.5972 3.66042 29.0842H19.5427C20.5014 29.0842 22.5916 28.4893 23.1683 27.3523C23.1777 27.3342 26.8667 18.9654 26.8667 18.9654C26.8781 18.9644 26.8894 18.9642 26.9008 18.9649C26.9008 18.9649 31.8579 33.4952 31.8656 33.5138C32.0085 33.828 32.2303 34.0998 32.5094 34.3026C32.7886 34.5055 33.1156 34.6326 33.4585 34.6715C33.8507 34.7482 34.256 34.724 34.6363 34.6011C35.0167 34.4782 35.3595 34.2607 35.6327 33.969C35.6599 33.9368 42.8385 23.2323 42.8385 23.2323C42.8848 23.2272 42.9315 23.2281 42.9776 23.2351L46.4221 27.5618C46.9205 28.1503 48.1526 29.0842 49.3357 29.0842H53.4176C53.7673 28.3008 54.1829 27.5485 54.6599 26.8355H49.3358C48.8878 26.7141 48.4817 26.4721 48.1619 26.1358L44.6449 21.7179C44.4179 21.4845 44.1465 21.2989 43.8466 21.1723C43.5468 21.0456 43.2245 20.9803 42.899 20.9803C42.5734 20.9803 42.2512 21.0456 41.9513 21.1723C41.6515 21.2989 41.38 21.4845 41.1531 21.7179C41.1262 21.7497 33.9473 32.4545 33.9473 32.4545C33.9267 32.4565 33.9044 32.4573 33.8813 32.4573C33.8813 32.4573 28.9242 17.927 28.9165 17.9083C28.7479 17.5476 28.4786 17.2433 28.141 17.0322C27.8034 16.8211 27.4119 16.7122 27.0137 16.7186C26.6014 16.6772 26.1859 16.7553 25.8167 16.9435C25.4475 17.1317 25.1402 17.4221 24.9315 17.7801C24.9222 17.7985 21.185 26.2766 21.185 26.2766C20.6917 26.5948 20.1277 26.7867 19.5427 26.8355H2.91154C2.04472 23.6783 2.0026 20.3515 2.78921 17.1734C3.57582 13.9953 5.16484 11.0723 7.40422 8.68392C10.8632 5.03096 15.6067 2.86554 20.6327 2.64508C25.6586 2.42462 30.5735 4.16639 34.3391 7.50246C34.7928 7.90108 35.3762 8.12092 35.9801 8.12092C36.5841 8.12092 37.1675 7.90108 37.6212 7.50246C41.3869 4.16654 46.3018 2.42487 51.3277 2.64533C56.3537 2.86578 61.0972 5.0311 64.5563 8.68392C66.7949 11.0727 68.3826 13.9962 69.1674 17.1745C69.9522 20.3528 69.9077 23.6793 69.0383 26.8355H63.3596C63.1417 27.4551 62.7467 27.9972 62.2236 28.3944C61.9629 28.6097 61.7151 28.84 61.4813 29.0842H68.2876C68.0485 29.6834 67.7903 30.2766 67.4908 30.8547C67.8238 30.9802 68.1497 31.124 68.4669 31.2854C68.8182 31.4684 69.1564 31.6755 69.4791 31.9051C70.0569 30.7827 70.5369 29.6125 70.9139 28.4077C70.9483 28.3277 70.9731 28.2439 70.9879 28.1581C72.1201 24.5422 72.2721 20.6906 71.4285 16.9967C70.5849 13.3027 68.7759 9.89896 66.1863 7.133C62.3263 3.05738 57.0333 0.641619 51.4253 0.395963C45.8172 0.150308 40.3333 2.09399 36.1317 5.81648C36.0896 5.85286 36.0359 5.87289 35.9803 5.87289C35.9247 5.87289 35.8709 5.85286 35.8289 5.81648C31.6274 2.09386 26.1434 0.150088 20.5353 0.395745C14.9272 0.641403 9.63422 3.05725 5.77429 7.133C-2.1998 15.4963 -1.87447 29.0641 6.49913 37.3777L34.2204 64.9017C34.6889 65.3649 35.3213 65.6247 35.9801 65.6247C36.639 65.6247 37.2714 65.3649 37.7399 64.9017L43.5062 59.1764C43.0167 58.5991 42.5577 57.9964 42.1313 57.3709L36.1526 63.3071Z" fill="white"/>
</svg>
