<svg width="72" height="72" viewBox="0 0 72 72" fill="none" xmlns="http://www.w3.org/2000/svg">
<g clip-path="url(#clip0_987_5252)">
<path d="M36.1526 66.3071C36.1065 66.3524 36.0445 66.3778 35.9798 66.3777C35.9152 66.3777 35.8532 66.3522 35.8072 66.3068L8.08566 38.7829C6.16638 36.8774 4.66002 34.5972 3.66042 32.0842H19.5427C20.5014 32.0842 22.5916 31.4893 23.1683 30.3523C23.1777 30.3342 26.8667 21.9654 26.8667 21.9654C26.8781 21.9644 26.8894 21.9642 26.9008 21.9649C26.9008 21.9649 31.8579 36.4952 31.8656 36.5138C32.0085 36.828 32.2303 37.0998 32.5094 37.3026C32.7886 37.5055 33.1156 37.6326 33.4585 37.6715C33.8507 37.7482 34.256 37.724 34.6363 37.6011C35.0167 37.4782 35.3595 37.2607 35.6327 36.969C35.6599 36.9368 42.8385 26.2323 42.8385 26.2323C42.8848 26.2272 42.9315 26.2281 42.9776 26.2351L46.4221 30.5618C46.9205 31.1503 48.1526 32.0842 49.3357 32.0842H53.4176C53.7673 31.3008 54.1829 30.5485 54.6599 29.8355H49.3358C48.8878 29.7141 48.4817 29.4721 48.1619 29.1358L44.6449 24.7179C44.4179 24.4845 44.1465 24.2989 43.8466 24.1723C43.5468 24.0456 43.2245 23.9803 42.899 23.9803C42.5734 23.9803 42.2512 24.0456 41.9513 24.1723C41.6515 24.2989 41.38 24.4845 41.1531 24.7179C41.1262 24.7497 33.9473 35.4545 33.9473 35.4545C33.9267 35.4565 33.9044 35.4573 33.8813 35.4573C33.8813 35.4573 28.9242 20.927 28.9165 20.9083C28.7479 20.5476 28.4786 20.2433 28.141 20.0322C27.8034 19.8211 27.4119 19.7122 27.0137 19.7186C26.6014 19.6772 26.1859 19.7553 25.8167 19.9435C25.4475 20.1317 25.1402 20.4221 24.9315 20.7801C24.9222 20.7985 21.185 29.2766 21.185 29.2766C20.6917 29.5948 20.1277 29.7867 19.5427 29.8355H2.91154C2.04472 26.6783 2.0026 23.3515 2.78921 20.1734C3.57582 16.9953 5.16484 14.0723 7.40422 11.6839C10.8632 8.03096 15.6067 5.86554 20.6327 5.64508C25.6586 5.42462 30.5735 7.16639 34.3391 10.5025C34.7928 10.9011 35.3762 11.1209 35.9801 11.1209C36.5841 11.1209 37.1675 10.9011 37.6212 10.5025C41.3869 7.16654 46.3018 5.42487 51.3277 5.64533C56.3537 5.86578 61.0972 8.0311 64.5563 11.6839C66.7949 14.0727 68.3826 16.9962 69.1674 20.1745C69.9522 23.3528 69.9077 26.6793 69.0383 29.8355H63.3596C63.1417 30.4551 62.7467 30.9972 62.2236 31.3944C61.9629 31.6097 61.7151 31.84 61.4813 32.0842H68.2876C68.0485 32.6834 67.7903 33.2766 67.4908 33.8547C67.8238 33.9802 68.1497 34.124 68.4669 34.2854C68.8182 34.4684 69.1564 34.6755 69.4791 34.9051C70.0569 33.7827 70.5369 32.6125 70.9139 31.4077C70.9483 31.3277 70.9731 31.2439 70.9879 31.1581C72.1201 27.5422 72.2721 23.6906 71.4285 19.9967C70.5849 16.3027 68.7759 12.899 66.1863 10.133C62.3263 6.05738 57.0333 3.64162 51.4253 3.39596C45.8172 3.15031 40.3333 5.09399 36.1317 8.81648C36.0896 8.85286 36.0359 8.87289 35.9803 8.87289C35.9247 8.87289 35.8709 8.85286 35.8289 8.81648C31.6274 5.09386 26.1434 3.15009 20.5353 3.39575C14.9272 3.6414 9.63422 6.05725 5.77429 10.133C-2.1998 18.4963 -1.87447 32.0641 6.49913 40.3777L34.2204 67.9017C34.6889 68.3649 35.3213 68.6247 35.9801 68.6247C36.639 68.6247 37.2714 68.3649 37.7399 67.9017L43.5062 62.1764C43.0167 61.5991 42.5577 60.9964 42.1313 60.3709L36.1526 66.3071Z" fill="white"/>
<path d="M71.0905 40.8404C70.5192 38.9033 69.2092 37.2685 67.4432 36.2886C63.8942 34.4779 59.553 36.0187 56.81 37.4181C56.6918 32.8274 60.8108 29.6435 60.8559 29.6091C61.0937 29.4294 61.2505 29.1627 61.2918 28.8675C61.3331 28.5722 61.2555 28.2727 61.0761 28.0346C60.8966 27.7966 60.63 27.6395 60.3348 27.5979C60.0397 27.5563 59.74 27.6336 59.5018 27.8128C59.2757 27.9823 54.4129 31.7103 54.5546 37.4246C51.8117 36.0234 47.4612 34.4752 43.9091 36.2886C42.1428 37.2684 40.8324 38.9034 40.2608 40.8407C38.71 45.3648 39.1298 49.7011 41.622 54.9008C43.2497 58.2978 45.9254 62.9731 50.3454 64.3489C52.098 64.8805 53.9802 64.793 55.6759 64.101C56.6489 64.4876 57.6855 64.6889 58.7324 64.6945C59.5033 64.6947 60.2698 64.5783 61.0059 64.3492C65.4264 62.9731 68.1021 58.2978 69.7298 54.9008C72.222 49.7011 72.6418 45.3648 71.0905 40.8404ZM67.6998 53.9296C66.2534 56.9472 63.9173 61.0875 60.336 62.2023C58.9426 62.6111 57.4471 62.4881 56.1392 61.857C55.9927 61.7948 55.8351 61.7627 55.6759 61.7627C55.5167 61.7627 55.3592 61.7947 55.2126 61.8569C53.9045 62.4878 52.4088 62.6108 51.0152 62.202C47.4344 61.0875 45.0984 56.9472 43.652 53.9295C41.4346 49.3036 41.0455 45.4916 42.3902 41.5695C42.7717 40.1839 43.6857 39.0054 44.9329 38.2914C48.35 36.5461 53.1694 39.1154 55.0829 40.301C55.261 40.4114 55.4664 40.4698 55.6759 40.4698C55.8854 40.4698 56.0908 40.4114 56.2688 40.301C58.1829 39.1154 63.0018 36.5463 66.4194 38.2914C67.6662 39.0055 68.5799 40.1838 68.961 41.5692C70.3063 45.4916 69.9172 49.3036 67.6998 53.9296Z" fill="white"/>
<path d="M64.9624 41.7707C64.8316 41.8393 64.7157 41.9331 64.6211 42.0465C64.5266 42.16 64.4553 42.291 64.4115 42.432C64.3676 42.5731 64.3519 42.7213 64.3653 42.8684C64.3788 43.0155 64.4211 43.1585 64.4898 43.2892C65.7938 45.7672 65.4108 48.1016 63.2094 51.0953C63.1219 51.2143 63.0588 51.3494 63.0236 51.4928C62.9884 51.6363 62.9818 51.7852 63.0042 51.9312C63.0266 52.0772 63.0776 52.2173 63.1542 52.3436C63.2308 52.4699 63.3316 52.5798 63.4507 52.6671C63.6921 52.8413 63.9922 52.9137 64.2865 52.8687C64.5808 52.8238 64.8456 52.665 65.024 52.4266C66.7292 50.1068 68.7366 46.527 66.4824 42.2428C66.3433 41.9788 66.1051 41.7808 65.8201 41.6923C65.5351 41.6038 65.2266 41.632 64.9624 41.7707Z" fill="white"/>
</g>
<defs>
<clipPath id="clip0_987_5252">
<rect width="72" height="72" fill="white"/>
</clipPath>
</defs>
</svg>
