<svg width="27" height="27" viewBox="0 0 27 27" fill="none" xmlns="http://www.w3.org/2000/svg">
<g clip-path="url(#clip0_1039_16584)">
<path d="M13.5 15.75C11.3288 15.75 9.5625 13.9838 9.5625 11.8125V6.75C9.5625 5.50913 10.5716 4.5 11.8125 4.5C13.0534 4.5 14.0625 5.50913 14.0625 6.75V11.8125C14.0625 12.123 13.8105 12.375 13.5 12.375C13.1895 12.375 12.9375 12.123 12.9375 11.8125V6.75C12.9375 6.13013 12.4335 5.625 11.8125 5.625C11.1915 5.625 10.6875 6.13013 10.6875 6.75V11.8125C10.6875 13.3628 11.9486 14.625 13.5 14.625C15.0514 14.625 16.3125 13.3628 16.3125 11.8125V5.0625C16.3125 4.752 16.5645 4.5 16.875 4.5C17.1855 4.5 17.4375 4.752 17.4375 5.0625V11.8125C17.4375 13.9838 15.6713 15.75 13.5 15.75Z" fill="#D62631"/>
<path d="M24.1875 27H2.8125C1.26113 27 0 25.7378 0 24.1875V17.4375C0 16.5071 0.757125 15.75 1.6875 15.75H4.788C5.5395 15.75 6.18862 16.2338 6.40462 16.9526L7.61062 20.9734C7.6815 21.2108 7.90312 21.375 8.1495 21.375H18.8505C19.0969 21.375 19.3185 21.2107 19.3894 20.9745L20.5954 16.9526C20.8114 16.2338 21.4605 15.75 22.212 15.75H25.3125C26.2429 15.75 27 16.5071 27 17.4375V24.1875C27 25.7378 25.7389 27 24.1875 27ZM1.6875 16.875C1.37812 16.875 1.125 17.127 1.125 17.4375V24.1875C1.125 25.1179 1.88213 25.875 2.8125 25.875H24.1875C25.1179 25.875 25.875 25.1179 25.875 24.1875V17.4375C25.875 17.127 25.6219 16.875 25.3125 16.875H22.212C21.9611 16.875 21.7451 17.0359 21.6731 17.2755L20.4671 21.2974C20.2545 22.0061 19.5896 22.5 18.8505 22.5H8.1495C7.398 22.5 6.74888 22.0163 6.53288 21.2974L5.32688 17.2766C5.25488 17.0359 5.03888 16.875 4.788 16.875H1.6875Z" fill="#D62631"/>
<path d="M23.0625 14.625C22.752 14.625 22.5 14.373 22.5 14.0625V2.8125C22.5 1.88213 21.7429 1.125 20.8125 1.125H6.1875C5.25713 1.125 4.5 1.88213 4.5 2.8125V14.0625C4.5 14.373 4.248 14.625 3.9375 14.625C3.627 14.625 3.375 14.373 3.375 14.0625V2.8125C3.375 1.26225 4.63613 0 6.1875 0H20.8125C22.3639 0 23.625 1.26225 23.625 2.8125V14.0625C23.625 14.373 23.373 14.625 23.0625 14.625Z" fill="#D62631"/>
</g>
<defs>
<clipPath id="clip0_1039_16584">
<rect width="27" height="27" fill="white"/>
</clipPath>
</defs>
</svg>
