<svg width="90" height="90" viewBox="0 0 90 90" fill="none" xmlns="http://www.w3.org/2000/svg">
<g clip-path="url(#clip0_987_5240)">
<path d="M77.2369 25.4391C76.7584 24.9499 76.1864 24.5622 75.5548 24.2988C74.9233 24.0355 74.2452 23.902 73.561 23.9062C72.0497 23.9025 70.5812 24.4083 69.3928 25.342L62.8425 30.4383C62.2053 29.0211 61.8755 27.4851 61.875 25.9313V21.0938H62.5782C63.8835 21.0938 65.1354 20.5752 66.0584 19.6522C66.9815 18.7291 67.5 17.4772 67.5 16.1719C67.5 14.8665 66.9815 13.6146 66.0584 12.6916C65.1354 11.7686 63.8835 11.25 62.5782 11.25H59.0625V8.4375C59.0603 6.20042 58.1706 4.05561 56.5888 2.47375C55.0069 0.891899 52.8621 0.00223373 50.625 0L39.375 0C37.138 0.00223373 34.9931 0.891899 33.4113 2.47375C31.8294 4.05561 30.9398 6.20042 30.9375 8.4375V11.25H27.4219C26.1165 11.25 24.8646 11.7686 23.9416 12.6916C23.0186 13.6146 22.5 14.8665 22.5 16.1719C22.5 17.4772 23.0186 18.7291 23.9416 19.6522C24.8646 20.5752 26.1165 21.0938 27.4219 21.0938H28.125V25.9313C28.1235 27.4827 27.7938 29.0163 27.1575 30.4312L20.6086 25.335C19.4187 24.404 17.95 23.9007 16.4391 23.9062C15.064 23.91 13.7463 24.4579 12.774 25.4302C11.8016 26.4025 11.2537 27.7202 11.25 29.0953C11.2474 29.8856 11.4269 30.666 11.7747 31.3757C12.1224 32.0854 12.6291 32.7054 13.2553 33.1875L21.4988 39.5958C19.3885 43.4008 18.2812 47.6802 18.2813 52.0312V82.9688C18.2835 84.8329 19.025 86.62 20.3432 87.9381C21.6613 89.2563 23.4484 89.9978 25.3125 90H64.6875C66.5516 89.9978 68.3388 89.2563 69.6569 87.9381C70.975 86.62 71.7165 84.8329 71.7188 82.9688V52.0312C71.7186 49.6532 71.3873 47.2867 70.7344 45C70.2051 43.1177 69.4551 41.3047 68.4999 39.5986L76.7405 33.1875C77.3677 32.7059 77.8753 32.0862 78.2238 31.3764C78.5723 30.6666 78.7524 29.886 78.75 29.0953C78.7552 28.4156 78.6239 27.7419 78.364 27.1138C78.1041 26.4858 77.7208 25.9163 77.2369 25.4391ZM33.75 8.4375C33.75 6.94566 34.3427 5.51492 35.3976 4.46002C36.4524 3.40513 37.8832 2.8125 39.375 2.8125H50.625C52.1169 2.8125 53.5476 3.40513 54.6025 4.46002C55.6574 5.51492 56.25 6.94566 56.25 8.4375V11.25H53.4375V9.84375C53.4375 8.72487 52.9931 7.65181 52.2019 6.86064C51.4107 6.06947 50.3377 5.625 49.2188 5.625H40.7813C39.6624 5.625 38.5893 6.06947 37.7982 6.86064C37.007 7.65181 36.5625 8.72487 36.5625 9.84375V11.25H33.75V8.4375ZM50.625 11.25H39.375V9.84375C39.375 9.47079 39.5232 9.1131 39.7869 8.84938C40.0506 8.58566 40.4083 8.4375 40.7813 8.4375H49.2188C49.5917 8.4375 49.9494 8.58566 50.2132 8.84938C50.4769 9.1131 50.625 9.47079 50.625 9.84375V11.25ZM25.3125 16.1719C25.311 15.8945 25.3646 15.6195 25.4701 15.3629C25.5755 15.1063 25.7309 14.8732 25.927 14.677C26.1232 14.4808 26.3563 14.3255 26.6129 14.22C26.8695 14.1146 27.1445 14.061 27.4219 14.0625H62.5782C63.1376 14.0625 63.6741 14.2847 64.0697 14.6803C64.4653 15.0759 64.6875 15.6124 64.6875 16.1719C64.6875 16.7313 64.4653 17.2678 64.0697 17.6634C63.6741 18.059 63.1376 18.2812 62.5782 18.2812H27.4219C26.8625 18.2812 26.3259 18.059 25.9304 17.6634C25.5348 17.2678 25.3125 16.7313 25.3125 16.1719ZM14.978 30.9642C14.7109 30.7579 14.491 30.4967 14.3332 30.1983C14.1755 29.9 14.0834 29.5712 14.0633 29.2343C14.0432 28.8974 14.0955 28.56 14.2166 28.245C14.3378 27.9299 14.525 27.6445 14.7657 27.4078C14.9839 27.1863 15.2446 27.011 15.5321 26.8926C15.8196 26.7742 16.1281 26.7151 16.4391 26.7188C17.3246 26.7175 18.1846 27.0148 18.8803 27.5625L25.7344 32.8922L22.9922 37.1911L14.978 30.9642ZM68.9063 52.0312V74.5312H64.6875C64.3146 74.5312 63.9569 74.6794 63.6932 74.9431C63.4294 75.2069 63.2813 75.5645 63.2813 75.9375C63.2813 76.3105 63.4294 76.6681 63.6932 76.9319C63.9569 77.1956 64.3146 77.3438 64.6875 77.3438H68.9063V82.9688C68.9063 84.0876 68.4618 85.1607 67.6706 85.9519C66.8795 86.743 65.8064 87.1875 64.6875 87.1875H25.3125C24.1936 87.1875 23.1206 86.743 22.3294 85.9519C21.5383 85.1607 21.0938 84.0876 21.0938 82.9688V77.3438H53.4375C53.8105 77.3438 54.1682 77.1956 54.4319 76.9319C54.6956 76.6681 54.8438 76.3105 54.8438 75.9375C54.8438 75.5645 54.6956 75.2069 54.4319 74.9431C54.1682 74.6794 53.8105 74.5312 53.4375 74.5312H21.0938V52.0312C21.0945 48.0364 22.1485 44.1123 24.1496 40.6547H30.9375C31.3105 40.6547 31.6682 40.5065 31.9319 40.2428C32.1956 39.9791 32.3438 39.6214 32.3438 39.2484C32.3438 38.8755 32.1956 38.5178 31.9319 38.2541C31.6682 37.9903 31.3105 37.8422 30.9375 37.8422H25.9088L28.7902 33.3281C30.1919 31.1156 30.9366 28.5505 30.9375 25.9313V21.0938H59.0625V25.9313C59.0638 28.5472 59.8069 31.1091 61.2057 33.3197L64.0871 37.8366H37.9688C37.5958 37.8366 37.2381 37.9847 36.9744 38.2484C36.7107 38.5122 36.5625 38.8699 36.5625 39.2428C36.5625 39.6158 36.7107 39.9735 36.9744 40.2372C37.2381 40.5009 37.5958 40.6491 37.9688 40.6491H65.8519C66.7933 42.2531 67.5258 43.971 68.0316 45.7608C68.6136 47.8 68.908 49.9106 68.9063 52.0312ZM75.0178 30.967L67.0121 37.1911L64.2657 32.8922L71.1211 27.5625C71.8165 27.0151 72.676 26.7178 73.561 26.7188C74.0562 26.7178 74.5393 26.8718 74.9426 27.1592C75.3458 27.4467 75.6491 27.8531 75.8097 28.3215C75.9703 28.79 75.9804 29.2969 75.8384 29.7714C75.6964 30.2458 75.4094 30.6639 75.0178 30.967Z" fill="white"/>
<path d="M27.2811 43.3689C26.9381 43.2231 26.5513 43.2194 26.2057 43.3587C25.86 43.4979 25.5837 43.7686 25.4375 44.1114C24.4217 46.5105 23.8958 49.0886 23.8906 51.6939V54.5064C23.8906 54.8793 24.0388 55.237 24.3025 55.5008C24.5662 55.7645 24.9239 55.9126 25.2969 55.9126C25.6698 55.9126 26.0275 55.7645 26.2912 55.5008C26.555 55.237 26.7031 54.8793 26.7031 54.5064V51.6939C26.7133 49.4675 27.1625 47.265 28.025 45.2125C28.1707 44.8693 28.1742 44.4824 28.0347 44.1367C27.8952 43.791 27.6241 43.5148 27.2811 43.3689Z" fill="white"/>
<path d="M54.8088 52.8202C54.7033 51.5692 54.2605 50.3703 53.5277 49.351C54.2928 48.8888 54.9381 48.2527 55.4112 47.4942C55.8842 46.7358 56.1717 45.8764 56.2502 44.986C56.2491 44.6222 56.1053 44.2734 55.8497 44.0146C55.594 43.7559 55.247 43.6078 54.8833 43.6022C54.5136 43.5916 54.1546 43.727 53.884 43.9791C53.6134 44.2313 53.4531 44.5799 53.4377 44.9494C53.4377 45.0113 53.3125 46.3458 51.348 47.3724C50.2754 46.7299 49.0489 46.3898 47.7986 46.388H42.2017C40.951 46.3897 39.724 46.7299 38.651 47.3724C36.7244 46.3655 36.5697 45.0619 36.5627 44.9536C36.5584 44.5807 36.4061 44.2247 36.1394 43.964C35.8726 43.7033 35.5132 43.5593 35.1403 43.5636C34.7673 43.5679 34.4113 43.7201 34.1506 43.9869C33.8899 44.2536 33.7459 44.613 33.7502 44.986C33.8299 45.8755 34.1181 46.7337 34.5913 47.4911C35.0646 48.2485 35.7096 48.8837 36.4741 49.3454C35.7406 50.3645 35.2974 51.5635 35.1916 52.8146L28.5372 59.469C28.3525 59.6535 28.2229 59.8859 28.1628 60.1399C28.1027 60.394 28.1145 60.6598 28.1969 60.9076C28.7762 62.344 29.7505 63.5869 31.0071 64.4923C32.2637 65.3978 33.7511 65.9286 35.2971 66.0235C35.6069 67.6246 36.4637 69.0682 37.7207 70.1072C38.9778 71.1462 40.5569 71.7159 42.1877 71.7188H47.8127C49.4461 71.7214 51.0291 71.1539 52.2889 70.1142C53.5486 69.0745 54.406 67.6277 54.7131 66.0235C56.2566 65.927 57.7413 65.396 58.9959 64.4917C60.2505 63.5875 61.2238 62.3469 61.8035 60.9132C61.8859 60.6654 61.8977 60.3996 61.8376 60.1456C61.7775 59.8915 61.6478 59.6591 61.4631 59.4746L54.8088 52.8202ZM50.3875 50.0949C51.0251 50.5926 51.5036 51.2656 51.7642 52.0313H47.8127C47.4397 52.0313 47.082 51.8831 46.8183 51.6194C46.5546 51.3557 46.4064 50.998 46.4064 50.6251V49.2047H47.7986C48.7371 49.2018 49.6492 49.5155 50.3875 50.0949ZM43.5939 49.2047V50.6251C43.5939 51.7439 44.0384 52.817 44.8296 53.6082C45.6207 54.3993 46.6938 54.8438 47.8127 54.8438H52.0314V59.1076C50.8228 58.1734 49.3402 57.6634 47.8127 57.6563H42.1877C40.6617 57.6643 39.1802 58.171 37.9689 59.0991V53.4376C37.9726 52.3161 38.4198 51.2416 39.2128 50.4486C40.0058 49.6556 41.0803 49.2085 42.2017 49.2047H43.5939ZM31.2442 60.7501L35.1564 56.8322V63.1533C34.3724 63.049 33.619 62.7812 32.9451 62.3672C32.2711 61.9532 31.6917 61.4023 31.2442 60.7501ZM52.0314 64.6876C52.0325 65.2419 51.9242 65.791 51.7126 66.3033C51.5009 66.8157 51.1902 67.2812 50.7983 67.6731C50.4063 68.0651 49.9408 68.3758 49.4284 68.5874C48.9161 68.7991 48.367 68.9074 47.8127 68.9063H42.1877C41.0688 68.9063 39.9957 68.4618 39.2046 67.6707C38.4134 66.8795 37.9689 65.8064 37.9689 64.6876C37.9689 63.5687 38.4134 62.4956 39.2046 61.7044C39.9957 60.9133 41.0688 60.4688 42.1877 60.4688H47.8127C48.9232 60.4724 49.9878 60.9123 50.777 61.6935C51.5661 62.4748 52.0167 63.535 52.0314 64.6454V64.6876ZM54.8439 63.1547V56.8266L58.7575 60.7501C58.3111 61.4037 57.7317 61.9557 57.0574 62.3701C56.383 62.7845 55.6287 63.0518 54.8439 63.1547Z" fill="white"/>
<path d="M42.1875 66.0938C42.9642 66.0938 43.5938 65.4642 43.5938 64.6875C43.5938 63.9108 42.9642 63.2812 42.1875 63.2812C41.4108 63.2812 40.7812 63.9108 40.7812 64.6875C40.7812 65.4642 41.4108 66.0938 42.1875 66.0938Z" fill="white"/>
<path d="M47.8125 66.0938C48.5892 66.0938 49.2188 65.4642 49.2188 64.6875C49.2188 63.9108 48.5892 63.2812 47.8125 63.2812C47.0358 63.2812 46.4062 63.9108 46.4062 64.6875C46.4062 65.4642 47.0358 66.0938 47.8125 66.0938Z" fill="white"/>
<path d="M59.0625 77.3438C59.8392 77.3438 60.4688 76.7142 60.4688 75.9375C60.4688 75.1608 59.8392 74.5312 59.0625 74.5312C58.2858 74.5312 57.6562 75.1608 57.6562 75.9375C57.6562 76.7142 58.2858 77.3438 59.0625 77.3438Z" fill="white"/>
<path d="M84 13L5 86" stroke="white" stroke-width="4" stroke-linecap="round"/>
<path d="M5 13L84 86" stroke="white" stroke-width="4" stroke-linecap="round"/>
</g>
<defs>
<clipPath id="clip0_987_5240">
<rect width="90" height="90" fill="white"/>
</clipPath>
</defs>
</svg>
