<svg width="76" height="90" viewBox="0 0 76 90" fill="none" xmlns="http://www.w3.org/2000/svg">
<path fill-rule="evenodd" clip-rule="evenodd" d="M59.957 72.4434H54.6836V69.1035H59.957V72.4434Z" fill="white"/>
<path fill-rule="evenodd" clip-rule="evenodd" d="M49.3662 77.7393H44.0928V74.3994H49.3662V77.7393Z" fill="white"/>
<path fill-rule="evenodd" clip-rule="evenodd" d="M26.4785 0.966797H56.3903V14.8975H26.4785V0.966797ZM29.8184 4.30664V11.5576H53.0505V4.30664H29.8184Z" fill="white"/>
<path fill-rule="evenodd" clip-rule="evenodd" d="M40.7024 57.0815C35.3333 54.369 29.3182 53.4621 23.4839 54.2954L23.0117 50.9891C29.4982 50.0627 36.2066 51.0684 42.2084 54.1004L41.4554 55.5909L42.2084 54.1004C48.4416 57.2492 55.5459 57.9649 62.2251 56.3495L63.0103 59.5957C55.5897 61.3905 47.6704 60.6014 40.7024 57.0815L40.7024 57.0815Z" fill="white"/>
<path fill-rule="evenodd" clip-rule="evenodd" d="M51.0421 33.9708V13.2227H47.7023V34.8452L70.6617 75.6904L70.6711 75.7063C73.168 79.9262 69.8386 85.6948 64.7993 85.6929H18.0703V89.0327H64.7979C64.7982 89.0327 64.7984 89.0327 64.7986 89.0327C72.3072 89.0352 77.4077 80.5619 73.5553 74.0222L51.0421 33.9708Z" fill="white"/>
<path fill-rule="evenodd" clip-rule="evenodd" d="M31.8266 33.9722V13.2227H35.1665V34.8466L22.8499 56.7574L19.9385 55.1208L31.8266 33.9722Z" fill="white"/>
<path fill-rule="evenodd" clip-rule="evenodd" d="M18.0702 57.2598C10.2185 57.2598 3.85352 63.6248 3.85352 71.4764C3.85352 79.3281 10.2185 85.6931 18.0702 85.6931C25.9218 85.6931 32.2868 79.3281 32.2868 71.4764C32.2868 63.6248 25.9218 57.2598 18.0702 57.2598ZM0.513672 71.4764C0.513672 61.7802 8.37399 53.9199 18.0702 53.9199C27.7664 53.9199 35.6267 61.7802 35.6267 71.4764C35.6267 81.1726 27.7664 89.0329 18.0702 89.0329C8.37399 89.0329 0.513672 81.1726 0.513672 71.4764Z" fill="white"/>
<path fill-rule="evenodd" clip-rule="evenodd" d="M8.01788 59.0625L30.4848 81.5294L28.1232 83.8911L5.65625 61.4241L8.01788 59.0625Z" fill="white"/>
<path fill-rule="evenodd" clip-rule="evenodd" d="M16.3269 19.2984L14.9544 20.2497L13.5819 19.2984L14.9544 17.3184L16.3269 19.2984ZM14.9544 23.2832C14.4951 24.0048 13.966 24.8608 13.4382 25.768C12.7134 27.0138 12.0078 28.3276 11.4884 29.5073C10.9388 30.7554 10.7051 31.6211 10.7051 32.0586C10.7051 34.4054 12.6074 36.3079 14.9542 36.3079C17.3011 36.3079 19.2036 34.4053 19.2036 32.0586C19.2036 31.6211 18.9698 30.7553 18.4203 29.5072C17.9009 28.3275 17.1953 27.0137 16.4705 25.768C15.9428 24.8608 15.4137 24.0048 14.9544 23.2832ZM14.9544 20.2497C13.5819 19.2984 13.5818 19.2986 13.5817 19.2988L13.5763 19.3066L13.5622 19.327C13.5501 19.3446 13.5325 19.3702 13.5099 19.4033C13.4645 19.4695 13.3989 19.5659 13.3158 19.6891C13.1496 19.9354 12.9134 20.2893 12.6304 20.7235C12.0654 21.5906 11.3096 22.7852 10.5514 24.0885C9.79632 25.3863 9.02213 26.8205 8.43171 28.1614C7.8714 29.4339 7.36523 30.8615 7.36523 32.0586C7.36523 36.2497 10.7627 39.6477 14.9542 39.6477C19.1457 39.6477 22.5434 36.2498 22.5434 32.0586C22.5434 30.8615 22.0373 29.4339 21.477 28.1613C20.8866 26.8204 20.1124 25.3863 19.3574 24.0885C18.5992 22.7852 17.8434 21.5906 17.2784 20.7235C16.9955 20.2893 16.7592 19.9354 16.5931 19.6891C16.51 19.5659 16.4443 19.4695 16.399 19.4033C16.3763 19.3702 16.3587 19.3446 16.3466 19.327L16.3325 19.3066L16.3271 19.2988C16.327 19.2986 16.3269 19.2984 14.9544 20.2497Z" fill="white"/>
<path fill-rule="evenodd" clip-rule="evenodd" d="M69.2692 19.2984L67.8968 20.2497L66.5243 19.2984L67.8968 17.3184L69.2692 19.2984ZM67.8968 23.2831C67.4375 24.0047 66.9084 24.8607 66.3806 25.7679C65.6558 27.0137 64.9502 28.3274 64.4308 29.5071C63.8812 30.7552 63.6475 31.621 63.6475 32.0585C63.6475 34.4054 65.5499 36.3078 67.8968 36.3078C70.2437 36.3078 72.1461 34.4053 72.1461 32.0585C72.1461 31.621 71.9124 30.7552 71.3628 29.5071C70.8434 28.3274 70.1378 27.0137 69.413 25.7679C68.8852 24.8607 68.3561 24.0047 67.8968 23.2831ZM74.4195 28.1613C74.9798 29.4338 75.486 30.8614 75.486 32.0585C75.486 36.2498 72.0883 39.6477 67.8968 39.6477C63.7053 39.6477 60.3076 36.25 60.3076 32.0585C60.3076 30.8614 60.8138 29.4338 61.3741 28.1613C61.9645 26.8203 62.7387 25.3862 63.4938 24.0884C64.252 22.7851 65.0078 21.5905 65.5728 20.7235C65.8557 20.2892 66.092 19.9353 66.2581 19.689C66.3413 19.5658 66.4069 19.4694 66.4523 19.4032C66.4749 19.3701 66.4925 19.3445 66.5046 19.3269L66.5187 19.3065L66.5241 19.2987C66.5242 19.2985 66.5243 19.2984 67.8968 20.2497C69.2692 19.2984 69.2694 19.2985 69.2695 19.2987L69.2749 19.3065L69.289 19.3269C69.3011 19.3445 69.3187 19.3701 69.3413 19.4032C69.3867 19.4694 69.4523 19.5658 69.5354 19.689C69.7016 19.9353 69.9378 20.2892 70.2208 20.7235C70.7858 21.5905 71.5416 22.7851 72.2998 24.0884C73.0549 25.3862 73.8291 26.8203 74.4195 28.1613Z" fill="white"/>
</svg>
