<svg width="20" height="19" viewBox="0 0 20 19" fill="none" xmlns="http://www.w3.org/2000/svg">
<path d="M8.55666 18.75H8.55504C7.96832 18.7495 7.41657 18.5207 7.00187 18.1052L1.16034 12.2553C0.305928 11.3994 0.305928 10.0065 1.16034 9.15058L9.03478 1.26102C9.8463 0.44792 10.926 0 12.075 0H17.0709C18.2824 0 19.2682 0.985546 19.2682 2.19726V7.17785C19.2682 8.32602 18.8208 9.40532 18.0084 10.2167L10.1095 18.1074C9.69455 18.5218 9.14306 18.75 8.55666 18.75ZM12.075 1.46484C11.3179 1.46484 10.6064 1.75998 10.0716 2.29579L2.19707 10.1853C1.91222 10.4708 1.91222 10.9349 2.19707 11.2203L8.03857 17.0702C8.1767 17.2086 8.36051 17.285 8.55619 17.2851H8.55677C8.6529 17.2854 8.74812 17.2666 8.83694 17.2299C8.92577 17.1931 9.00643 17.1391 9.07427 17.071L16.9732 9.18046C17.5086 8.6458 17.8034 7.93447 17.8034 7.17788V2.19726C17.8034 1.79341 17.4748 1.46484 17.0709 1.46484H12.075ZM13.958 7.43408C12.7465 7.43408 11.7608 6.44853 11.7608 5.23681C11.7608 4.0251 12.7465 3.03955 13.958 3.03955C15.1696 3.03955 16.1553 4.0251 16.1553 5.23681C16.1553 6.44853 15.1696 7.43408 13.958 7.43408ZM13.958 4.50439C13.5542 4.50439 13.2256 4.83296 13.2256 5.23681C13.2256 5.64067 13.5542 5.96924 13.958 5.96924C14.362 5.96924 14.6905 5.64067 14.6905 5.23681C14.6905 4.83296 14.362 4.50439 13.958 4.50439Z" fill="#D62631"/>
</svg>
