<svg width="63" height="63" viewBox="0 0 63 63" fill="none" xmlns="http://www.w3.org/2000/svg">
<rect width="63" height="63" rx="7" fill="#214475"/>
<path d="M15.4904 44.6245C15.0993 44.6245 14.7822 44.9416 14.7822 45.3326V46.6775C14.7822 47.0686 15.0993 47.3857 15.4904 47.3857C15.8814 47.3857 16.1985 47.0686 16.1985 46.6775V45.3326C16.1985 44.9416 15.8814 44.6245 15.4904 44.6245Z" fill="#214475"/>
<path d="M30.3536 44.6241C29.9626 44.6241 29.6455 44.9412 29.6455 45.3323V46.6772C29.6455 47.0682 29.9626 47.3853 30.3536 47.3853C30.7447 47.3853 31.0618 47.0682 31.0618 46.6772V45.3323C31.0618 44.9412 30.7447 44.6241 30.3536 44.6241Z" fill="#214475"/>
<path d="M25.222 46.0507C24.9275 45.7932 24.4803 45.8233 24.2228 46.1177C23.9065 46.4795 23.4324 46.6871 22.922 46.6871C22.4116 46.6871 21.9374 46.4795 21.6212 46.1177C21.3638 45.8232 20.9165 45.7932 20.622 46.0506C20.3275 46.308 20.2975 46.7553 20.5549 47.0498C21.1401 47.7194 22.0029 48.1034 22.922 48.1034C23.8411 48.1034 24.704 47.7194 25.2892 47.0499C25.5465 46.7554 25.5165 46.3081 25.222 46.0507Z" fill="#214475"/>
<path d="M25.1575 39.9289C24.1802 39.9396 23.2293 39.6119 22.4662 39.0012C21.7031 38.3906 21.1748 37.5347 20.971 36.5788C20.9592 36.527 20.9532 36.474 20.9531 36.4209V32.2255C20.9531 32.039 21.0272 31.8601 21.1591 31.7283C21.2909 31.5964 21.4698 31.5223 21.6562 31.5223C21.8427 31.5223 22.0216 31.5964 22.1534 31.7283C22.2853 31.8601 22.3594 32.039 22.3594 32.2255V36.3364C22.5096 36.9643 22.8686 37.5225 23.3776 37.9197C23.8866 38.3169 24.5153 38.5295 25.1609 38.5227H25.1753C25.8216 38.5302 26.4514 38.3183 26.9616 37.9216C27.4718 37.5248 27.8324 36.9667 27.9844 36.3385V32.2262C27.9844 32.0397 28.0585 31.8608 28.1903 31.729C28.3222 31.5971 28.501 31.523 28.6875 31.523C28.874 31.523 29.0528 31.5971 29.1847 31.729C29.3165 31.8608 29.3906 32.0397 29.3906 32.2262V36.4229C29.3905 36.4763 29.3845 36.5295 29.3728 36.5815C29.1667 37.5374 28.6367 38.3928 27.8724 39.0028C27.1081 39.6128 26.1565 39.94 25.1787 39.9289H25.1575Z" fill="white"/>
<path d="M25.1719 34.1144C20.5192 34.1144 16.7344 28.9131 16.7344 22.5197C16.733 22.0182 16.758 21.517 16.8093 21.018C16.8191 20.9263 16.8469 20.8373 16.8911 20.7562C16.9353 20.6752 16.9951 20.6037 17.0669 20.5457C17.1388 20.4877 17.2214 20.4445 17.3099 20.4185C17.3985 20.3924 17.4913 20.3841 17.5831 20.3939C17.6749 20.4037 17.7639 20.4315 17.8449 20.4757C17.926 20.5199 17.9975 20.5797 18.0555 20.6515C18.1134 20.7234 18.1567 20.806 18.1827 20.8945C18.2088 20.9831 18.2171 21.0759 18.2073 21.1677C18.1615 21.6169 18.1393 22.0682 18.1407 22.5197C18.1407 28.1379 21.2951 32.7082 25.1719 32.7082C29.0487 32.7082 32.2032 28.1379 32.2032 22.5197C32.2046 22.0701 32.1826 21.6206 32.1373 21.1733C32.1178 20.9879 32.1728 20.8024 32.2901 20.6575C32.4074 20.5127 32.5774 20.4203 32.7628 20.4008C32.8548 20.3901 32.948 20.3978 33.0369 20.4236C33.1258 20.4494 33.2087 20.4927 33.2807 20.551C33.3527 20.6092 33.4122 20.6813 33.456 20.7629C33.4997 20.8446 33.5266 20.9341 33.5353 21.0263C33.5864 21.5225 33.6112 22.021 33.6094 22.5197C33.6094 28.9131 29.8246 34.1144 25.1719 34.1144Z" fill="white"/>
<path d="M33.3024 21.8633C33.1199 21.8631 32.9379 21.8424 32.76 21.8015C30.2848 21.2358 27.7542 20.9483 25.2151 20.9446H25.1767C22.6214 20.9451 20.0742 21.2325 17.583 21.8015C17.2284 21.882 16.8602 21.8815 16.5057 21.8002C16.1513 21.7189 15.8197 21.5588 15.5355 21.3319C15.2514 21.1049 15.022 20.8169 14.8644 20.4892C14.7067 20.1614 14.6249 19.8024 14.625 19.4388C14.6249 19.3177 14.6561 19.1988 14.7156 19.0934C15.1012 18.404 15.5947 17.7808 16.1775 17.2477C17.0873 16.4196 19.0099 15.3196 25.1719 15.3196C31.3393 15.3196 33.2599 16.4203 34.1677 17.2484C34.7509 17.7815 35.2443 18.4052 35.6288 19.0954C35.6879 19.2005 35.7188 19.319 35.7188 19.4395C35.7185 20.0809 35.4641 20.6962 35.0112 21.1505C34.5584 21.6048 33.9439 21.8611 33.3024 21.8633ZM25.1767 19.5383H25.2165C27.8605 19.5422 30.4957 19.8416 33.0731 20.431C33.208 20.4614 33.3477 20.464 33.4837 20.4385C33.6196 20.413 33.7489 20.3601 33.8637 20.2828C33.9785 20.2056 34.0762 20.1058 34.151 19.9895C34.2259 19.8731 34.2761 19.7428 34.2988 19.6063C34.0051 19.1172 33.642 18.6734 33.2207 18.2887C32.0836 17.2511 29.3755 16.7258 25.1719 16.7258C20.971 16.7258 18.2628 17.2511 17.1237 18.2873C16.7028 18.6728 16.3396 19.1168 16.045 19.6056C16.0675 19.7421 16.1177 19.8725 16.1924 19.9889C16.2671 20.1053 16.3648 20.2052 16.4795 20.2825C16.5942 20.3597 16.7235 20.4128 16.8594 20.4383C16.9953 20.4639 17.135 20.4614 17.27 20.431C19.8638 19.8381 22.516 19.5387 25.1767 19.5383Z" fill="white"/>
<path d="M33.6094 18.3923C33.517 18.3924 33.4256 18.3742 33.3402 18.3389C33.2549 18.3036 33.1774 18.2518 33.1121 18.1865C33.0468 18.1212 32.995 18.0437 32.9597 17.9583C32.9243 17.873 32.9062 17.7815 32.9062 17.6892V14.7716C32.9062 14.276 32.7437 13.7941 32.4435 13.3997C32.1434 13.0053 31.7222 12.7202 31.2446 12.5881L26.449 11.28C25.9856 11.1556 25.5515 10.9404 25.1719 10.6469C24.7912 10.9414 24.3556 11.1569 23.8906 11.2807L19.0992 12.5881C18.6216 12.7204 18.2005 13.0055 17.9004 13.3998C17.6003 13.7942 17.4377 14.2761 17.4375 14.7716V17.6892C17.4375 17.8757 17.3634 18.0545 17.2316 18.1864C17.0997 18.3182 16.9209 18.3923 16.7344 18.3923C16.5479 18.3923 16.3691 18.3182 16.2372 18.1864C16.1053 18.0545 16.0312 17.8757 16.0312 17.6892V14.7716C16.0319 13.9677 16.2961 13.1862 16.7834 12.5467C17.2707 11.9073 17.9541 11.4452 18.7291 11.2313L23.5239 9.92322C23.9033 9.82241 24.2494 9.62321 24.5271 9.34575L24.6734 9.1988C24.808 9.07115 24.9864 9 25.1719 9C25.3574 9 25.5358 9.07115 25.6704 9.1988L25.818 9.34711C26.0947 9.62276 26.4386 9.82114 26.8157 9.92252L31.6147 11.2313C32.3897 11.4451 33.0732 11.9071 33.5605 12.5466C34.0478 13.1861 34.312 13.9677 34.3125 14.7716V17.6892C34.3126 17.7815 34.2944 17.873 34.2591 17.9583C34.2238 18.0437 34.172 18.1212 34.1067 18.1865C34.0414 18.2518 33.9638 18.3036 33.8785 18.3389C33.7932 18.3742 33.7017 18.3924 33.6094 18.3923Z" fill="white"/>
<path d="M9.70313 53.999C9.61077 53.9991 9.51932 53.9809 9.43399 53.9456C9.34866 53.9103 9.27112 53.8585 9.20582 53.7932C9.14052 53.7279 9.08873 53.6504 9.05342 53.565C9.0181 53.4797 8.99995 53.3883 9 53.2959V46.6581C9.02366 44.2666 9.82444 41.9476 11.2815 40.051C12.7386 38.1545 14.773 36.7832 17.0777 36.1442C18.085 35.8606 19.1266 35.7171 20.1731 35.7178H21.6562C21.8427 35.7178 22.0216 35.7919 22.1534 35.9237C22.2853 36.0556 22.3594 36.2344 22.3594 36.4209C22.3594 36.6074 22.2853 36.7862 22.1534 36.9181C22.0216 37.0499 21.8427 37.124 21.6562 37.124H20.1731C19.2557 37.1234 18.3426 37.2491 17.4595 37.4976C15.4493 38.0527 13.6741 39.2466 12.4018 40.899C11.1295 42.5514 10.4291 44.5728 10.4063 46.6581V53.2959C10.4063 53.3883 10.3882 53.4797 10.3528 53.565C10.3175 53.6504 10.2657 53.7279 10.2004 53.7932C10.1351 53.8585 10.0576 53.9103 9.97226 53.9456C9.88693 53.9809 9.79548 53.9991 9.70313 53.999Z" fill="white"/>
<path d="M35.4688 38.5316C35.3462 38.5316 35.2257 38.4994 35.1193 38.4383C33.6138 37.5739 31.9074 37.1207 30.1713 37.124H28.6875C28.501 37.124 28.3222 37.0499 28.1903 36.9181C28.0585 36.7862 27.9844 36.6074 27.9844 36.4209C27.9844 36.2344 28.0585 36.0556 28.1903 35.9237C28.3222 35.7919 28.501 35.7178 28.6875 35.7178H30.1713C31.2176 35.7171 32.259 35.8608 33.2661 36.1449C34.1582 36.3963 35.016 36.757 35.8197 37.2188C35.9541 37.296 36.0592 37.4154 36.1187 37.5585C36.1783 37.7016 36.1888 37.8603 36.1488 38.0101C36.1088 38.1598 36.0205 38.2921 35.8975 38.3864C35.7745 38.4808 35.6238 38.5318 35.4688 38.5316Z" fill="white"/>
<path d="M13.9219 53.9914C13.8295 53.9915 13.7381 53.9733 13.6527 53.938C13.5674 53.9027 13.4899 53.8509 13.4246 53.7856C13.3593 53.7203 13.3075 53.6428 13.2722 53.5575C13.2368 53.4721 13.2187 53.3807 13.2188 53.2883V48.2751C13.2183 47.9879 13.2748 47.7035 13.385 47.4383C13.4952 47.1731 13.6569 46.9324 13.8608 46.7302L15.0981 45.4928C15.171 45.4208 15.2289 45.3351 15.2683 45.2405C15.3078 45.146 15.3282 45.0446 15.3281 44.9421V37.2572C15.3281 37.0707 15.4022 36.8919 15.5341 36.76C15.6659 36.6282 15.8448 36.5541 16.0313 36.5541C16.2177 36.5541 16.3966 36.6282 16.5284 36.76C16.6603 36.8919 16.7344 37.0707 16.7344 37.2572V44.9421C16.7351 45.2295 16.6786 45.5142 16.5683 45.7795C16.4579 46.0449 16.2959 46.2856 16.0917 46.4878L14.855 47.7244C14.7822 47.7965 14.7244 47.8822 14.6849 47.9767C14.6454 48.0713 14.625 48.1727 14.625 48.2751V53.2883C14.6251 53.3807 14.6069 53.4721 14.5716 53.5575C14.5363 53.6428 14.4845 53.7203 14.4192 53.7856C14.3539 53.8509 14.2763 53.9027 14.191 53.938C14.1057 53.9733 14.0142 53.9915 13.9219 53.9914Z" fill="white"/>
<path d="M29.9393 46.2571H20.4045C19.9907 46.2566 19.5941 46.092 19.3015 45.7994C19.0089 45.5068 18.8443 45.1101 18.8438 44.6964V36.4395C18.8438 36.253 18.9178 36.0741 19.0497 35.9423C19.1816 35.8104 19.3604 35.7363 19.5469 35.7363C19.7334 35.7363 19.9122 35.8104 20.0441 35.9423C20.1759 36.0741 20.25 36.253 20.25 36.4395V44.6964C20.251 44.737 20.2676 44.7758 20.2964 44.8045C20.3251 44.8333 20.3638 44.8499 20.4045 44.8509H29.9393C29.9799 44.8499 30.0186 44.8333 30.0474 44.8045C30.0762 44.7758 30.0928 44.737 30.0938 44.6964V36.4429C30.0938 36.2564 30.1678 36.0776 30.2997 35.9457C30.4316 35.8138 30.6104 35.7398 30.7969 35.7398C30.9834 35.7398 31.1622 35.8138 31.2941 35.9457C31.4259 36.0776 31.5 36.2564 31.5 36.4429V44.6964C31.4995 45.1101 31.3348 45.5068 31.0423 45.7994C30.7497 46.092 30.353 46.2566 29.9393 46.2571Z" fill="white"/>
<path d="M23.7656 52.5948H16.7344C16.642 52.5949 16.5506 52.5768 16.4652 52.5414C16.3799 52.5061 16.3024 52.4543 16.2371 52.389C16.1718 52.3237 16.12 52.2462 16.0847 52.1609C16.0493 52.0755 16.0312 51.9841 16.0313 51.8917V48.3761C16.0312 48.2837 16.0493 48.1923 16.0847 48.107C16.12 48.0216 16.1718 47.9441 16.2371 47.8788C16.3024 47.8135 16.3799 47.7617 16.4652 47.7264C16.5506 47.6911 16.642 47.6729 16.7344 47.673H23.7656C23.858 47.6729 23.9494 47.6911 24.0348 47.7264C24.1201 47.7617 24.1976 47.8135 24.2629 47.8788C24.3282 47.9441 24.38 48.0216 24.4153 48.107C24.4507 48.1923 24.4688 48.2837 24.4688 48.3761V51.8917C24.4688 51.9841 24.4507 52.0755 24.4153 52.1609C24.38 52.2462 24.3282 52.3237 24.2629 52.389C24.1976 52.4543 24.1201 52.5061 24.0348 52.5414C23.9494 52.5768 23.858 52.5949 23.7656 52.5948ZM17.4375 51.1886H23.0625V49.0792H17.4375V51.1886Z" fill="white"/>
<path d="M53.2969 54.0011H33.6094C33.517 54.0012 33.4256 53.983 33.3402 53.9477C33.2549 53.9124 33.1774 53.8606 33.1121 53.7953C33.0468 53.73 32.995 53.6524 32.9597 53.5671C32.9243 53.4818 32.9062 53.3903 32.9063 53.298V37.8292C32.9062 37.7369 32.9243 37.6454 32.9597 37.5601C32.995 37.4748 33.0468 37.3972 33.1121 37.3319C33.1774 37.2666 33.2549 37.2148 33.3402 37.1795C33.4256 37.1442 33.517 37.126 33.6094 37.1261H53.2969C53.3892 37.126 53.4807 37.1442 53.566 37.1795C53.6513 37.2148 53.7289 37.2666 53.7942 37.3319C53.8595 37.3972 53.9113 37.4748 53.9466 37.5601C53.9819 37.6454 54.0001 37.7369 54 37.8292V53.298C54.0001 53.3903 53.9819 53.4818 53.9466 53.5671C53.9113 53.6524 53.8595 53.73 53.7942 53.7953C53.7289 53.8606 53.6513 53.9124 53.566 53.9477C53.4807 53.983 53.3892 54.0012 53.2969 54.0011ZM34.3125 52.5948H52.5938V38.5323H34.3125V52.5948Z" fill="white"/>
<path d="M47.6719 54.0011C47.4854 54.0011 47.3066 53.927 47.1747 53.7952C47.0428 53.6633 46.9688 53.4845 46.9688 53.298V37.8292C46.9688 37.6427 47.0428 37.4639 47.1747 37.332C47.3066 37.2002 47.4854 37.1261 47.6719 37.1261C47.8584 37.1261 48.0372 37.2002 48.1691 37.332C48.3009 37.4639 48.375 37.6427 48.375 37.8292V51.6006L49.9873 49.9883C50.0525 49.923 50.13 49.8712 50.2153 49.8359C50.3006 49.8005 50.3921 49.7823 50.4844 49.7823C50.5767 49.7823 50.6682 49.8005 50.7535 49.8359C50.8388 49.8712 50.9163 49.923 50.9815 49.9883L53.794 52.8008C53.8593 52.8661 53.9111 52.9436 53.9464 53.0289C53.9818 53.1142 54 53.2056 54 53.2979C54 53.3903 53.9818 53.4817 53.9464 53.567C53.9111 53.6523 53.8593 53.7298 53.794 53.7951C53.7288 53.8604 53.6513 53.9122 53.566 53.9475C53.4807 53.9828 53.3892 54.001 53.2969 54.001C53.2046 54.001 53.1132 53.9828 53.0279 53.9475C52.9426 53.9122 52.8651 53.8604 52.7998 53.7951L50.4844 51.4797L48.169 53.7951C48.1037 53.8604 48.0262 53.9122 47.9409 53.9476C47.8556 53.9829 47.7642 54.0011 47.6719 54.0011Z" fill="white"/>
<path d="M50.4844 51.1886C50.392 51.1887 50.3006 51.1705 50.2152 51.1352C50.1299 51.0999 50.0524 51.0481 49.9871 50.9828C49.9218 50.9175 49.87 50.8399 49.8347 50.7546C49.7993 50.6693 49.7812 50.5778 49.7813 50.4855V37.8292C49.7813 37.6427 49.8553 37.4639 49.9872 37.332C50.1191 37.2002 50.2979 37.1261 50.4844 37.1261C50.6709 37.1261 50.8497 37.2002 50.9816 37.332C51.1134 37.4639 51.1875 37.6427 51.1875 37.8292V50.4855C51.1876 50.5778 51.1694 50.6693 51.1341 50.7546C51.0988 50.8399 51.047 50.9175 50.9817 50.9828C50.9164 51.0481 50.8388 51.0999 50.7535 51.1352C50.6682 51.1705 50.5767 51.1887 50.4844 51.1886Z" fill="white"/>
<path d="M51.1875 31.7819C51.0951 31.782 51.0037 31.7638 50.9184 31.7285C50.833 31.6932 50.7555 31.6414 50.6902 31.5761C50.6249 31.5108 50.5731 31.4333 50.5378 31.3479C50.5025 31.2626 50.4843 31.1712 50.4844 31.0788V26.5792C50.4844 26.3927 50.5585 26.2139 50.6903 26.082C50.8222 25.9502 51.001 25.8761 51.1875 25.8761C51.374 25.8761 51.5528 25.9502 51.6847 26.082C51.8165 26.2139 51.8906 26.3927 51.8906 26.5792V31.0788C51.8907 31.1712 51.8725 31.2626 51.8372 31.3479C51.8019 31.4333 51.7501 31.5108 51.6848 31.5761C51.6195 31.6414 51.542 31.6932 51.4566 31.7285C51.3713 31.7638 51.2799 31.782 51.1875 31.7819Z" fill="white"/>
<path d="M51.1875 27.2823H37.125C36.9385 27.2823 36.7597 27.2083 36.6278 27.0764C36.496 26.9445 36.4219 26.7657 36.4219 26.5792C36.4219 26.3927 36.496 26.2139 36.6278 26.082C36.7597 25.9502 36.9385 25.8761 37.125 25.8761H51.1875C51.374 25.8761 51.5528 25.9502 51.6847 26.082C51.8165 26.2139 51.8906 26.3927 51.8906 26.5792C51.8906 26.7657 51.8165 26.9445 51.6847 27.0764C51.5528 27.2083 51.374 27.2823 51.1875 27.2823Z" fill="white"/>
<path d="M37.125 38.5323C37.0326 38.5323 36.9412 38.5142 36.8559 38.4789C36.7705 38.4436 36.693 38.3918 36.6277 38.3265C36.5624 38.2612 36.5106 38.1836 36.4753 38.0983C36.44 38.013 36.4218 37.9215 36.4219 37.8292V26.5792C36.422 26.3927 36.4961 26.2139 36.6279 26.0821L39.4404 23.2696C39.5726 23.1394 39.7509 23.0668 39.9364 23.0675C40.1219 23.0682 40.2996 23.1423 40.4308 23.2734C40.5619 23.4046 40.6359 23.5823 40.6367 23.7678C40.6374 23.9533 40.5648 24.1316 40.4346 24.2638L37.8281 26.8703V37.8292C37.8282 37.9215 37.81 38.013 37.7747 38.0983C37.7394 38.1836 37.6876 38.2612 37.6223 38.3265C37.557 38.3918 37.4795 38.4436 37.3941 38.4789C37.3088 38.5142 37.2174 38.5323 37.125 38.5323Z" fill="white"/>
<path d="M46.2656 29.4473C46.1733 29.4473 46.0818 29.4292 45.9965 29.3938C45.9112 29.3585 45.8336 29.3067 45.7683 29.2414C45.703 29.1761 45.6512 29.0986 45.6159 29.0133C45.5806 28.9279 45.5624 28.8365 45.5625 28.7441V26.5791C45.5624 26.4267 45.612 26.2784 45.7039 26.1569L47.8133 23.3436C47.8739 23.2634 47.951 23.197 48.0394 23.149C48.1278 23.101 48.2255 23.0726 48.3258 23.0656C48.4262 23.0585 48.5269 23.0731 48.6211 23.1083C48.7153 23.1435 48.8009 23.1984 48.8721 23.2695L51.6846 26.082C51.7505 26.1472 51.8029 26.2247 51.8387 26.3101C51.8745 26.3956 51.8931 26.4873 51.8934 26.58C51.8936 26.6726 51.8756 26.7644 51.8403 26.8501C51.8049 26.9357 51.753 27.0136 51.6875 27.0791C51.622 27.1446 51.5441 27.1965 51.4585 27.2319C51.3728 27.2672 51.281 27.2853 51.1883 27.285C51.0957 27.2848 51.004 27.2662 50.9185 27.2304C50.8331 27.1945 50.7555 27.1422 50.6904 27.0763L48.4512 24.8371L46.9688 26.8133V28.7441C46.9688 28.8365 46.9507 28.9279 46.9153 29.0133C46.88 29.0986 46.8282 29.1761 46.7629 29.2414C46.6976 29.3067 46.6201 29.3585 46.5348 29.3938C46.4494 29.4292 46.358 29.4473 46.2656 29.4473Z" fill="white"/>
<path d="M44.4446 30.0948H37.125C36.9385 30.0948 36.7597 30.0208 36.6278 29.8889C36.496 29.757 36.4219 29.5782 36.4219 29.3917C36.4219 29.2052 36.496 29.0264 36.6278 28.8945C36.7597 28.7627 36.9385 28.6886 37.125 28.6886H44.4446C44.6311 28.6886 44.81 28.7627 44.9418 28.8945C45.0737 29.0264 45.1478 29.2052 45.1478 29.3917C45.1478 29.5782 45.0737 29.757 44.9418 29.8889C44.81 30.0208 44.6311 30.0948 44.4446 30.0948Z" fill="white"/>
<path d="M48.375 24.4698H39.9375C39.8451 24.4699 39.7537 24.4518 39.6684 24.4164C39.583 24.3811 39.5055 24.3293 39.4402 24.264C39.3749 24.1987 39.3231 24.1212 39.2878 24.0359C39.2525 23.9505 39.2343 23.8591 39.2344 23.7667V20.9542C39.2343 20.8619 39.2525 20.7704 39.2878 20.6851C39.3231 20.5998 39.3749 20.5222 39.4402 20.4569C39.5055 20.3916 39.583 20.3398 39.6684 20.3045C39.7537 20.2692 39.8451 20.251 39.9375 20.2511H48.375C48.4674 20.251 48.5588 20.2692 48.6441 20.3045C48.7295 20.3398 48.807 20.3916 48.8723 20.4569C48.9376 20.5222 48.9894 20.5998 49.0247 20.6851C49.06 20.7704 49.0782 20.8619 49.0781 20.9542V23.7667C49.0782 23.8591 49.06 23.9505 49.0247 24.0359C48.9894 24.1212 48.9376 24.1987 48.8723 24.264C48.807 24.3293 48.7295 24.3811 48.6441 24.4164C48.5588 24.4518 48.4674 24.4699 48.375 24.4698ZM40.6406 23.0636H47.6719V21.6573H40.6406V23.0636Z" fill="white"/>
<path d="M42.0469 36.423H40.2328C39.777 36.4176 39.3419 36.2317 39.023 35.9061C38.704 35.5804 38.5272 35.1416 38.5313 34.6858V33.2376C38.5272 32.7819 38.7041 32.3431 39.023 32.0176C39.342 31.692 39.7771 31.5063 40.2328 31.5011H42.2509C42.4373 31.5011 42.6162 31.5752 42.748 31.707C42.8799 31.8389 42.954 32.0177 42.954 32.2042C42.954 32.3907 42.8799 32.5695 42.748 32.7014C42.6162 32.8333 42.4373 32.9073 42.2509 32.9073H40.2328C40.15 32.9124 40.0725 32.9499 40.0173 33.0117C39.962 33.0736 39.9333 33.1548 39.9376 33.2376V34.6858C39.9332 34.7687 39.9618 34.85 40.0171 34.912C40.0724 34.974 40.1499 35.0116 40.2328 35.0167H42.0469C42.2334 35.0167 42.4123 35.0908 42.5441 35.2227C42.676 35.3545 42.7501 35.5334 42.7501 35.7198C42.7501 35.9063 42.676 36.0852 42.5441 36.217C42.4123 36.3489 42.2334 36.423 42.0469 36.423Z" fill="white"/>
<path d="M51.8906 38.5316C51.7983 38.5316 51.7068 38.5135 51.6215 38.4781C51.5362 38.4428 51.4586 38.391 51.3933 38.3257C51.328 38.2604 51.2762 38.1829 51.2409 38.0976C51.2056 38.0122 51.1874 37.9208 51.1875 37.8284V33.6097C51.1877 33.0556 51.0787 32.507 50.8667 31.995C50.6547 31.4831 50.344 31.018 49.9522 30.6262C49.5604 30.2344 49.0953 29.9237 48.5834 29.7117C48.0715 29.4998 47.5228 29.3908 46.9688 29.3909C46.7764 29.3881 46.5843 29.403 46.3947 29.4356C45.3871 29.5774 44.4642 30.0773 43.7949 30.8438C43.1256 31.6103 42.7547 32.5921 42.75 33.6097V37.8284C42.75 38.0149 42.6759 38.1938 42.5441 38.3256C42.4122 38.4575 42.2334 38.5316 42.0469 38.5316C41.8604 38.5316 41.6816 38.4575 41.5497 38.3256C41.4178 38.1938 41.3438 38.0149 41.3438 37.8284V33.6097C41.3481 32.2585 41.8374 30.9538 42.7227 29.933C43.608 28.9122 44.8304 28.2432 46.1674 28.0479C46.4321 28.0027 46.7003 27.9815 46.9688 27.9847C47.7075 27.9846 48.439 28.13 49.1215 28.4126C49.804 28.6953 50.4241 29.1096 50.9465 29.6319C51.4688 30.1543 51.8832 30.7744 52.1658 31.4569C52.4485 32.1395 52.5939 32.871 52.5938 33.6097V37.8284C52.5938 37.9208 52.5757 38.0122 52.5403 38.0976C52.505 38.1829 52.4532 38.2604 52.3879 38.3257C52.3226 38.391 52.2451 38.4428 52.1598 38.4781C52.0744 38.5135 51.983 38.5316 51.8906 38.5316Z" fill="white"/>
<path d="M49.0775 35.016C48.9686 35.0159 48.8612 34.9905 48.7638 34.9418L44.545 32.8324C44.4622 32.7913 44.3883 32.7342 44.3276 32.6644C44.2669 32.5946 44.2205 32.5136 44.1911 32.4259C44.1618 32.3382 44.15 32.2455 44.1565 32.1533C44.163 32.061 44.1877 31.971 44.229 31.8882C44.2704 31.8055 44.3277 31.7318 44.3976 31.6712C44.4675 31.6106 44.5486 31.5645 44.6364 31.5353C44.7242 31.5062 44.8169 31.4946 44.9091 31.5014C45.0013 31.5081 45.0914 31.5329 45.174 31.5745L49.3927 33.6839C49.5345 33.7547 49.6482 33.8714 49.7153 34.0149C49.7825 34.1585 49.7991 34.3205 49.7627 34.4747C49.7262 34.629 49.6386 34.7663 49.5143 34.8646C49.3899 34.9628 49.236 35.0162 49.0775 35.016Z" fill="white"/>
<path d="M47.6779 38.5316C47.5686 38.5316 47.4609 38.5059 47.3634 38.4567L44.544 37.0436C44.3775 36.9599 44.2511 36.8136 44.1924 36.6367C44.1338 36.4599 44.1478 36.2669 44.2314 36.1004C44.3149 35.9338 44.4612 35.8073 44.638 35.7485C44.8148 35.6897 45.0078 35.7036 45.1744 35.787L47.9937 37.2002C48.1352 37.2712 48.2486 37.3879 48.3155 37.5314C48.3824 37.6749 48.399 37.8367 48.3624 37.9908C48.3259 38.1448 48.2384 38.282 48.1142 38.3802C47.9899 38.4783 47.8362 38.5317 47.6779 38.5316Z" fill="white"/>
</svg>
