<svg width="209" height="38" viewBox="0 0 209 38" fill="none" xmlns="http://www.w3.org/2000/svg">
<g clip-path="url(#clip0_829_186)">
<path d="M149.019 38.1564H141.314V36.8479C141.314 32.3225 141.339 27.7971 141.314 23.2718C141.305 22.2022 141.077 21.1451 140.643 20.1606C140.21 19.1762 139.58 18.2838 138.79 17.5344C137.999 16.785 137.063 16.1934 136.036 15.7933C135.008 15.3931 133.909 15.1924 132.801 15.2024C128.666 15.2657 124.968 18.7944 124.929 22.7963C124.887 27.4307 124.916 32.0673 124.916 36.7039V38.1084H117.071C117.056 37.7856 117.022 37.4345 117.022 37.0834C117.022 32.3378 117.001 27.5921 117.022 22.8465C117.024 19.24 118.316 15.745 120.681 12.953C123.046 10.161 126.338 8.24373 130 7.52565C135.314 6.47664 139.871 8.07742 143.852 11.4513C144.252 11.7893 144.642 12.1361 145.135 12.5635L146.059 11.7828C148.73 9.53426 151.737 7.85715 155.284 7.42097C161.599 6.64457 166.651 8.98904 170.573 13.6649C172.811 16.3166 174.022 19.6379 173.998 23.058C174.028 27.7317 173.998 32.4032 174.023 37.0768C174.023 37.91 173.824 38.2436 172.875 38.2175C170.469 38.152 168.061 38.1957 165.517 38.1957C165.494 37.7595 165.46 37.3669 165.46 36.9809C165.46 32.4184 165.46 27.856 165.46 23.2936C165.449 19.2022 162.27 15.6342 158.3 15.2242C156.21 15.022 154.117 15.575 152.425 16.7762C150.733 17.9775 149.563 19.7417 149.141 21.7277C149.042 22.3077 149.002 22.8958 149.023 23.4833C149.014 27.8974 149.014 32.3123 149.023 36.7279L149.019 38.1564Z" fill="white"/>
<path d="M81.5783 26.6905C83.7224 31.0959 89.4996 31.7982 94.8385 28.3894L100.053 34.0074C99.2104 34.6835 98.4987 35.4032 97.6514 35.9157C89.8227 40.6657 76.6393 38.1838 73.0967 27.5214C70.0601 18.3616 76.9376 8.50398 86.8245 7.31975C94.8114 6.36233 103.331 11.5703 104.841 20.4226C105.148 22.2197 105.021 24.0865 105.105 25.9206C105.146 26.793 104.513 26.6905 103.941 26.6905H81.5738H81.5783ZM95.8123 18.6648C93.6094 16.1916 91.149 14.9573 88.0356 15.2517C85.5277 15.4981 83.3564 16.4337 81.7387 18.6648H95.8123Z" fill="white"/>
<path d="M20.5862 26.6432C22.0639 29.1883 24.2532 30.1937 26.9125 30.5928C29.6237 31.0028 31.8243 29.9494 33.93 28.2963C35.5703 30.0716 37.1835 31.7858 38.7244 33.5436C38.8667 33.7071 38.6679 34.3549 38.4284 34.586C36.6209 36.3308 34.3616 37.3231 31.8763 37.7658C25.4552 38.9173 19.7209 37.5979 15.3152 32.7693C7.3735 24.0676 12.5068 9.98767 24.4136 7.56469C34.6621 5.48193 44.0949 12.7465 44.2237 22.831C44.2237 23.7033 44.1695 24.5997 44.2418 25.4786C44.3141 26.3902 43.9842 26.6715 43.0217 26.665C36.0629 26.6301 29.1018 26.6454 22.1429 26.6476L20.5862 26.6432ZM20.9274 18.5433H34.7095C31.6549 14.0899 24.1357 14.0965 20.9274 18.5433Z" fill="white"/>
<path d="M209.204 38.1303H200.783C200.74 37.62 200.702 37.1598 200.664 36.728C198.856 37.1642 197.116 37.7138 195.332 38.0147C186.502 39.5065 178.221 34.0629 176.762 25.54C175.058 15.5973 183.167 7.14845 192.67 7.20734C201.576 7.26404 209.199 14.5853 209.274 23.1519C209.315 27.7885 209.274 32.4251 209.274 37.0595C209.279 37.3823 209.233 37.705 209.204 38.1303ZM184.966 23.0821C184.966 27.3894 188.323 30.7785 192.55 30.7458C196.976 30.7131 200.684 27.2345 200.716 23.0996C200.743 18.897 197.037 15.3835 192.566 15.3683C188.221 15.3595 184.963 18.668 184.966 23.0887V23.0821Z" fill="white"/>
<path d="M61.9284 30.7836V29.403C61.9284 22.4503 61.9443 15.4976 61.9081 8.54274C61.9081 7.57006 62.134 7.16659 63.2389 7.21021C65.2994 7.29308 67.369 7.25601 69.434 7.22548C70.1706 7.21239 70.4462 7.45883 70.444 8.17853C70.4282 17.8923 70.444 27.6038 70.4056 37.3175C70.4056 37.6163 69.9876 38.1768 69.7662 38.1768C66.1512 38.1528 62.4707 38.36 58.8919 37.9173C51.8201 37.0449 46.1558 30.6811 46.0519 23.8505C45.9728 18.6643 46.0384 13.4759 45.9932 8.28757C45.9932 7.46319 46.2507 7.19712 47.1048 7.21893C49.1676 7.26909 51.2349 7.27782 53.2999 7.21893C54.2511 7.19058 54.4296 7.55479 54.4296 8.37917C54.398 13.308 54.398 18.2376 54.4296 23.1679C54.459 27.1196 57.1838 30.1467 61.1716 30.7814C61.4236 30.7973 61.6764 30.798 61.9284 30.7836Z" fill="white"/>
<path d="M0.0226966 18.9876C0.0226966 13.0687 0.0452957 7.14753 0.000108479 1.22856C0.000108479 0.242798 0.302865 -0.0319952 1.3015 0.00289916C3.3643 0.072688 5.43162 0.072688 7.49216 0.00289916C8.4908 -0.0319952 8.80485 0.240617 8.79582 1.22856C8.74611 6.19229 8.7732 11.156 8.7732 16.1198C8.7732 22.9591 8.74837 29.7984 8.79808 36.6377C8.79808 37.715 8.46821 38.0182 7.37919 37.9767C5.34577 37.8982 3.32589 37.9048 1.3015 37.9767C0.302865 38.0116 -0.00666961 37.7368 0.000108479 36.7511C0.0452957 30.8212 0.0226966 24.9088 0.0226966 18.9876Z" fill="white"/>
<path d="M115.2 37.8735H106.867V0.0217729H109.872C111.286 0.0217729 112.705 0.074115 114.115 0.00432616C115.033 -0.0414727 115.299 0.272576 115.29 1.12749C115.254 4.54714 115.277 7.96679 115.277 11.3777C115.277 19.6869 115.277 27.9969 115.277 36.3076C115.261 36.8201 115.216 37.3239 115.2 37.8735Z" fill="white"/>
</g>
<defs>
<clipPath id="clip0_829_186">
<rect width="209" height="38" fill="white"/>
</clipPath>
</defs>
</svg>
