<svg width="20" height="20" viewBox="0 0 103 79" fill="none" xmlns="http://www.w3.org/2000/svg">
<path d="M48.0443 8.68216C44.4739 -1.64938 25.2891 -1.16167 14.0536 1.99704C8.65688 3.51639 5.13656 5.78629 5.13656 5.78629C5.13656 5.78629 3.60051 6.58546 3.24498 9.68644C2.8302 13.2691 4.91626 12.6963 4.91626 12.6963C4.91626 12.6963 6.62096 12.3103 6.58754 14.7003C6.48878 21.8807 5.35839 30.1353 4.91626 33.9245C3.89222 42.6243 0.192618 67.4139 0.125767 67.8545C0.0938603 67.8545 -0.76153 73.4017 2.46708 74.4348C8.03851 76.2185 15.3952 71.425 15.3952 71.425C15.3952 71.425 14.1675 70.4222 13.9457 66.0769C13.8333 63.8997 13.9731 59.0484 14.1675 56.7162C14.8437 48.5482 18.0647 24.1795 18.0647 24.1795C18.0647 24.1795 18.1953 22.1557 18.7347 20.612C19.7344 17.7496 21.9663 16.522 22.9691 12.7008C23.1393 12.0536 23.08 9.80343 23.08 9.80343C23.08 9.80343 22.2884 10.0359 22.3598 8.53022C22.4145 7.34817 23.861 7.57456 23.861 7.57456C24.9735 7.48831 26.091 7.48831 27.2035 7.57456C30.698 7.79942 31.8725 8.03036 31.8725 8.03036C31.8725 8.03036 32.6838 8.02277 32.8919 8.69584C33.3918 10.3367 32.3237 10.5054 32.3237 10.5054C32.3237 10.5054 31.8071 14.5787 33.1122 16.5827C36.1509 21.2517 37.4773 26.9568 34.744 31.9464C29.6253 41.2888 18.3989 40.7737 18.3989 40.7737C18.3123 40.95 18.4779 42.8735 19.037 44.4414C19.3592 45.287 19.8646 46.0508 20.5169 46.6779C21.5713 47.7035 25.9789 46.567 25.9789 46.567C25.9789 46.567 31.0186 45.6554 35.4505 42.6653C43.9907 36.9176 53.28 23.8331 48.0443 8.68216ZM28.4798 3.51639C28.3767 3.92405 28.1795 4.30186 27.9039 4.61943C27.6532 4.94153 27.3691 5.26212 27.2825 5.64803C27.1731 6.12966 27.4132 6.67054 27.8735 6.9972C26.9619 6.75866 26.3375 5.86986 26.1293 5.07676C25.9212 4.28366 25.9774 3.79747 26.2418 3.04387C26.3758 2.71321 26.6193 2.4386 26.9315 2.26597C27.1489 2.18575 27.3838 2.16501 27.6119 2.20588C27.84 2.24674 28.053 2.34773 28.2291 2.49843C28.5724 2.81901 28.5618 3.11832 28.4798 3.51639ZM36.2284 11.4033C35.914 11.4012 35.6073 11.306 35.3469 11.1296C35.0866 10.9533 34.8844 10.7038 34.7658 10.4126C34.6472 10.1213 34.6176 9.80154 34.6806 9.4935C34.7437 9.18547 34.8967 8.90303 35.1201 8.68187C35.3436 8.46071 35.6277 8.31074 35.9363 8.2509C36.245 8.19107 36.5645 8.22406 36.8545 8.34569C37.1444 8.46733 37.3918 8.67216 37.5654 8.93432C37.739 9.19648 37.831 9.5042 37.8298 9.81862C37.8306 10.0286 37.7899 10.2367 37.7099 10.4309C37.63 10.6251 37.5124 10.8015 37.364 10.9501C37.2156 11.0986 37.0392 11.2164 36.8451 11.2965C36.651 11.3766 36.443 11.4176 36.233 11.417L36.2284 11.4033ZM37.7554 6.0856C37.2737 6.74195 36.6842 6.81185 35.8699 6.81337C35.0555 6.81489 34.2639 6.5414 33.5133 6.22082C32.7917 5.91695 32.0624 5.54927 31.2799 5.52952C30.7921 5.52359 30.3117 5.64966 29.8897 5.89439C29.4676 6.13911 29.1196 6.49339 28.8824 6.91972C29.0024 5.35024 30.4974 4.05879 31.9591 3.47385C33.4207 2.8889 34.39 2.82357 35.9519 3.01804C36.4913 3.08489 37.377 3.47385 37.7159 3.9023C37.9519 4.21593 38.0831 4.59592 38.0911 4.98836C38.099 5.38079 37.9831 5.76575 37.7599 6.08864L37.7554 6.0856Z" fill="white"/>
<path d="M26.5004 51.6146C23.3538 50.3611 17.9921 52.9364 16.0351 57.9199C14.0782 62.9033 15.1965 68.1633 19.0191 69.6659C22.8418 71.1686 27.4728 68.2332 29.4312 63.2482C31.3896 58.2632 30.317 53.1339 26.5004 51.6146ZM25.604 60.8279C25.4049 64.6263 24.1241 67.513 22.3404 67.4143C20.5567 67.3155 19.4962 64.0717 19.6937 60.2733C19.8912 56.475 21.2298 53.9255 23.015 54.0258C24.8002 54.1261 25.8015 57.025 25.604 60.8279Z" fill="white"/>
<path d="M89.2103 43.6756C86.5089 43.6756 82.513 50.3714 82.513 50.3714C82.513 50.3714 84.0886 45.7556 83.019 44.1238C82.1469 42.7914 78.1236 44.5188 78.1236 44.5188C78.1236 44.5188 79.0231 45.4183 78.5171 48.4585C78.2558 50.0204 77.2227 54.9294 77.2227 54.9294C77.2227 54.9294 76.5405 55.5143 75.91 56.1114C74.9816 56.9881 73.95 57.9909 73.6203 58.0258C72.8697 58.1003 73.0566 55.7741 73.0566 55.7741C73.0566 55.7741 73.6735 51.0642 74.0715 49.4157C74.3496 48.2564 75.758 44.5751 75.758 44.5751C75.758 44.5751 75.0287 43.899 72.6631 43.899C72.3163 43.9028 71.9758 43.9921 71.6718 44.1591C71.3678 44.3261 71.1097 44.5655 70.9204 44.8561C70.9204 44.8561 66.3624 42.2307 62.1401 46.9376C58.1458 51.3848 58.1458 56.3363 58.1458 56.3363C58.1458 56.3363 56.239 59.4601 54.9901 59.5452C54.1453 59.5999 54.3581 57.2342 54.4249 56.4503C54.7075 53.1852 57.2965 45.3074 53.0195 45.5307C49.5068 45.7161 45.4775 53.1275 45.4775 53.1275C45.4775 53.1275 46.4909 46.766 43.5646 46.8784C39.7739 47.0303 35.9208 54.627 35.7993 54.8641C35.8266 54.665 36.4435 50.0599 35.1779 48.8475C34.9135 48.5952 34.4835 48.5436 33.9912 48.6211C32.5129 48.8429 30.4512 50.1404 30.4512 50.1404C30.4512 50.1404 31.5375 51.4896 31.577 54.5891C31.6347 59.1471 30.7323 66.6329 30.7323 66.6329C30.7323 66.6329 33.8955 66.9717 34.7859 65.5055C35.4635 64.3888 35.8661 60.7576 36.9236 57.605C37.94 54.5754 38.7088 53.1274 39.6584 51.9834C39.9319 51.6552 40.5609 51.0064 40.9726 51.1948C41.5226 51.4471 41.4284 52.8828 41.4284 52.8828L40.7523 63.8783C40.7523 63.8783 41.1276 64.5514 42.103 64.5149C44.2301 64.4314 44.9898 63.4256 44.9898 63.4256C44.9898 63.4256 44.6859 59.9311 46.9421 54.8717C49.3989 49.3443 50.505 49.5053 50.7876 50.069C50.9699 50.4382 50.8803 51.1006 50.8803 51.1006L50.2619 59.1532C50.2619 59.1532 49.6846 63.0807 52.9101 62.9439C56.3621 62.792 58.2369 58.2552 58.2369 58.2552C58.2369 58.2552 58.085 61.8925 61.8834 62.0065C65.3703 62.1098 68.6733 55.7772 68.6733 55.7772C68.6733 55.7772 68.4059 60.2091 70.8065 61.2134C72.8074 62.0566 76.0968 58.4193 76.0968 58.4193L75.4602 60.8396C75.4602 60.8396 77.4794 60.905 78.195 60.8761C80.1094 60.8017 80.4042 59.021 80.6716 58.1413C81.2003 56.3925 82.9065 53.1031 83.8227 51.5382C86.6745 46.6611 88.5874 49.6254 88.5874 49.6254C88.5874 49.6254 93.3201 43.6756 89.2103 43.6756ZM68.3679 52.6215C67.7754 53.8491 66.7316 55.683 66.0798 56.8255C65.7516 57.4014 64.6167 59.2565 63.4149 58.5135C62.6552 58.0395 62.7767 55.4566 62.7767 55.3989C62.7767 55.3411 63.3024 49.6801 65.1788 47.7824C68.2555 44.6677 70.1684 47.9343 70.1684 47.9343C70.1684 47.9343 68.8891 51.5489 68.3679 52.6215Z" fill="white"/>
<path d="M101.957 58.2622C101.884 58.2536 101.811 58.2668 101.746 58.3001C101.68 58.3333 101.627 58.3851 101.591 58.4489C101.555 58.5127 101.54 58.5856 101.545 58.6585C101.551 58.7313 101.579 58.8008 101.624 58.858C101.669 58.9153 101.731 58.9579 101.8 58.9803C101.87 59.0027 101.944 59.0039 102.015 58.9839C102.085 58.9639 102.148 58.9234 102.195 58.8677C102.242 58.812 102.272 58.7435 102.28 58.6709C102.286 58.6228 102.282 58.574 102.269 58.5274C102.256 58.4808 102.233 58.4373 102.203 58.3993C102.173 58.3613 102.136 58.3296 102.094 58.3061C102.051 58.2826 102.005 58.2677 101.957 58.2622ZM84.905 58.838C84.8325 58.8298 84.7591 58.8432 84.6942 58.8767C84.6293 58.9101 84.5758 58.9621 84.5404 59.0259C84.505 59.0898 84.4894 59.1627 84.4954 59.2355C84.5015 59.3082 84.529 59.3776 84.5744 59.4347C84.6199 59.4919 84.6812 59.5342 84.7508 59.5565C84.8203 59.5787 84.8949 59.5799 84.9651 59.5598C85.0353 59.5396 85.0979 59.4992 85.1451 59.4434C85.1923 59.3877 85.2219 59.3193 85.2302 59.2467C85.2361 59.1985 85.2323 59.1495 85.2191 59.1027C85.2059 59.056 85.1835 59.0123 85.1533 58.9742C85.123 58.9362 85.0855 58.9045 85.0428 58.8812C85.0002 58.8578 84.9534 58.8431 84.905 58.838ZM86.3302 56.7109L86.1676 57.4706H87.4712L86.6188 61.465H87.693L88.9085 55.7051H88.1169C87.8009 56.3676 87.2053 56.7028 86.3302 56.7109ZM99.5226 55.6899C98.4479 55.6899 97.8235 56.2582 97.6493 57.3946H98.6551L98.7402 56.9875C98.806 56.6836 99.0086 56.5317 99.3479 56.5317C99.6199 56.5317 99.7551 56.6623 99.7551 56.9236C99.7532 57.0085 99.7431 57.093 99.7247 57.1759C99.6427 57.5456 99.4811 57.7811 99.24 57.8824C99.1307 57.9278 99.0135 57.9516 98.8951 57.9522L98.5487 57.9674L98.3725 58.8122C98.885 58.8122 99.1889 58.8892 99.2841 59.0431C99.3449 59.1444 99.3418 59.347 99.275 59.6509C99.2337 59.9076 99.1591 60.1579 99.0531 60.3954C98.9996 60.5032 98.9161 60.5933 98.8126 60.6547C98.7091 60.7162 98.59 60.7464 98.4697 60.7418C98.1659 60.7418 98.0139 60.5898 98.0139 60.2723C98.0139 60.2419 98.0504 60.0034 98.1218 59.5582H97.119L97.0507 59.897C97.0035 60.0906 96.9776 60.2888 96.9732 60.488C96.9732 61.2204 97.4082 61.5865 98.2783 61.5865C99.3844 61.5865 100.071 60.9823 100.337 59.7739C100.375 59.6023 100.396 59.4271 100.398 59.2513C100.398 58.7195 100.188 58.4278 99.7688 58.3761V58.3701C99.9061 58.3462 100.037 58.2953 100.155 58.2201C100.272 58.145 100.373 58.0472 100.452 57.9325C100.688 57.5791 100.818 57.166 100.828 56.7413C100.828 56.0404 100.393 55.6899 99.5226 55.6899ZM91.9669 55.6899C91.3663 55.6899 90.9054 55.8743 90.5843 56.243C90.2926 56.5762 90.0647 57.1212 89.9006 57.8778C89.8487 58.1232 89.8202 58.373 89.8155 58.6238C89.8155 59.3328 90.1538 59.6873 90.8305 59.6873C91.0269 59.6913 91.2215 59.6492 91.3987 59.5643C91.5233 59.4872 91.6412 59.3998 91.7512 59.3029L91.6737 59.6721C91.6358 59.8991 91.5715 60.1209 91.4823 60.3331C91.4334 60.4528 91.3508 60.5557 91.2446 60.6294C91.1383 60.703 91.0129 60.7442 90.8836 60.7478C90.6223 60.7478 90.4916 60.6582 90.4916 60.4637C90.4937 60.4064 90.5014 60.3494 90.5144 60.2936H89.5162C89.4832 60.4217 89.4653 60.5532 89.463 60.6855C89.463 61.2933 89.8621 61.5972 90.6603 61.5972C91.2498 61.5972 91.7005 61.4381 92.0125 61.1201C92.3559 60.7727 92.6223 60.1558 92.8117 59.2695L93.1034 57.8869C93.1818 57.5648 93.2256 57.2353 93.2341 56.9039C93.2341 56.0946 92.8117 55.6899 91.9669 55.6899ZM92.0505 57.8018C92.0032 58.0415 91.9314 58.2757 91.8363 58.5007C91.7887 58.6029 91.7127 58.6891 91.6172 58.7489C91.5218 58.8088 91.4111 58.8397 91.2984 58.838C91.0325 58.838 90.8988 58.6982 90.8988 58.4156C90.9158 58.2107 90.9493 58.0075 90.9991 57.8079C91.0513 57.5024 91.128 57.2016 91.2285 56.9085C91.2729 56.8017 91.3474 56.7101 91.4429 56.6448C91.5384 56.5795 91.6508 56.5434 91.7664 56.5408C92.0475 56.5256 92.1888 56.6654 92.1888 56.9632C92.1663 57.2461 92.12 57.5266 92.0505 57.8018ZM96.9352 56.6502L97.119 55.8054H94.3462L93.5562 58.8259H94.5088C94.5524 58.7 94.6376 58.5928 94.7504 58.522C94.8648 58.4447 94.9997 58.4034 95.1378 58.4035C95.4508 58.4035 95.6058 58.5721 95.6058 58.911C95.5991 59.1234 95.5685 59.3344 95.5146 59.54C95.4521 59.8228 95.3673 60.1002 95.2609 60.3695C95.2097 60.4895 95.1223 60.5903 95.0108 60.6579C94.8993 60.7255 94.7694 60.7564 94.6395 60.7463C94.372 60.7311 94.2399 60.5762 94.2399 60.2905C94.2595 60.0819 94.2899 59.8745 94.331 59.6691H93.3252C93.2573 59.951 93.2186 60.2392 93.2098 60.5291C93.2098 60.9028 93.3151 61.1743 93.5258 61.3434C93.7365 61.5126 94.0819 61.5972 94.562 61.5972C95.1454 61.5972 95.6012 61.4204 95.9294 61.0669C96.2262 60.7448 96.446 60.2384 96.5888 59.5476C96.6543 59.2705 96.6904 58.9874 96.6966 58.7028C96.6966 57.9401 96.3229 57.5587 95.5754 57.5587C95.2432 57.5565 94.9208 57.6704 94.6638 57.8808L94.9935 56.6532L96.9352 56.6502Z" fill="white"/>
<path d="M15.3311 77.5843C16.1773 77.326 18.3211 76.7243 14.9148 77.6921C16.4706 77.25 18.0355 76.8367 19.6019 76.4356C20.6473 76.1682 18.0826 76.8109 19.8648 76.3703C20.4178 76.2336 20.9724 76.1014 21.527 75.9677C22.7591 75.6729 23.9944 75.3918 25.2311 75.1153C28.1827 74.4559 31.1485 73.8517 34.1284 73.3028C49.9022 70.4266 66.0772 68.9301 82.1123 70.027C83.5147 70.1228 85.6068 69.2066 86.8861 68.8283C89.5161 68.0489 92.1233 67.192 94.7107 66.2803C96.7147 65.5723 98.7324 64.8552 100.671 63.9816C100.736 63.9512 102.684 63.2568 101.539 63.1778C84.7134 62.0277 67.8183 63.7749 51.2833 66.8744C42.5137 68.5199 33.7501 70.5208 25.2144 73.1326C20.5758 74.5547 15.8598 75.9844 11.4294 77.9808C11.8487 77.7909 9.15038 78.941 10.5618 78.783C12.1572 78.6053 13.8148 78.0507 15.3356 77.5843H15.3311Z" fill="white"/>
</svg>
