<svg width="102" height="94" viewBox="0 0 102 94" fill="none" xmlns="http://www.w3.org/2000/svg">
<g clip-path="url(#clip0_829_161)">
<path d="M96.335 39.3791C96.8032 39.4724 97.0859 39.1924 97.2713 38.7164C97.364 38.6231 97.364 38.5297 97.364 38.4317L98.2077 34.6516C98.3004 34.3669 98.3004 34.0869 98.2077 33.8022C98.0223 32.5748 97.364 32.0054 96.2376 31.9121H95.8621C95.3939 31.9121 95.1112 32.1968 94.9258 32.6681C94.643 33.3308 94.4576 33.7089 94.4576 34.1802C94.4576 34.1802 94.3649 34.6516 94.1748 35.6923C93.892 36.4483 93.9847 37.2043 94.3602 37.9604C94.643 38.8097 95.2966 39.2811 96.3303 39.3791" fill="white"/>
<path d="M69.4033 24.0762C69.4033 24.0762 69.3801 24.1135 69.3662 24.1322C69.3662 24.1415 69.3755 24.1275 69.4033 24.0762Z" fill="white"/>
<path d="M101.963 47.6954C101.963 47.5087 101.963 47.3174 101.87 47.1307C101.777 46.944 101.587 46.846 101.402 46.7527C101.119 46.7527 101.026 46.846 100.933 47.1307C100.933 47.2241 100.841 47.6021 100.841 47.6954C100.748 48.8295 100.465 49.9635 99.9971 51.0042L99.6216 52.1383C99.3388 53.557 98.7779 54.8777 98.1197 56.0118C97.8369 56.4831 97.3687 57.0525 96.8078 57.7105C96.7151 57.8038 96.6224 57.7105 96.5251 57.6172C96.0569 56.9545 95.8668 56.3898 95.7741 55.9184C95.4914 54.313 95.3987 53.0856 95.4914 52.2316C95.4914 51.5689 95.5841 51.1909 95.6768 50.9109C95.7695 50.6262 95.8622 50.1549 95.7695 49.5902C95.6768 49.2121 95.6768 48.9275 95.7695 48.6474C96.0523 48.1761 95.9595 47.5134 96.0523 46.8507C96.2377 45.53 96.4277 44.5826 96.7105 43.9246L96.9933 42.6039C97.086 42.1325 96.9006 41.6565 96.4324 41.2831C95.7741 40.8118 94.8378 40.4338 93.7113 40.3404C93.2431 40.2471 92.8677 40.4338 92.7703 40.9051L92.3948 42.8885C92.0194 44.7786 91.8339 46.4774 91.8339 47.8961V48.0921C91.6485 48.9415 91.3657 50.3555 91.083 52.1476C90.9903 52.9036 90.8976 53.2817 90.8976 53.375C90.5221 54.509 90.2393 55.6431 89.9612 56.7771C89.4003 59.0452 88.8348 61.0286 88.3666 62.634L87.4302 64.9021C87.3375 65.0888 87.1474 65.2802 87.0547 65.5648H86.7719C86.6792 65.5648 86.5865 65.5648 86.5865 65.4715C86.211 64.2441 86.0256 63.3947 86.0256 62.9187C86.1183 61.6913 86.1183 60.5573 86.0256 59.4232C86.0256 58.3825 86.1183 57.7245 86.2157 57.2485C86.2157 56.8705 86.2157 56.5858 86.3084 56.3058V53.473L86.5912 48.3721C86.6839 47.9008 86.5912 46.7667 86.4985 45.1613C86.4985 44.8766 86.4057 44.5966 86.123 44.3119C85.372 43.6492 84.4356 43.3692 83.2119 43.4626C82.7437 43.4626 82.2755 43.6492 81.9927 44.1253C81.5245 45.0726 81.1491 45.6373 81.0564 45.922C80.8663 46.3934 80.5882 46.8647 80.2127 47.5274L79.0863 49.7955C78.428 51.5922 77.4916 53.291 76.4579 54.8964L74.956 56.8798C74.7659 57.0665 74.6732 57.0665 74.5805 56.9731C74.4878 56.8798 74.3951 56.7865 74.3951 56.6885C74.3024 55.8391 74.2097 55.1764 74.3024 54.705C74.3024 54.327 74.3951 53.6643 74.5852 52.7216C74.6779 51.1162 75.1461 49.4175 75.8043 47.7141C76.2725 46.4867 76.838 45.544 77.3989 44.8813C77.6817 44.2186 78.1499 43.8406 78.5254 43.3692C78.9935 42.4265 79.8372 41.7638 81.061 41.2925C81.1537 41.2925 81.6219 41.1991 82.5629 40.9145C83.0311 40.7278 83.5039 40.4431 83.9721 40.0651C84.3476 39.6871 84.3476 39.3091 83.9721 38.931C83.6893 38.931 83.5039 38.7444 83.4112 38.6464C82.4748 38.3617 81.3484 38.2683 80.0319 38.2683C79.1882 38.3617 78.6227 38.455 78.2472 38.6464C76.7453 39.3091 75.5262 40.3451 74.5898 41.7638C73.5561 43.2759 72.7124 44.8813 71.9615 46.678C71.586 47.9054 71.3032 49.0395 71.2105 50.0802C71.1873 50.4535 71.1734 50.8409 71.1595 51.2422C70.9277 52.2503 70.6542 53.2443 70.4595 54.2337C69.8013 56.4084 69.4258 58.2005 69.1477 59.4279C68.8649 60.94 68.3967 62.354 67.9286 63.7728C67.4604 64.9068 67.2703 65.6628 67.1776 66.0409L66.7094 67.3616C66.2412 68.2109 65.773 69.345 65.3929 70.1944C64.7347 71.2351 64.3592 71.8931 64.1738 72.0844C63.5155 72.6491 63.0473 72.5558 62.7646 71.8931L62.3891 70.5724C61.7309 68.6823 61.6382 66.6989 61.3554 64.9021C61.2627 64.4308 61.2627 63.7681 61.2627 63.2967V62.7274C61.0726 62.256 60.9799 61.6867 61.0726 61.2153C61.0726 60.9306 61.0726 60.5526 60.9799 60.0813C60.8872 59.6099 60.8872 59.0406 60.9799 58.5692V58.0045C60.6971 56.5858 60.7899 55.2651 60.7899 53.753C60.7899 53.0903 60.6971 52.3343 60.7899 51.6762C60.7899 50.6355 60.8826 49.6928 60.8826 48.5588C60.8826 47.8027 61.0726 47.1401 61.4435 46.482C62.2871 45.348 62.7553 44.3073 63.0381 43.3646C63.6963 42.1372 64.4473 40.5318 65.1009 38.5437V38.357C65.8518 36.5603 66.4127 35.0529 66.6955 33.7275C66.7882 32.8781 66.8809 32.1221 67.1637 31.4594C67.6319 29.854 67.9146 28.2486 68.5729 26.6432C68.8418 25.3738 69.1152 24.5478 69.3841 24.1464C69.3841 24.1137 69.4907 23.8291 69.6993 23.3344C69.9821 22.107 70.1675 20.8796 70.1675 19.5542V18.0421C70.2602 17.1928 70.1675 16.2454 69.9775 15.396C69.5093 13.7906 68.5683 12.7499 67.071 12.4652H66.6955C65.7591 12.3719 65.0082 12.4652 64.3499 12.8433C63.599 13.408 63.0381 13.9773 62.6626 14.4487C62.1017 15.1114 61.7262 15.7694 61.6289 16.3387C61.3461 17.5661 60.9706 18.8869 60.4097 20.3989C59.7515 21.911 59.376 23.1384 59.2833 24.1791L58.7224 27.6746C58.3469 29.5646 58.0642 31.4547 57.8787 33.3448C57.786 34.1008 57.6933 34.6655 57.6933 35.1415C57.4106 36.9383 57.3178 38.637 57.2251 40.2424C57.1324 41.3765 57.1324 42.5105 57.1324 43.6446C57.0397 44.7786 57.0397 45.9127 57.0397 47.0467C56.947 47.5181 56.947 48.0874 56.947 48.8435V51.2329L56.6689 52.4323L56.0106 55.0784C55.7279 56.3058 55.5424 57.7245 55.2597 59.1386L54.9769 59.8013C54.7915 60.3706 54.6014 61.0286 54.3187 61.6913C53.9432 62.7321 53.5677 63.5814 53.1922 64.0528C52.8168 64.5241 52.4413 64.9021 52.1585 65.0935C51.9731 65.1868 51.8757 65.1868 51.783 65.0001C51.5003 64.1508 51.2221 63.3014 51.1248 62.2607C50.842 60.2773 50.6566 58.2005 50.7493 55.9324V55.3677C50.6566 55.0831 50.6566 54.425 50.7493 53.571V52.6283C50.6566 52.0636 50.5639 51.4009 50.6566 50.6449V48.4701C50.6566 47.9054 50.6566 47.5274 50.7493 47.2427C51.1248 46.1087 51.2175 44.9746 51.3102 43.8406C51.4956 42.0438 51.4956 40.7231 51.2175 39.9671V39.7757C51.2175 39.3044 50.842 38.833 50.1838 38.5484C49.9984 38.455 49.6182 38.2637 49.0574 38.1703C48.8719 38.077 48.6819 38.077 48.4965 38.2637C48.2137 38.6417 48.0283 38.9264 47.9356 39.2064L47.5601 40.3404C47.2773 41.7592 47.0919 43.0799 46.8091 44.3073C46.4336 46.104 46.3409 47.6161 45.6827 49.1235C44.9317 51.2982 44.3708 53.4683 43.7126 55.4517C43.4298 56.2078 43.2444 56.6791 43.1517 56.7725C42.6835 57.9999 41.7425 59.0406 40.9915 60.0766C40.8988 60.3613 40.5234 60.6413 39.8651 61.1173C39.1142 61.5887 38.5533 61.402 38.1778 60.646C38.0851 60.3613 37.9924 60.1746 37.9924 60.0813C37.7096 58.4759 37.5242 57.3418 37.6169 56.5858L38.2751 51.3869L38.4606 50.4442L39.3969 46.3794C39.4896 45.908 39.3969 45.4366 39.0215 45.152C38.2705 44.3026 37.4268 43.9246 36.4905 43.9246H36.3977C35.9296 43.9246 35.5541 44.1113 35.2713 44.4893C34.8958 44.9606 34.7104 45.53 34.7104 46.0013C34.525 47.042 34.4276 47.5134 34.4276 47.5134C34.3349 47.9848 34.4276 48.5541 34.3349 49.0255C34.2422 49.4968 34.2422 49.8748 34.1495 50.0662L33.8667 51.7649V51.7883C33.3707 53.5197 32.8887 55.2277 32.3648 56.8705L30.3947 63.1987C30.112 63.6701 30.112 63.8614 30.2093 63.6701L28.8001 66.2229C28.5174 66.7876 28.0492 67.2636 27.581 67.5436C27.2982 67.6369 27.1128 67.6369 27.0155 67.4502L26.9227 67.3569C26.5473 65.9382 26.0791 64.7108 26.0791 63.1987C26.0791 62.8207 25.889 62.3494 25.889 61.8733C25.889 61.4953 25.7963 61.024 25.7963 60.646C25.7036 59.9833 25.6109 59.4186 25.6109 58.6625C25.5182 57.6218 25.5182 56.4878 25.5182 55.4517C25.5182 54.789 25.5182 53.753 25.6109 52.521C25.7036 51.0089 25.7036 50.0662 25.6109 49.7815V48.9321C25.6109 48.4608 25.6109 47.7981 25.5182 46.9487C25.5182 46.4774 25.3328 46.0993 25.05 45.908C24.3917 45.53 23.8309 44.9653 23.3627 44.4893C22.8945 44.1113 22.1435 43.9246 21.2999 43.9246C21.2071 43.9246 20.9244 44.0179 20.6416 44.1113C20.7343 44.1113 20.5489 44.2046 20.2661 44.3959C19.6079 45.152 19.1397 46.0013 18.8569 46.8507C18.4815 47.8914 18.0133 48.5494 17.9206 49.5902C17.9206 49.6835 17.8278 49.8748 17.7351 49.9682C17.267 51.0089 16.8915 52.0449 16.516 53.0856L15.765 55.4471C15.765 55.4471 15.6723 55.5404 15.4823 55.8251H15.2922C15.2304 55.8251 15.1995 55.794 15.1995 55.7318C15.1068 55.3537 15.1068 55.1671 15.1068 55.1671L14.824 51.2936C14.7313 50.4442 14.7313 49.7815 14.824 49.2168C14.9167 47.7981 14.634 46.5707 14.634 45.1566C14.5413 43.6446 14.2585 42.3238 13.9757 41.2831C13.883 40.9985 13.7903 40.7184 13.7903 40.5271C13.7903 39.6777 13.4148 38.9217 13.1321 38.0723C13.0394 37.601 12.6639 37.223 12.0983 36.9383C12.1911 37.0316 11.8156 36.9383 11.1573 36.8449C10.5964 36.7516 10.221 36.9383 9.93819 37.4096C9.3773 38.1657 9.00182 39.1084 8.71905 40.1491C8.62634 41.1898 8.34357 42.0392 8.25086 43.0752L7.12443 47.3267C6.84167 48.3674 6.65625 49.5015 6.56353 50.6309C6.56353 51.2936 6.56353 51.6716 6.47082 51.8583C6.00264 54.033 5.71987 55.6384 5.53445 56.7725C5.53445 56.6791 5.44174 57.0571 5.25168 57.7152L5.06626 57.9018V57.7152C5.06626 57.3372 4.97355 56.8658 4.97355 56.2031C4.88084 55.3537 4.88084 54.5977 4.97355 54.033C4.97355 52.899 5.06626 51.7649 5.15897 50.3462V49.5902C5.06626 49.0255 5.15897 48.1714 5.25168 47.042C5.34439 45.7213 4.78349 44.9653 3.46701 44.6806C3.18424 44.6806 2.90611 44.6806 2.43329 44.774C1.9651 44.774 1.49691 44.9606 1.02409 44.9606C0.741321 45.054 0.46319 45.3386 0.180423 45.6233C-0.00963342 45.908 -0.00963341 46.0947 0.0877125 46.286C0.46319 46.7574 0.5559 47.3267 0.46319 47.9848V48.9275C0.5559 50.1548 0.648611 51.3822 0.5559 52.6143C0.46319 53.557 0.5559 54.411 0.648611 55.1624L0.931377 57.1458C1.02409 58.4665 1.21414 60.0719 1.68233 61.962C1.77504 62.6247 2.05781 63.2827 2.34058 63.7541C2.43329 64.0388 2.62334 64.2254 2.90147 64.3235C3.36966 64.6081 3.83785 64.7015 4.21333 64.6081C4.49609 64.6081 4.77422 64.4168 4.96428 64.1368C5.62252 63.2874 5.998 62.5314 6.09071 61.7753L6.46619 59.5072C6.46619 59.2226 6.5589 58.9426 6.65161 58.6579C7.02709 57.2392 7.30985 55.9184 7.40256 54.691C7.40256 54.691 7.49527 54.2197 7.68533 53.179L8.24623 50.0615L8.529 48.0781C8.90447 46.188 9.27995 44.2979 9.93819 42.3145L10.221 41.2738C10.221 40.9891 10.3137 40.8958 10.4064 40.8958C10.4991 40.8958 10.4991 40.9891 10.4991 41.2738C10.4991 41.7452 10.4064 42.4079 10.4991 42.8792C10.4991 44.1066 10.6845 45.1473 10.6845 46.2813C10.6845 47.4154 10.8699 48.2648 10.9673 49.3988C11.06 50.9109 11.25 51.8536 11.3428 52.2316V52.9876C11.25 54.215 11.5282 55.4424 11.8109 56.6698C11.8109 57.0478 11.9037 57.4258 12.0937 57.7105C12.752 59.5072 13.9711 59.8806 15.8485 59.0312C16.0385 58.9379 16.224 58.7465 16.3167 58.4665C16.6921 57.2392 17.3504 56.0118 17.7259 54.7844C18.3841 52.5163 19.3205 50.3462 20.1642 48.0781C20.2569 47.6067 20.6323 47.0374 20.9151 46.3747H21.1052C21.1979 46.2814 21.2906 46.3747 21.2906 46.5614C21.2906 47.4107 21.2906 47.7887 21.1979 47.6021C21.3879 48.0734 21.3879 48.9228 21.1979 50.0568V50.5282C21.2906 51.2842 21.1979 52.1336 21.1979 52.983C21.1052 54.5884 21.1979 56.6651 21.4806 59.2179C21.6661 60.8233 21.9488 62.4287 22.417 64.1321C22.7925 65.6442 23.2607 66.7782 23.9189 67.6276C24.7626 68.6683 25.9817 69.233 27.4836 69.1397C28.1419 69.0463 28.7028 68.7616 29.0783 68.2903C29.8292 67.3476 30.2974 66.5915 30.5802 66.1155C31.2384 64.6035 31.9894 63.0914 32.2675 61.486C32.2675 61.3927 32.2675 61.2993 32.3602 61.0146L33.3939 57.3278C33.5005 57.0525 33.5979 56.7865 33.6906 56.5345C33.7045 56.6651 33.723 56.7725 33.7648 56.8565L34.233 59.0312C34.3257 59.5959 34.5157 59.9739 34.6084 60.2586C35.6422 61.486 36.3931 62.3354 36.954 62.7134C37.9877 63.3761 39.0168 63.4694 40.0505 62.9981C41.2697 62.5267 42.2107 61.7707 42.7716 60.9213C43.0543 60.6366 43.2398 60.3566 43.3325 60.1653C43.8934 59.3159 44.1761 58.7465 44.1761 58.2752C44.1761 58.2752 44.3616 57.9905 44.6443 57.4258C45.0198 56.6698 45.3026 56.1051 45.3953 55.7271C45.488 55.6338 45.6781 55.0644 46.0535 54.0283C46.3363 53.179 46.429 52.8943 46.3363 52.9876C46.429 52.8943 46.429 52.801 46.5264 52.8943C46.6191 52.9876 46.7118 52.9876 46.7118 53.081V53.7437C46.7118 54.593 46.7118 55.1624 46.8045 55.2557C46.9899 57.6172 47.18 59.4139 47.3654 60.6413C47.4581 61.8687 47.8336 63.0961 48.3018 64.3235C48.6772 65.1728 49.3355 65.5508 49.8037 66.3069C49.8964 66.3069 49.9891 66.4002 50.0864 66.4002L51.3056 66.7782C51.491 66.8716 51.6811 66.8716 51.9638 66.8716C52.432 66.7782 52.9975 66.4935 53.4657 66.0222C54.2167 65.4575 54.7776 64.7948 55.1531 63.9454C55.4358 63.4741 55.6212 62.8114 55.904 61.962C56.4047 60.6133 56.7106 59.2646 57.0119 57.9018C57.0212 58.1212 57.0212 58.3452 57.0304 58.5645C57.3132 60.0766 57.2159 61.5887 57.4986 63.1007C57.4986 63.5721 57.5913 64.0434 57.6887 64.4215C57.9715 66.0269 58.1569 67.9169 58.5324 69.5223C58.8151 70.9411 59.376 72.1684 60.317 73.1112C61.2534 74.1519 62.2871 74.6232 63.5063 74.7166C63.9745 74.7166 64.3499 74.6232 64.6327 74.5252C65.9445 73.6758 66.6955 72.7285 66.7928 71.5011C66.9783 70.6517 67.1683 70.0824 67.3538 69.7043C67.6365 68.9483 67.9146 68.1923 68.2948 67.4362L68.7629 65.8308C68.8557 65.2662 69.0457 64.6968 69.3238 64.1321C69.792 63.0914 70.2602 61.5793 70.6357 59.5959C70.8211 58.6625 71.0993 57.7525 71.3635 56.8471C71.5535 57.6358 71.8873 58.3359 72.4157 58.9379C72.9766 59.6006 73.6349 59.9786 74.3858 59.8806C74.854 59.7873 75.2295 59.6939 75.5123 59.5026C76.1705 59.0312 76.6387 58.4619 77.0142 57.8972C77.2969 57.4258 77.5751 57.1411 77.7651 56.8565C78.6088 55.5357 79.077 54.5884 79.3597 54.0237C79.8279 52.983 80.2034 51.8489 80.8617 50.7195C81.2371 49.9635 81.6126 49.2075 82.0808 48.4514C82.0808 48.3581 82.1735 48.3581 82.3636 48.3581C82.4563 48.3581 82.4563 48.4514 82.4563 48.5448C82.3636 48.9228 82.3636 49.4875 82.3636 50.3415C82.2709 51.2842 82.2709 51.7603 82.2709 51.7603C82.1781 53.2723 82.2709 54.593 82.2709 56.1051H82.1781V57.3325C82.1781 59.6939 82.2709 61.962 82.739 64.2301C82.739 64.7015 83.0218 65.3642 83.49 66.2135C83.49 66.2135 83.7728 66.6849 84.4264 67.5343C84.8946 68.0056 85.3627 68.3836 86.021 68.477H86.9574C87.6156 68.477 88.1765 68.1923 88.4593 67.5343C89.1175 66.2135 89.493 65.2662 89.3957 64.7948C89.3957 64.7015 89.3957 64.6081 89.4884 64.4168C89.9519 62.5547 90.3228 60.5993 91.0552 58.7372C91.0274 58.7932 91.1154 58.4199 91.273 57.7105L92.1167 54.3084L92.1538 54.1264C92.2233 54.565 92.3021 55.0037 92.3948 55.4424C92.6776 56.5765 93.5213 57.7105 94.9305 58.8446L95.0232 58.9379C96.0569 59.3159 96.9933 59.4092 97.6515 59.2226C98.1197 59.1292 98.4025 58.8446 98.5879 58.3732L98.9634 57.7105C99.9971 56.1051 100.651 54.4997 101.124 52.7963L101.782 50.2435C101.972 49.4875 102.065 48.6381 101.972 47.6907M61.2395 39.5704C61.3322 37.965 61.4249 36.4529 61.7077 34.9409C61.8004 34.5629 61.8004 34.2782 61.8004 34.0915C61.7077 32.2014 62.3613 30.4093 62.4586 28.4213L62.7414 26.6245C63.0242 24.9258 63.4924 22.9377 64.336 20.6743C64.6188 19.8249 64.8042 19.0689 64.8969 18.3128C64.9896 17.7481 65.2724 16.9921 65.5552 15.9514C65.6479 15.2887 65.9306 14.9107 66.3988 14.6307C66.5843 14.5373 66.7743 14.5373 66.867 14.6307C67.1498 14.9153 67.2425 15.102 67.3352 15.2934L67.7107 16.8054C67.8034 17.5615 67.8034 18.6955 67.8034 20.2076C67.8034 20.8703 67.618 22.0043 67.3352 23.4184C66.867 25.3085 66.3988 27.1985 66.1161 29.0886C66.0234 29.3733 65.9306 29.4666 65.9306 29.7513C65.4625 30.9787 65.2724 32.2061 64.9943 33.6248C64.7115 34.6655 64.6188 35.1369 64.6188 35.1369C63.9605 36.9336 63.3997 38.539 62.8341 39.8597C62.2732 41.0871 61.8977 41.8432 61.615 42.2212C61.5223 42.3145 61.4249 42.7859 61.3322 42.8839C61.3322 42.9772 61.2395 42.9772 61.1468 43.0705C61.1468 43.0705 61.0541 42.9772 61.0541 42.8839C61.1468 41.3718 61.1468 40.2378 61.2441 39.5751" fill="white"/>
<path d="M91.0508 58.7327C91.0508 58.7327 91.0647 58.7 91.0786 58.6533C91.0693 58.6813 91.0601 58.7093 91.0508 58.7327Z" fill="white"/>
<path d="M24.9993 12.624C25.2311 12.792 25.4814 12.904 25.7503 12.9647C26.0145 13.0207 26.2926 13.0207 26.5801 12.9647C26.8675 12.904 27.1502 12.7827 27.433 12.5913C27.7158 12.4 27.9383 12.1853 28.1005 11.938C28.2627 11.6953 28.3694 11.4386 28.4157 11.1679C28.4621 10.8973 28.4574 10.6219 28.3879 10.3419C28.323 10.0619 28.2025 9.78654 28.0263 9.5252L26.2185 6.80908L25.4953 7.2991L27.3032 10.0152C27.4237 10.1926 27.5072 10.3746 27.5535 10.5566C27.5999 10.7386 27.6138 10.9113 27.5906 11.0793C27.5674 11.2473 27.5025 11.4059 27.4098 11.5553C27.3125 11.7046 27.178 11.84 27.0065 11.952C26.835 12.0686 26.6635 12.1433 26.4873 12.176C26.3112 12.2086 26.1443 12.204 25.9821 12.162C25.8198 12.12 25.6622 12.0406 25.5185 11.9286C25.3702 11.8166 25.2357 11.6673 25.1199 11.4899L23.3166 8.7785L22.5889 9.26852L24.3967 11.98C24.5729 12.246 24.7768 12.4607 25.0132 12.6287" fill="white"/>
<path d="M32.8423 9.40392L31.447 6.12779C31.4238 6.07178 31.396 6.01111 31.3636 5.95044C31.3311 5.88511 31.2987 5.82444 31.2662 5.7591L35.4753 8.10187C35.5356 8.13454 35.5912 8.1532 35.6468 8.15787C35.6978 8.15787 35.7581 8.14854 35.8183 8.12054L36.2262 7.9432L34.1078 2.95898L33.4032 3.26233L34.7846 6.51047C34.8124 6.57114 34.8402 6.63181 34.8727 6.70181C34.9051 6.76715 34.9422 6.83715 34.9793 6.90715L30.761 4.55972C30.7285 4.54105 30.7007 4.52705 30.6729 4.51305C30.6451 4.50372 30.6219 4.49905 30.5941 4.49905C30.5709 4.49905 30.5431 4.49905 30.5199 4.50838C30.4921 4.51772 30.4643 4.52705 30.4318 4.54105L30.0146 4.72306L32.1331 9.7026L32.8423 9.39926V9.40392Z" fill="white"/>
<path d="M44.3946 5.88935L43.9959 2.3472C43.9867 2.28653 43.9774 2.22119 43.9681 2.15119C43.9588 2.08119 43.9449 2.01118 43.9264 1.93651L47.2918 5.39933C47.3381 5.45066 47.3891 5.48333 47.4401 5.502C47.4911 5.52067 47.5467 5.52533 47.6163 5.516L48.0566 5.46466L47.454 0.0791016L46.6938 0.167772L47.0878 3.67725C47.0971 3.74259 47.1064 3.81259 47.1156 3.88726C47.1295 3.96193 47.1434 4.0366 47.1573 4.11127L43.7873 0.643792C43.7641 0.615791 43.7363 0.592457 43.7178 0.573789C43.6946 0.555122 43.6714 0.541121 43.6483 0.536454C43.6251 0.527121 43.6019 0.527121 43.5741 0.522454C43.5463 0.522454 43.5185 0.522454 43.4767 0.527121L43.0225 0.578456L43.6297 5.96402L44.3946 5.87535V5.88935Z" fill="white"/>
<path d="M52.0244 4.8817C52.2005 5.09171 52.4184 5.25972 52.678 5.39506C52.9422 5.52573 53.2389 5.60507 53.5773 5.6284C53.9157 5.65173 54.2216 5.61907 54.4997 5.52573C54.7779 5.43239 55.0189 5.29705 55.2182 5.11504C55.4222 4.93304 55.5845 4.70903 55.7003 4.44768C55.8209 4.18634 55.8904 3.89233 55.9136 3.57498L56.1407 0.317506L55.2739 0.256837L55.0467 3.51431C55.0328 3.72899 54.9865 3.92499 54.9169 4.093C54.8474 4.26568 54.7501 4.41035 54.6249 4.52702C54.4997 4.64369 54.356 4.73236 54.1892 4.79303C54.0223 4.8537 53.8369 4.87237 53.6283 4.85837C53.4197 4.84437 53.2389 4.79303 53.0813 4.71369C52.9237 4.63436 52.7939 4.52235 52.6919 4.39168C52.5899 4.25634 52.5157 4.10233 52.4647 3.92033C52.4184 3.73832 52.3998 3.54231 52.4184 3.32763L52.6455 0.0748294L51.7741 0.0141602L51.5469 3.27163C51.5237 3.58898 51.5515 3.88766 51.635 4.163C51.7184 4.43835 51.8436 4.68569 52.0197 4.8957" fill="white"/>
<path d="M62.5287 6.41703L60.1182 5.81967L60.5122 4.19093L62.436 4.66695L62.5982 3.99959L60.6745 3.52357L61.0638 1.93684L63.4697 2.5342L63.6366 1.8435L60.3778 1.03613L59.0938 6.30036L62.3572 7.10306L62.5287 6.41703Z" fill="white"/>
<path d="M71.5912 4.91871L70.9468 4.6387C70.8773 4.6107 70.8124 4.60136 70.7522 4.6247C70.6873 4.64337 70.6409 4.67137 70.5992 4.7087L67.9384 7.40148C67.8642 7.47615 67.7901 7.56016 67.7159 7.65349C67.6417 7.74683 67.5675 7.84484 67.4934 7.95217C67.5397 7.69083 67.5629 7.45282 67.5722 7.24281L67.6881 3.44398C67.6881 3.38331 67.6742 3.32264 67.6463 3.26664C67.6185 3.21064 67.5675 3.16864 67.498 3.13597L66.8537 2.85596L66.7285 8.69887L67.4517 9.01155L71.5865 4.90471L71.5912 4.91871Z" fill="white"/>
<path d="M72.8794 11.7467C73.0787 12.0454 73.3429 12.3067 73.6767 12.5307C74.0105 12.7547 74.3535 12.9041 74.7058 12.9741C75.0581 13.0441 75.3965 13.0441 75.7256 12.9741C76.0547 12.9041 76.3699 12.764 76.662 12.554C76.9586 12.344 77.2136 12.0734 77.4361 11.7373C77.6586 11.4013 77.807 11.0606 77.8858 10.706C77.9646 10.3513 77.9738 10.0059 77.9136 9.66992C77.8533 9.3339 77.7235 9.01656 77.5242 8.71788C77.3249 8.4192 77.056 8.15785 76.7222 7.92918C76.3885 7.70517 76.0455 7.56049 75.6978 7.49049C75.3455 7.42049 75.0071 7.42049 74.6733 7.49049C74.3396 7.56049 74.029 7.70517 73.7323 7.91051C73.4357 8.12052 73.1807 8.3912 72.9582 8.72721C72.7357 9.06322 72.5874 9.40391 72.5085 9.75859C72.4297 10.1133 72.4205 10.4586 72.4854 10.7946C72.5456 11.1306 72.6801 11.448 72.8794 11.7467ZM73.3429 9.9966C73.4078 9.74459 73.5284 9.48324 73.6999 9.22657C73.8714 8.96989 74.0614 8.75988 74.27 8.6012C74.4786 8.44253 74.6919 8.33519 74.919 8.27919C75.1462 8.22319 75.3733 8.21852 75.6097 8.26519C75.8461 8.31186 76.0779 8.40986 76.305 8.56387C76.5368 8.71788 76.7176 8.89522 76.852 9.09589C76.9865 9.29657 77.0699 9.51124 77.1023 9.74459C77.1348 9.97793 77.1209 10.2159 77.0514 10.4726C76.9818 10.7246 76.8659 10.9813 76.6944 11.238C76.5229 11.4993 76.3329 11.7093 76.1243 11.868C75.9157 12.0267 75.7024 12.134 75.4799 12.19C75.2574 12.246 75.0256 12.2507 74.7939 12.204C74.5575 12.1574 74.3257 12.0547 74.0939 11.9007C73.8668 11.7467 73.686 11.5693 73.5515 11.3687C73.4171 11.168 73.3337 10.9533 73.2966 10.7246C73.2595 10.496 73.278 10.2533 73.3429 9.9966Z" fill="white"/>
<path d="M26.2975 80.4428C25.987 80.2048 25.6625 80.0414 25.3194 79.9481C24.981 79.8594 24.6427 79.8361 24.3089 79.8921C23.9751 79.9434 23.6553 80.0694 23.3493 80.2608C23.0434 80.4521 22.7653 80.7088 22.5242 81.0355C22.2785 81.3575 22.1024 81.6935 21.9958 82.0342C21.8892 82.3795 21.8474 82.7156 21.8799 83.0469C21.9123 83.3783 22.0143 83.6956 22.1812 83.999C22.3527 84.3023 22.5938 84.573 22.9043 84.811C23.2566 85.0817 23.6043 85.259 23.9427 85.3383C24.2857 85.4177 24.6195 85.4177 24.9532 85.3383L24.9069 84.825C24.9022 84.7736 24.8791 84.7316 24.842 84.7036C24.8003 84.6756 24.7493 84.6616 24.6797 84.6663C24.5639 84.6756 24.4526 84.6756 24.346 84.6663C24.244 84.657 24.142 84.6336 24.04 84.6056C23.9381 84.573 23.8361 84.5263 23.7341 84.4703C23.6321 84.4143 23.5209 84.335 23.4003 84.2463C23.2056 84.097 23.0527 83.9196 22.9368 83.7236C22.8209 83.5229 22.756 83.3036 22.7328 83.0749C22.7096 82.8416 22.7421 82.5989 22.8209 82.3469C22.8997 82.0949 23.0341 81.8382 23.2288 81.5862C23.4189 81.3342 23.6228 81.1382 23.8407 80.9888C24.0586 80.8441 24.2811 80.7508 24.5082 80.7041C24.7354 80.6621 24.9625 80.6668 25.185 80.7275C25.4122 80.7881 25.6254 80.8908 25.8294 81.0495C26.0055 81.1848 26.1399 81.3155 26.228 81.4415C26.3161 81.5675 26.3856 81.6842 26.4273 81.7915C26.4737 81.8942 26.5061 81.9875 26.5293 82.0622C26.5525 82.1369 26.5849 82.1929 26.622 82.2209C26.6591 82.2489 26.6962 82.2629 26.7286 82.2629C26.7611 82.2629 26.7982 82.2629 26.826 82.2489L27.3034 82.0995C27.2571 81.7962 27.1505 81.5068 26.9929 81.2222C26.8306 80.9422 26.5988 80.6808 26.2883 80.4428" fill="white"/>
<path d="M33.3483 84.9228C33.1119 84.6521 32.8152 84.4235 32.4537 84.2415C32.0967 84.0641 31.7352 83.9614 31.3782 83.9334C31.0213 83.9101 30.6829 83.9521 30.3631 84.0688C30.0432 84.1808 29.7465 84.3628 29.4823 84.6055C29.2181 84.8528 28.9956 85.1515 28.8194 85.5108C28.6433 85.8702 28.5367 86.2295 28.5042 86.5936C28.4718 86.9529 28.5042 87.2982 28.6108 87.6249C28.7128 87.9516 28.8843 88.2503 29.1161 88.521C29.3525 88.7916 29.6492 89.0203 30.0061 89.1977C30.3677 89.3797 30.7246 89.4823 31.0816 89.5057C31.4385 89.529 31.7769 89.487 32.0967 89.3703C32.4166 89.2583 32.7086 89.0763 32.9729 88.8337C33.2371 88.591 33.4596 88.2876 33.6357 87.9283C33.8119 87.5689 33.9185 87.2096 33.951 86.8456C33.9834 86.4862 33.9509 86.1409 33.849 85.8142C33.747 85.4875 33.5801 85.1888 33.3437 84.9182M33.098 86.7196C33.0609 86.9809 32.9775 87.2469 32.8384 87.5269C32.6994 87.8069 32.5371 88.0403 32.3563 88.227C32.1709 88.409 31.9716 88.5443 31.7537 88.6283C31.5405 88.7123 31.3133 88.745 31.0723 88.7263C30.8312 88.7076 30.5902 88.6376 30.3445 88.5116C30.0988 88.3903 29.8995 88.2363 29.7373 88.0543C29.5797 87.8723 29.4684 87.6716 29.4035 87.4476C29.3386 87.2236 29.3247 86.9809 29.3572 86.7196C29.3896 86.4582 29.4777 86.1875 29.6167 85.9075C29.7558 85.6275 29.9134 85.3988 30.1035 85.2122C30.2889 85.0302 30.4929 84.8948 30.7061 84.8061C30.924 84.7221 31.1511 84.6895 31.3921 84.7035C31.6332 84.7175 31.8742 84.7875 32.1199 84.9135C32.3656 85.0395 32.5696 85.1888 32.7272 85.3755C32.8848 85.5575 32.996 85.7629 33.0563 85.9869C33.1212 86.2109 33.1351 86.4535 33.098 86.7149" fill="white"/>
<path d="M42.6976 87.8816C42.6512 87.8816 42.6049 87.9142 42.5539 87.9749L40.1527 90.6117C40.097 90.6724 40.046 90.7377 39.995 90.8077C39.9441 90.8777 39.8931 90.9477 39.8467 91.0177C39.8374 90.9337 39.8282 90.8497 39.8143 90.7657C39.8004 90.6817 39.7818 90.6024 39.7633 90.523L38.8408 87.0462C38.8223 86.9715 38.7945 86.9202 38.7574 86.8969C38.7203 86.8735 38.6647 86.8502 38.5905 86.8315L37.9554 86.6729L36.6621 91.9324L37.4084 92.1191L38.2938 88.5116C38.3077 88.4509 38.3216 88.3856 38.3355 88.3109C38.3494 88.2409 38.3587 88.1662 38.3726 88.0962L39.309 91.6524C39.3414 91.7971 39.4249 91.8857 39.5593 91.9231L39.6798 91.9511C39.8143 91.9837 39.9302 91.9464 40.0275 91.8344L42.4751 89.1323C42.4519 89.2023 42.4287 89.2676 42.4055 89.3376C42.387 89.4076 42.3684 89.4683 42.3545 89.529L41.4691 93.1365L42.2155 93.3231L43.5088 88.0636L42.8737 87.9049C42.7995 87.8862 42.7393 87.8769 42.6929 87.8816" fill="white"/>
<path d="M47.1207 88.4382L46.7256 93.8418L47.5993 93.9065L47.9944 88.5029L47.1207 88.4382Z" fill="white"/>
<path d="M52.7663 93.2346L52.6643 91.5639L54.6437 91.4425L54.602 90.7565L52.6226 90.8778L52.5253 89.2491L55.0006 89.0951L54.9589 88.3857L51.6074 88.5911L51.9319 94L55.2834 93.7946L55.2463 93.0853L52.7663 93.2346Z" fill="white"/>
<path d="M61.8147 87.0325L62.6537 90.4627C62.6676 90.528 62.6862 90.5934 62.7094 90.6634C62.7325 90.7334 62.7557 90.808 62.7789 90.8827L58.9963 87.8819C58.9685 87.8586 58.9407 87.8399 58.9175 87.8259C58.8943 87.8119 58.8711 87.8026 58.8433 87.7979C58.8202 87.7979 58.7923 87.7932 58.7692 87.7979C58.7414 87.7979 58.7135 87.8072 58.6765 87.8166L58.2314 87.9286L59.5201 93.1881L60.2664 93.0015L59.4181 89.5433C59.4042 89.4873 59.3857 89.422 59.3672 89.352C59.3486 89.282 59.3254 89.2166 59.2976 89.1466L63.0756 92.1474C63.1312 92.1894 63.1822 92.2174 63.2332 92.2314C63.2842 92.2408 63.3444 92.2408 63.4093 92.2268L63.8404 92.1194L62.5518 86.8599L61.8101 87.0465L61.8147 87.0325Z" fill="white"/>
<path d="M68.5081 89.6037L69.4584 84.6708C69.463 84.6195 69.4676 84.5728 69.4584 84.5215C69.4537 84.4701 69.4398 84.4235 69.4213 84.3768L69.2869 84.0781L65.6758 85.7255L65.9678 86.3742L68.5359 85.2028L67.581 90.1497C67.5717 90.1964 67.5717 90.2384 67.5763 90.2851C67.5763 90.3271 67.5903 90.3737 67.6088 90.4157L67.7525 90.7331L71.4563 89.0437L71.1642 88.395L68.5035 89.6084L68.5081 89.6037Z" fill="white"/>
<path d="M77.6825 81.8709C77.4554 81.5396 77.1911 81.2735 76.8898 81.0729C76.5885 80.8722 76.2733 80.7369 75.9442 80.6669C75.6104 80.6015 75.272 80.6062 74.9197 80.6855C74.5721 80.7649 74.229 80.9189 73.8999 81.1522C73.5708 81.3855 73.3112 81.6516 73.1165 81.9549C72.9264 82.2583 72.8013 82.5803 72.7457 82.9163C72.69 83.2523 72.7086 83.5976 72.792 83.9523C72.8755 84.3023 73.0377 84.643 73.2648 84.9744C73.492 85.3057 73.7562 85.5717 74.0575 85.7724C74.3542 85.9731 74.674 86.1084 75.0032 86.1738C75.3369 86.2391 75.6799 86.2298 76.0276 86.1551C76.3753 86.0757 76.7137 85.9217 77.0474 85.6931C77.3766 85.4597 77.6408 85.1937 77.8308 84.8904C78.0255 84.587 78.146 84.265 78.2017 83.929C78.2573 83.593 78.2388 83.2476 78.1553 82.8976C78.0672 82.5476 77.9096 82.2023 77.6825 81.8756M77.3905 83.873C77.358 84.1063 77.2792 84.321 77.1494 84.5217C77.0196 84.7224 76.8435 84.9044 76.6163 85.063C76.3938 85.2217 76.162 85.3244 75.9303 85.3804C75.6985 85.4317 75.4667 85.4364 75.2396 85.3804C75.0124 85.329 74.7946 85.2264 74.586 85.0724C74.3774 84.9184 74.1827 84.713 74.0019 84.4563C73.8257 84.1997 73.7006 83.9477 73.631 83.6956C73.5615 83.4436 73.5383 83.201 73.5662 82.9676C73.5986 82.7343 73.6774 82.5149 73.8072 82.3143C73.937 82.1089 74.1131 81.9269 74.3403 81.7729C74.5674 81.6142 74.7992 81.5069 75.031 81.4555C75.2674 81.4042 75.4945 81.4042 75.7217 81.4555C75.9488 81.5069 76.1667 81.6096 76.3753 81.7682C76.5839 81.9222 76.7786 82.1276 76.9547 82.3843C77.1355 82.6409 77.2607 82.8976 77.3302 83.145C77.4044 83.397 77.4229 83.6396 77.3951 83.8683" fill="white"/>
</g>
<defs>
<clipPath id="clip0_829_161">
<rect width="102" height="94" fill="white"/>
</clipPath>
</defs>
</svg>
