<?xml version="1.0" encoding="utf-8"?>
<!-- Generator: Adobe Illustrator 27.4.1, SVG Export Plug-In . SVG Version: 6.00 Build 0)  -->
<svg version="1.1" id="Layer_1" xmlns="http://www.w3.org/2000/svg" xmlns:xlink="http://www.w3.org/1999/xlink" x="0px" y="0px"
	 viewBox="0 0 63 63" style="enable-background:new 0 0 63 63;" xml:space="preserve">
<style type="text/css">
	.st0{fill:#FFFFFF;}
</style>
<g>
	<path class="st0" d="M36.3,39.2c0.9-1.1,1.4-2.4,1.3-3.8c-0.1-1.2-0.5-2.3-1.3-3.2l-7,7.9c1,0.7,2.1,1,3.3,0.9
		C34.1,40.9,35.4,40.2,36.3,39.2z M34.9,35.3c0-0.4,0.3-0.6,0.6-0.6c0.4,0,0.6,0.3,0.6,0.6v1.3c0,0.4-0.3,0.6-0.6,0.6
		c-0.4,0-0.6-0.3-0.6-0.6V35.3z M32.4,39.4v-1.3c0-0.4,0.3-0.6,0.6-0.6c0.4,0,0.6,0.3,0.6,0.6v1.3c0,0.4-0.3,0.6-0.6,0.6
		C32.7,40,32.4,39.8,32.4,39.4z"/>
	<path class="st0" d="M43.8,14.7v-2.2c0-0.8-0.7-1.5-1.5-1.5H31.1l1.8,3.7H43.8z"/>
	<path class="st0" d="M32.1,20.7c0.2,0.3,0.5,0.6,0.9,0.6c0.1,0,0.3,0,0.4-0.1c0.2-0.1,0.4-0.3,0.5-0.6c0.1-0.3,0.1-0.5,0-0.8
		L29.1,9.7c-0.1-0.2-0.3-0.4-0.6-0.5L17.6,5.4c-0.1,0-0.4-0.1-0.8,0c-0.2,0.1-0.4,0.3-0.5,0.6c-0.1,0.3-0.1,0.5,0,0.8
		C16.5,7,16.7,7.1,17,7.2l10.5,3.7L32.1,20.7z"/>
	<path class="st0" d="M38.2,29.9l-1.1,1.2c1,1.1,1.7,2.5,1.8,4.1c0.1,1.8-0.5,3.5-1.6,4.8c-1.2,1.3-2.8,2.1-4.5,2.2
		c-1.1,0.1-3.2-0.4-4.3-1.2l-1.1,1.2c1.6,1.2,3.5,1.8,5.5,1.6c2.2-0.1,4.2-1.1,5.7-2.8c1.5-1.7,2.2-3.8,2-6
		C40.4,33.2,39.6,31.3,38.2,29.9z"/>
	<path class="st0" d="M56,0H7C3.1,0,0,3.1,0,7v49c0,3.9,3.1,7,7,7h49c3.9,0,7-3.1,7-7V7C63,3.1,59.9,0,56,0z M47.3,55.3
		c0,2-1.7,3.7-3.7,3.7H21.9c-2,0-3.7-1.7-3.7-3.7V25.5c0-0.1,0-0.1,0-0.2l1.5-9.5l0-3.3c0-1,0.4-2,1.1-2.6l-4.3-1.4
		c-0.6-0.2-1-0.6-1.3-1.2c-0.3-0.6-0.3-1.2-0.1-1.8c0.2-0.6,0.6-1,1.2-1.3c0.6-0.3,1.2-0.3,1.8-0.1l10.9,3.8
		c0.5,0.2,0.9,0.5,1.1,0.9h12.2c2,0,3.7,1.7,3.7,3.7v3.2l1.4,9.7c0,0.1,0,0.1,0,0.2V55.3z"/>
	<path class="st0" d="M23.8,11h-0.4c-0.8,0-1.5,0.7-1.5,1.5v2.2h5.9l-1.3-2.8L23.8,11z"/>
	<rect x="20.3" y="48.1" class="st0" width="24.8" height="2.4"/>
	<path class="st0" d="M43.9,16.9h-10l1.1,2.4c0.1,0.2,0.1,0.3,0.2,0.5c0.5,0.3,0.8,0.7,0.8,1.2c0,1.2-1.7,1.7-3.3,1.7
		c-1.6,0-3.3-0.5-3.3-1.7c0-0.5,0.3-0.9,0.8-1.1l-1.4-2.9h-7.1L20.4,25h24.6L43.9,16.9z M24.4,23.4c-0.1,0.5-0.5,0.9-1.1,0.9
		c-0.1,0-0.1,0-0.2,0c-0.6-0.1-1-0.6-0.9-1.2c0.1-0.4,0.2-1.5,0.3-1.9c0.1-0.6,0.6-1,1.2-0.9c0.6,0.1,1,0.6,0.9,1.2
		C24.7,21.9,24.5,23,24.4,23.4z"/>
	<path class="st0" d="M20.3,55.3c0,0.8,0.7,1.5,1.5,1.5h21.8c0.8,0,1.5-0.7,1.5-1.5v-3.6H20.3V55.3z"/>
	<path class="st0" d="M45.2,26.3H20.3v20.4h24.8V26.3z M22.8,29.3h7.8c0.4,0,0.6,0.3,0.6,0.6c0,0.4-0.3,0.6-0.6,0.6h-7.8
		c-0.4,0-0.6-0.3-0.6-0.6C22.2,29.6,22.4,29.3,22.8,29.3z M22.2,33.1c0-0.4,0.3-0.6,0.6-0.6h4.4c0.4,0,0.6,0.3,0.6,0.6
		c0,0.4-0.3,0.6-0.6,0.6h-4.4C22.4,33.7,22.2,33.5,22.2,33.1z M39.5,41.9c-1.7,1.9-4,3.1-6.5,3.2c-2.7,0.1-5.1-0.8-6.9-2.4
		c-0.3-0.2-0.3-0.6-0.1-0.9l11.7-13.3c0.2-0.3,0.6-0.3,0.9-0.1c1.9,1.7,3.1,4,3.2,6.5C42,37.6,41.2,40,39.5,41.9z"/>
</g>
</svg>
