<?xml version="1.0" encoding="utf-8"?>
<!-- Generator: Adobe Illustrator 27.4.1, SVG Export Plug-In . SVG Version: 6.00 Build 0)  -->
<svg version="1.1" id="Layer_1" xmlns="http://www.w3.org/2000/svg" xmlns:xlink="http://www.w3.org/1999/xlink" x="0px" y="0px"
	 viewBox="0 0 63 63" style="enable-background:new 0 0 63 63;" xml:space="preserve">
<style type="text/css">
	.st0{fill:#FFFFFF;}
</style>
<g>
	<path class="st0" d="M18.8,47v2.1h2.8C20.6,48.5,19.6,47.8,18.8,47z"/>
	<path class="st0" d="M28.4,49.1c6.7,0,12.2-5.6,12.2-12.4c0-6.8-5.5-12.4-12.2-12.4c-3.8,0-7.3,1.7-9.6,4.8v1.4
		c2.2,0.2,3.6,1.4,4.5,2.5c0.5,0.6,0.9,1.3,1.1,1.8c0.9-0.1,2,0.2,2.7,1c0.2,0.3,0.4,0.5,0.5,0.8c0.2-0.2,0.4-0.4,0.6-0.6
		c0.6-0.6,1.1-1.3,1.3-2.1l0-0.1c-0.6,0-1.3-0.3-1.7-0.8l-1.5-1.7c-0.9-1-0.8-2.5,0.1-3.4l1.2-1.2c0.7-0.7,1.7-0.8,2.5-0.3
		c1.8,1.1,3.1,2.5,3.8,3.5c0.6,0.8,0.8,1.9,0.7,2.9c-0.4,2.1-0.5,4.1-0.5,5.9c0,1.7-0.4,3.4-1.1,4.8l-1.2,2.5
		c-0.6,1.1-1.8,1.7-3,1.4l-3.9-1c-2.3-0.6-4.4-1.9-5.9-3.7v1.8C21.1,47.4,24.6,49.1,28.4,49.1z"/>
	<path class="st0" d="M18.8,24.3v2.1c0.8-0.8,1.8-1.5,2.8-2.1H18.8z"/>
	<path class="st0" d="M43.1,20.6l-0.5-0.5c-0.5-0.5-0.7-1.1-0.7-1.8v-0.1H21.2v0.1c0,0.7-0.3,1.3-0.7,1.8l-0.5,0.5
		c-0.5,0.5-0.9,1.2-1,1.9h25.2C43.9,21.8,43.6,21.1,43.1,20.6z"/>
	<path class="st0" d="M25.6,36.9c-0.4-0.4-1.3-0.5-1.6-0.3c-0.2,0.1-0.5,0.1-0.7-0.1c-0.2-0.1-0.4-0.3-0.4-0.6
		c0-0.1-0.9-3.2-4.1-3.7l0,6.9c1.2,2.6,3.5,4.6,6.4,5.3l3.9,1c0.4,0.1,0.8-0.1,1-0.4l1.2-2.5c0.6-1.2,0.9-2.6,0.9-4
		c0-1.9,0.2-4,0.6-6.2c0.1-0.5,0-1.1-0.3-1.5c-0.6-0.8-1.6-2-3.2-2.9c-0.1-0.1-0.3,0-0.4,0.1l-1.2,1.2c-0.2,0.2-0.3,0.6,0,0.9
		l1.5,1.7c0.1,0.1,0.3,0.2,0.4,0.2h1.1c0.3,0,0.5,0.1,0.7,0.4c0.2,0.2,0.2,0.5,0.1,0.8l-0.4,1.3c-0.3,1.2-1,2.2-1.9,3
		c-0.4,0.3-0.7,0.8-1,1.2l-0.6,1.2c-0.2,0.4-0.7,0.6-1.2,0.4C26,40,25.8,39.5,26,39C26,39,26.4,37.8,25.6,36.9z"/>
	<path class="st0" d="M56,0H7C3.1,0,0,3.1,0,7v49c0,3.9,3.1,7,7,7h49c3.9,0,7-3.1,7-7V7C63,3.1,59.9,0,56,0z M25.7,9
		c0.5,0,0.9,0.4,0.9,0.9c0,0.5-0.4,0.9-0.9,0.9c-0.5,0-0.9-0.4-0.9-0.9C24.8,9.4,25.2,9,25.7,9z M46,23.4V50c0,2.7-2.2,5-4.9,5H21.9
		c-2.7,0-4.9-2.2-4.9-5v-5.4c0,0,0,0,0,0v-5.2c0,0,0,0,0,0V28.8c0,0,0,0,0,0v-5.3c0,0,0,0,0,0c0,0,0,0,0,0c0,0,0,0,0,0
		c0-1.5,0.6-3,1.7-4l0.5-0.5c0.1-0.1,0.2-0.3,0.2-0.5v-0.1h-0.8c-0.2,0-0.5-0.1-0.6-0.3c-0.2-0.2-0.3-0.4-0.3-0.6V13
		c0-1.1,0.4-2.1,1.1-2.8C19.6,9.4,20.6,9,21.6,9h0.1c0.5,0,0.9,0.4,0.9,0.9c0,0.5-0.4,0.9-0.9,0.9h-0.1c-1.2,0-2.1,1-2.1,2.2v3.4h24
		V13c0-1.2-1-2.2-2.1-2.2H29.7c-0.5,0-0.9-0.4-0.9-0.9c0-0.5,0.4-0.9,0.9-0.9h11.7c1,0,2,0.4,2.8,1.2c0.7,0.8,1.1,1.8,1.1,2.8v4.3
		c0,0.2-0.1,0.5-0.3,0.6c-0.2,0.2-0.4,0.3-0.6,0.3h-0.8v0.1c0,0.2,0.1,0.4,0.2,0.5l0.5,0.5C45.4,20.4,46,21.8,46,23.4
		C46,23.4,46,23.4,46,23.4C46,23.4,46,23.4,46,23.4C46,23.4,46,23.4,46,23.4z"/>
	<path class="st0" d="M42.4,36.7c0,5.3-2.9,10-7.1,12.4h9V24.3h-9C39.5,26.7,42.4,31.4,42.4,36.7z"/>
	<path class="st0" d="M21.9,53.2h19.2c1.4,0,2.6-1,3-2.3H18.9C19.3,52.2,20.5,53.2,21.9,53.2z"/>
</g>
</svg>
