<?xml version="1.0" encoding="utf-8"?>
<!-- Generator: Adobe Illustrator 27.4.1, SVG Export Plug-In . SVG Version: 6.00 Build 0)  -->
<svg version="1.1" id="Layer_1" xmlns="http://www.w3.org/2000/svg" xmlns:xlink="http://www.w3.org/1999/xlink" x="0px" y="0px"
	 viewBox="0 0 63 63" style="enable-background:new 0 0 63 63;" xml:space="preserve">
<style type="text/css">
	.st0{fill:#FFFFFF;}
</style>
<g>
	<polygon class="st0" points="33.5,39.2 14.1,39.2 14.2,40 33.4,40 	"/>
	<path class="st0" d="M33.3,41.1h-19l0.5,4.6c0.1,0.8,0.4,1.5,1,2c0.6,0.5,1.3,0.8,2.1,0.8h11.9c0.8,0,1.5-0.3,2.1-0.8
		c0.6-0.5,0.9-1.2,1-2L33.3,41.1z"/>
	<path class="st0" d="M34.9,34.6c0.1,0.5,0.2,1.4,0.8,2c0.6,0.6,1.4,0.7,2,0.8c-0.1-0.5-0.2-1.4-0.8-2
		C36.3,34.8,35.4,34.6,34.9,34.6z"/>
	<path class="st0" d="M38.7,37.3c0.5-0.1,1.4-0.2,2-0.8c0.6-0.6,0.7-1.4,0.8-2c-0.5,0.1-1.4,0.2-2,0.8C39,35.9,38.8,36.8,38.7,37.3z
		"/>
	<path class="st0" d="M18.8,37c-0.1,0.1-0.2,0.2-0.2,0.4c0,0.1-0.1,0.2-0.2,0.3c-0.1,0.1-0.2,0.1-0.3,0.1l0,0c-0.1,0-0.1,0-0.2,0
		c-0.2,0-0.5,0-0.7,0.1c-0.2,0.1-0.4,0.2-0.6,0.4h2.8L18.8,37z"/>
	<path class="st0" d="M21.2,38.2l-2.9-6.9c0-0.1-0.1-0.2-0.2-0.2c-0.1,0-0.2,0-0.3,0c-0.1,0-0.2,0.1-0.2,0.2c0,0.1,0,0.2,0,0.3
		l2.8,6.6H21.2z"/>
	<rect x="30.6" y="14.6" class="st0" width="15.2" height="0.8"/>
	<polygon class="st0" points="46,16.4 30.4,16.4 28.9,19 47.5,19 	"/>
	<path class="st0" d="M31.1,38.2c-0.3-0.3-0.8-0.5-1.3-0.5c-0.1,0-0.1,0-0.2,0l0,0c-0.1,0-0.2,0-0.3-0.1s-0.2-0.1-0.2-0.3
		c-0.1-0.3-0.3-0.5-0.5-0.6c-0.2-0.2-0.5-0.2-0.8-0.2c-0.2,0-0.4,0-0.6,0.1c-0.1,0-0.2,0.1-0.2,0.1c-0.1,0-0.2,0-0.2-0.1
		c-0.1,0-0.1-0.1-0.2-0.1c0-0.1-0.1-0.1-0.1-0.2c0-0.2-0.1-0.3-0.3-0.5c-0.1-0.1-0.3-0.2-0.5-0.2c-0.1,0-0.2,0-0.3,0.1
		c-0.1,0.1-0.3,0.1-0.4,0c-0.1,0-0.2-0.1-0.3-0.3c-0.1-0.1-0.2-0.3-0.3-0.4c-0.1-0.1-0.3-0.1-0.4-0.1s-0.3,0-0.4,0.1
		c-0.1,0.1-0.2,0.2-0.3,0.4c-0.1,0.1-0.2,0.2-0.3,0.3c-0.1,0-0.3,0-0.4,0c-0.1,0-0.2-0.1-0.3-0.1c-0.1,0-0.2,0-0.3,0.1
		c-0.1,0-0.2,0.1-0.3,0.2l1,2.3H31.1z"/>
	<path class="st0" d="M33.9,45.7c-0.1,1-0.6,2-1.4,2.7h15.4v-5H34.1L33.9,45.7z"/>
	<path class="st0" d="M38.7,34.7C38.7,34.7,38.8,34.7,38.7,34.7C38.8,34.6,38.8,34.6,38.7,34.7c0.6-0.6,1.3-0.9,2.1-1.1c0,0,0,0,0,0
		c0,0,0,0,0,0c0.4-0.5,0.7-1.2,0.7-1.9c-0.7,0-1.3,0.3-1.8,0.7c0,0-0.1,0.1-0.1,0.1c-0.3,0.3-0.5,0.6-0.6,1
		C38.8,33.9,38.8,34.3,38.7,34.7z"/>
	<path class="st0" d="M56,0H7C3.1,0,0,3.1,0,7v49c0,3.9,3.1,7,7,7h49c3.9,0,7-3.1,7-7V7C63,3.1,59.9,0,56,0z M49,49
		c0,0.1-0.1,0.3-0.2,0.4c-0.1,0.1-0.2,0.2-0.4,0.2H17.9c-1,0-2-0.4-2.8-1.1c-0.8-0.7-1.3-1.7-1.4-2.7l-0.7-7c0-0.1,0-0.1,0-0.2
		c0-0.1,0.1-0.1,0.1-0.2c0-0.1,0.1-0.1,0.2-0.1c0.1,0,0.1,0,0.2,0h1.7c0.2-0.5,0.6-0.9,1-1.1c0.4-0.3,1-0.4,1.5-0.4
		c0.2-0.3,0.4-0.5,0.6-0.7L16.7,32c-0.1-0.4-0.1-0.7,0-1.1c0.1-0.4,0.4-0.6,0.8-0.8C17.6,30,17.8,30,18,30c0.3,0,0.6,0.1,0.8,0.2
		c0.2,0.2,0.4,0.4,0.5,0.6l1.7,4c0.3-0.2,0.7-0.3,1-0.3c0.1,0,0.2,0,0.3,0c0.2-0.2,0.4-0.4,0.7-0.5c0.3-0.1,0.5-0.2,0.8-0.2
		c0.3,0,0.6,0.1,0.8,0.2c0.3,0.1,0.5,0.3,0.7,0.5c0.4-0.1,0.8,0,1.1,0.2c0.3,0.2,0.6,0.4,0.8,0.8c0.1,0,0.1,0,0.2,0l0,0V19.5
		c0-0.1,0-0.2,0.1-0.3l2.1-3.5V14c0-0.1,0.1-0.3,0.2-0.4c0.1-0.1,0.2-0.2,0.4-0.2h16.3c0.1,0,0.3,0.1,0.4,0.2
		c0.1,0.1,0.2,0.2,0.2,0.4v1.7l2.1,3.5c0,0.1,0.1,0.2,0.1,0.3V49z"/>
	<path class="st0" d="M28.5,25.8h19.5V20H28.5V25.8z M46.1,22.1c0-0.1,0.1-0.3,0.2-0.4c0.1-0.1,0.2-0.2,0.4-0.2
		c0.1,0,0.3,0.1,0.4,0.2c0.1,0.1,0.2,0.2,0.2,0.4v1.8c0,0.1-0.1,0.3-0.2,0.4c-0.1,0.1-0.2,0.2-0.4,0.2c-0.1,0-0.3-0.1-0.4-0.2
		c-0.1-0.1-0.2-0.2-0.2-0.4V22.1z"/>
	<path class="st0" d="M28.5,35.5c0.6,0.2,1.1,0.6,1.4,1.1c0.5,0,1,0.2,1.5,0.4c0.4,0.3,0.8,0.7,1,1.1h1.7c0.1,0,0.1,0,0.2,0
		c0.1,0,0.1,0.1,0.2,0.1c0,0.1,0.1,0.1,0.1,0.2c0,0.1,0,0.1,0,0.2l-0.4,3.7h13.7V26.9H28.5V35.5z M33.8,31.2c0-0.1,0.1-0.3,0.2-0.3
		c0.1-0.1,0.2-0.1,0.3-0.2c0.7,0,1.4,0.1,2,0.3c0,0,0,0,0,0c0,0,0,0,0,0c0-1.7,1.5-3.1,1.5-3.1c0.1-0.1,0.2-0.1,0.4-0.1
		c0.1,0,0.3,0,0.4,0.1c0.1,0.1,1.5,1.4,1.5,3.1c0,0,0,0,0,0c0,0,0,0,0,0c0.6-0.2,1.3-0.3,2-0.3c0.1,0,0.3,0.1,0.3,0.2
		c0.1,0.1,0.1,0.2,0.2,0.3c0,0.8-0.1,1.6-0.5,2.4c0.1,0,0.2,0.1,0.3,0.2c0.1,0.1,0.1,0.2,0.1,0.3c0,0.1,0.1,2.1-1.1,3.3
		c-0.8,0.8-2,1.1-2.7,1.1v2.7c0,0.1-0.1,0.3-0.2,0.4c-0.1,0.1-0.2,0.2-0.4,0.2s-0.3-0.1-0.4-0.2c-0.1-0.1-0.2-0.2-0.2-0.4v-2.7
		c-0.7-0.1-1.9-0.3-2.7-1.1c-1.2-1.2-1.1-3.2-1.1-3.3c0-0.1,0.1-0.2,0.1-0.3c0.1-0.1,0.2-0.1,0.3-0.2C33.9,32.8,33.8,32,33.8,31.2z"
		/>
	<path class="st0" d="M37.6,34.6C37.6,34.6,37.6,34.6,37.6,34.6C37.6,34.7,37.7,34.7,37.6,34.6c0-0.3,0-0.7-0.2-1.1
		c-0.1-0.4-0.3-0.7-0.6-1c0,0-0.1-0.1-0.1-0.1c-0.5-0.4-1.2-0.6-1.8-0.7c0,0.7,0.3,1.3,0.7,1.9C36.3,33.7,37,34.1,37.6,34.6z"/>
	<path class="st0" d="M37.6,31.7C37.6,31.7,37.6,31.8,37.6,31.7c0.3,0.3,0.5,0.6,0.6,0.9c0.2-0.3,0.4-0.6,0.6-0.8c0,0,0,0,0.1-0.1
		c0,0,0,0,0,0c0.1-0.3,0.2-0.5,0.2-0.8c0-0.8-0.5-1.5-0.8-2c-0.4,0.4-0.8,1.2-0.8,2C37.4,31.2,37.4,31.4,37.6,31.7
		C37.5,31.7,37.5,31.7,37.6,31.7z"/>
</g>
</svg>
