<?xml version="1.0" encoding="utf-8"?>
<!-- Generator: Adobe Illustrator 27.4.1, SVG Export Plug-In . SVG Version: 6.00 Build 0)  -->
<svg version="1.1" id="Layer_1" xmlns="http://www.w3.org/2000/svg" xmlns:xlink="http://www.w3.org/1999/xlink" x="0px" y="0px"
	 viewBox="0 0 63 63" style="enable-background:new 0 0 63 63;" xml:space="preserve">
<style type="text/css">
	.st0{fill:#FFFFFF;}
</style>
<g>
	<path class="st0" d="M30.9,49.8c-2.5,0-5.1-0.7-7.5-1.9l-2.4,3.4h19.9l-2.4-3.4C36,49.1,33.4,49.8,30.9,49.8z"/>
	<path class="st0" d="M12.4,54.4h36.9c0.7,0,1.3-0.2,1.8-0.7c0.3-0.2,0.5-0.5,0.7-0.8h-42C10.4,53.8,11.4,54.4,12.4,54.4z"/>
	<path class="st0" d="M48.6,36.8l1.8-8.1c0.1-0.4,0-0.9-0.3-1.2c-0.3-0.4-0.8-0.6-1.3-0.6h-1.9v8.4c0,1-0.1,2-0.4,3l1-0.3
		C48.1,37.8,48.5,37.4,48.6,36.8z"/>
	<path class="st0" d="M44.3,21.6c0.4-0.4,1.2-1.4,1-2.5c-0.1-0.9-0.8-1.7-2.1-2.4c-0.2-0.1-0.3-0.3-0.4-0.5l0,0c0,0-0.3-1.3-1.6-2.1
		c-1.1-0.6-2.5-0.6-4.3-0.1c-0.2,0.1-0.5,0-0.7-0.1c-0.2-0.1-0.3-0.4-0.3-0.6c0-0.3-0.1-2-2.2-2c-0.3,0-0.6-0.2-0.7-0.5
		c-0.5-1.3-2.4-1.9-3.9-2.1c0.2,0.5,0.2,1.1-0.1,1.6c-0.3,0.7-1.1,1-2.2,1c-0.4,0-1,0.1-1.2,0.4c-0.3,0.4-0.1,1.1,0,1.3
		c0.1,0.3,0,0.6-0.2,0.8C25.3,14,25,14.1,24.8,14c-1.8-0.6-3.3-0.5-4.4,0.1c-1.2,0.7-1.6,2-1.6,2c0,0.2-0.2,0.4-0.4,0.5
		c-1.3,0.7-2,1.5-2.1,2.4c-0.1,1.1,0.7,2.1,1,2.5H44.3z"/>
	<path class="st0" d="M56,0H7C3.1,0,0,3.1,0,7v49c0,3.9,3.1,7,7,7h49c3.9,0,7-3.1,7-7V7C63,3.1,59.9,0,56,0z M55.2,28.8l-2,9.5
		c-0.4,2-1.9,3.5-4,4.1l-5.7,1.5c-1.1,1.3-2.4,2.4-3.9,3.3l3,4.2H53c0.2,0,0.5,0.1,0.6,0.3c0.1,0.2,0.2,0.4,0.1,0.6
		c-0.2,1-0.8,2-1.6,2.6c-0.8,0.7-1.8,1-2.8,1H12.4c-2.1,0-3.9-1.5-4.4-3.6C8,52,8,51.8,8.2,51.6c0.1-0.2,0.4-0.3,0.6-0.3H19l3-4.2
		c-4.4-2.8-7.2-7.3-7.2-11.8v-13c0-0.4,0.3-0.7,0.7-0.7c-0.4-0.7-0.8-1.7-0.7-2.7c0.2-1.3,1-2.4,2.6-3.4c0.2-0.6,0.8-1.9,2.2-2.7
		c1.2-0.7,2.7-0.9,4.4-0.5c0-0.5,0.1-1,0.4-1.4c0.5-0.7,1.3-1,2.5-1c0.6,0,0.8-0.1,0.8-0.2c0.1-0.2-0.2-0.9-0.5-1.3
		c-0.2-0.2-0.2-0.5-0.1-0.8c0.1-0.3,0.4-0.4,0.7-0.4c0.2,0,4.9,0,6.4,2.7c1.9,0.2,2.7,1.5,3.1,2.5c1.9-0.4,3.5-0.3,4.7,0.5
		c1.4,0.8,2,2.1,2.2,2.7c1.5,0.9,2.4,2.1,2.6,3.4c0.1,1.1-0.2,2-0.7,2.7c0.4,0,0.7,0.4,0.7,0.8h2.9c1.7,0,3.3,0.8,4.4,2.1
		C55.1,25.7,55.5,27.2,55.2,28.8z"/>
	<path class="st0" d="M49.7,23.9h-2.9v1.5h1.9c1,0,1.9,0.4,2.5,1.2c0.6,0.7,0.8,1.6,0.6,2.5l-1.8,8.1c-0.2,1.1-1.1,2-2.2,2.3l-2,0.5
		c-0.3,0.6-0.6,1.2-0.9,1.8l3.9-1c1.5-0.4,2.6-1.5,2.9-2.9l2-9.5c0.2-1.1,0-2.2-0.7-3.1C52.2,24.4,51,23.9,49.7,23.9z"/>
	<path class="st0" d="M45.3,23.1h-1.5v7.8c0.1,0.1,0.3,0.1,0.4,0.2c0.4,0.2,0.5,0.7,0.2,1.1c-0.2,0.4-0.7,0.5-1.1,0.2
		c-0.6-0.4-2.1-0.7-3.1-0.8l0,0c-0.3-0.1-0.6-0.1-0.8-0.2c-1.5-0.3-3.2-0.2-5,0.5c-1.8,0.7-4.5,0.7-8.2,0c-3.6-0.7-6.9,0-8,0.6
		c-0.1,0.1-0.2,0.1-0.4,0.1c-0.3,0-0.5-0.1-0.7-0.4c-0.2-0.4-0.1-0.8,0.3-1c0.1,0,0.2-0.1,0.3-0.1v-8h-1.5v12.2
		c0,4.3,2.7,8.5,7.1,10.9c2.3,1.3,4.9,2,7.4,2c2.5,0,5-0.7,7.4-2c1.7-0.9,3.2-2.2,4.3-3.6c0.9-1.1,1.6-2.3,2.1-3.6
		c0.5-1.2,0.7-2.5,0.7-3.8V23.1z M43,39.8c-0.3,0.1-0.6,0.2-0.9,0.3c-2.2,3.5-6.4,5.8-11.3,5.8c-3.6,0-6.8-1.3-9.2-3.4
		c-0.9-0.8-1.6-1.6-2.2-2.6c-0.3-0.1-0.6-0.2-0.9-0.4c-0.4-0.2-0.5-0.6-0.4-1c0.2-0.4,0.6-0.5,1-0.4c1.5,0.7,4.5,1.2,7.5,0.6
		c3.4-0.7,6-0.7,7.6,0c1.6,0.7,3.1,0.8,4.5,0.5c0.1,0,0.3-0.1,0.5-0.1l0.1,0l0,0h0c0.9-0.2,2.1-0.5,2.9-0.9c0.4-0.2,0.8,0,1,0.4
		C43.6,39.2,43.4,39.6,43,39.8z"/>
</g>
</svg>
