<?xml version="1.0" encoding="utf-8"?>
<!-- Generator: Adobe Illustrator 27.4.1, SVG Export Plug-In . SVG Version: 6.00 Build 0)  -->
<svg version="1.1" id="Layer_1" xmlns="http://www.w3.org/2000/svg" xmlns:xlink="http://www.w3.org/1999/xlink" x="0px" y="0px"
	 viewBox="0 0 63 63" style="enable-background:new 0 0 63 63;" xml:space="preserve">
<style type="text/css">
	.st0{fill:#FFFFFF;}
</style>
<g>
	<path class="st0" d="M31.9,34.5c0-4.1-6.2-4.1-6.2,0c0,0.4-0.3,0.7-0.7,0.7H13.4l0.5,4.3h11.2c0.4,0,0.7,0.3,0.7,0.7
		c0,4.1,6.2,4.1,6.2,0c0-0.4,0.3-0.7,0.7-0.7h11.2l0.4-4.3H32.6C32.2,35.2,31.9,34.9,31.9,34.5z"/>
	<polygon class="st0" points="22.7,52.9 35.1,52.9 36.4,49.5 21.3,49.5 	"/>
	<path class="st0" d="M17,25.3h23.9c2.1,0,2.3-3.4,0-3.4h-5.4c-0.4,0-0.7-0.3-0.7-0.7c0-0.4,0.3-0.7,0.7-0.7h3.3
		c-0.2-0.6-0.1-1.2-0.1-1.9c-0.2-1.9-2.7-1.4-3.1-1.4c-1,0-3.6,0.3-4.2,1.5c-0.1,0.3-0.5,0.5-1,0.2c-0.3-0.1-0.5-0.5-0.3-0.9
		c1-1.8,3.6-2.2,4.9-2.3c0.3-1,0.1-2.2-0.5-3.2c-1.2-1.6-3.9-2.1-5.1-2.1c-1,4.6-6,6-8.8,6.4C19.6,17,19,17.7,19,18.6v1
		c0.1,0.2,0.2,0.3,0.3,0.5c0.4,0.3,1.6,0.8,4.6,0.3c0.4-0.1,0.8,0.2,0.8,0.5c0.1,0.4-0.2,0.8-0.5,0.8c-2.1,0.4-4.1,0.5-5.8-0.6
		c-0.4,0.5-1,0.7-1.5,0.7C14.8,21.8,14.7,25.3,17,25.3z"/>
	<path class="st0" d="M24.4,40.9H14.1l0.2,2.3c0.5,2.8,2.9,4.9,5.9,4.9h17.4c2.9,0.1,5.4-2.1,5.9-5l0.3-2.2H33.3
		C32.5,46,25.1,46,24.4,40.9z"/>
	<path class="st0" d="M56,0H7C3.1,0,0,3.1,0,7v49c0,3.9,3.1,7,7,7h49c3.9,0,7-3.1,7-7V7C63,3.1,59.9,0,56,0z M50.7,13.5l-7.9,7.7
		l0.1,0.1c0.5,0.6,0.9,1.4,0.9,2.2c0,0.6-0.2,1.2-0.5,1.7c3,0,2.7,0,2.7,0c0.4,0.1,0.7,0.4,0.6,0.8l-1.9,17.4
		c-0.5,3.4-3.4,6-6.9,6.2l-1.7,4.4c-0.1,0.3-0.3,0.4-0.6,0.4H22.1c-0.3,0-0.5-0.1-0.6-0.4l-1.7-4.4c-3.4-0.1-6.3-2.7-6.9-6.1
		L11,25.9v-0.1c0-0.4,0.3-0.7,0.7-0.7h2.7c-1.4-2,0.1-4.7,2.5-4.7c0.4,0,0.8-0.3,0.8-0.8v-1c0-1.6,1.1-2.9,2.7-3.2
		c2.7-0.4,7.2-1.6,7.8-5.9C28.3,9.3,28.6,9,28.9,9c0.1,0,4.7,0,6.7,2.7c0.8,1.2,1.2,2.6,0.8,4h0.5c1.1,0,2.1,0.5,2.7,1.5L47,9.8
		c1-1,2.7-1.1,3.7-0.1C51.7,10.8,51.7,12.4,50.7,13.5z"/>
	<path class="st0" d="M48,10.8l-7.9,8c0,0.8-0.1,1.1,0.1,1.4c0.3,0.4,0.8,0.2,1.4,0.4l8.1-8.1c0.5-0.5,0.5-1.2-0.1-1.7
		C49.2,10.3,48.5,10.3,48,10.8z"/>
	<path class="st0" d="M13.3,33.8h11.1c0.8-5.1,8.2-5.1,8.9,0h11.2l0.8-7.2H12.4L13.3,33.8z"/>
</g>
</svg>
