<?xml version="1.0" encoding="utf-8"?>
<!-- Generator: Adobe Illustrator 27.4.1, SVG Export Plug-In . SVG Version: 6.00 Build 0)  -->
<svg version="1.1" id="Layer_1" xmlns="http://www.w3.org/2000/svg" xmlns:xlink="http://www.w3.org/1999/xlink" x="0px" y="0px"
	 viewBox="0 0 63 63" style="enable-background:new 0 0 63 63;" xml:space="preserve">
<style type="text/css">
	.st0{fill:#FFFFFF;}
</style>
<g>
	<path class="st0" d="M39.7,46.3c0.3,0.2,0.6,0.3,0.9,0.3c0.4,0,0.8-0.2,1.1-0.5c0.3-0.3,0.5-0.7,0.5-1.1c0-0.3-0.1-0.6-0.3-0.9
		s-0.4-0.5-0.7-0.6c-0.3-0.1-0.6-0.1-0.9-0.1c-0.3,0.1-0.6,0.2-0.8,0.4c-0.2,0.2-0.4,0.5-0.4,0.8c-0.1,0.3,0,0.6,0.1,0.9
		S39.5,46.2,39.7,46.3z"/>
	<polygon class="st0" points="24.4,15.5 24.8,14 13.6,14 14,15.5 	"/>
	<path class="st0" d="M25.8,12.4c0.2,0,0.4-0.1,0.5-0.2c0.1-0.1,0.2-0.3,0.2-0.5v-1.6c0-0.2-0.1-0.4-0.2-0.5
		c-0.1-0.1-0.3-0.2-0.5-0.2H12.6c-0.2,0-0.4,0.1-0.5,0.2c-0.1,0.1-0.2,0.3-0.2,0.5v1.6c0,0.2,0.1,0.4,0.2,0.5
		c0.1,0.1,0.3,0.2,0.5,0.2H25.8z"/>
	<path class="st0" d="M14,17.1l-2.9,11.7v25.5h16.3v-6.2h-0.8v4.7c0,0.2-0.1,0.4-0.2,0.5c-0.1,0.1-0.3,0.2-0.5,0.2H12.6
		c-0.2,0-0.4-0.1-0.5-0.2c-0.1-0.1-0.2-0.3-0.2-0.5V28.7c0-0.1,0-0.2,0-0.2l2.3-7c0.1-0.2,0.2-0.3,0.3-0.4C14.6,21,14.8,21,15,21
		h8.5c0.2,0,0.3,0.1,0.5,0.1c0.1,0.1,0.2,0.2,0.3,0.4l2.3,7c0,0.1,0,0.2,0,0.2v5.4h0.8v-5.3l-2.9-11.7H14z"/>
	<rect x="21.2" y="35.7" class="st0" width="6.2" height="10.9"/>
	<path class="st0" d="M19.8,34.4c0.1-0.1,0.3-0.2,0.5-0.2h4.7v-5.3l-2.1-6.3h-7.4l-2.1,6.3V52h11.6v-3.9h-4.7
		c-0.2,0-0.4-0.1-0.5-0.2c-0.1-0.1-0.2-0.3-0.2-0.5V34.9C19.6,34.7,19.7,34.5,19.8,34.4z"/>
	<path class="st0" d="M29.5,51.2c0.1-0.2,0.2-0.5,0.2-0.8s-0.1-0.5-0.2-0.8c-0.1-0.2-0.3-0.4-0.6-0.6v2.7
		C29.2,51.7,29.4,51.5,29.5,51.2z"/>
	<path class="st0" d="M31.7,35.6c0.5-0.4,1.2-0.6,1.9-0.6c0.7,0,1.3,0.2,1.9,0.6c0.5,0.4,0.9,1,1.1,1.7h10.9l-14-4.7
		c-1.5,0.1-3.6,1.3-4.5,2v2.7h1.7C30.8,36.6,31.2,36,31.7,35.6z M38.3,34.9h1.6v1.6h-1.6V34.9z"/>
	<path class="st0" d="M56,0H7C3.1,0,0,3.1,0,7v49c0,3.9,3.1,7,7,7h49c3.9,0,7-3.1,7-7V7C63,3.1,59.9,0,56,0z M53,45.8
		c0,0.2-0.1,0.4-0.2,0.5c-0.1,0.1-0.3,0.2-0.5,0.2c-0.6,0-1.2,0.2-1.6,0.7c-0.4,0.4-0.7,1-0.7,1.6c0,0.6,0.2,1.2,0.7,1.6
		c0.4,0.4,1,0.7,1.6,0.7c0.2,0,0.4,0.1,0.5,0.2c0.1,0.1,0.2,0.3,0.2,0.5v3.1c0,0.2-0.1,0.4-0.2,0.5c-0.1,0.1-0.3,0.2-0.5,0.2H10.3
		c-0.2,0-0.4-0.1-0.5-0.2c-0.1-0.1-0.2-0.3-0.2-0.5V28.7c0-0.1,0-0.1,0-0.2l3.1-12.2L12,13.9c-0.5-0.1-0.9-0.4-1.2-0.8
		s-0.5-0.9-0.5-1.4v-1.6c0-0.6,0.2-1.2,0.7-1.6c0.4-0.4,1-0.7,1.6-0.7h13.2c0.6,0,1.2,0.2,1.6,0.7c0.4,0.4,0.7,1,0.7,1.6v1.6
		c0,0.5-0.2,1-0.5,1.4c-0.3,0.4-0.7,0.7-1.2,0.8l-0.6,2.4l3.1,12.2c0,0.1,0,0.1,0,0.2v4c1.2-0.7,3.1-1.7,4.7-1.7c0.1,0,0.2,0,0.2,0
		l18.6,6.2c0.2,0.1,0.3,0.1,0.4,0.3c0.1,0.1,0.1,0.3,0.2,0.5V45.8z"/>
	<path class="st0" d="M35.5,40.5c-0.5,0.4-1.2,0.6-1.9,0.6c-0.7,0-1.3-0.2-1.9-0.6s-0.9-1-1.1-1.7h-1.7v8.6c0.7,0.2,1.2,0.6,1.7,1.1
		c0.4,0.5,0.6,1.2,0.6,1.9c0,0.7-0.2,1.3-0.6,1.9c-0.4,0.5-1,0.9-1.7,1.1v0.9h22.5v-1.6c-0.9-0.2-1.7-0.7-2.2-1.3
		c-0.6-0.7-0.9-1.6-0.9-2.5c0-0.9,0.3-1.8,0.9-2.5c0.6-0.7,1.4-1.2,2.2-1.3v-6.3H36.6C36.4,39.5,36,40.1,35.5,40.5z M32.8,45h-1.6
		v-1.6h1.6V45z M35.1,52.8h-1.6v-1.6h1.6V52.8z M41.4,51.2h-1.6v-1.6h1.6V51.2z M49.1,52v1.6h-1.6V52H49.1z M46.8,40.4h1.6v1.6h-1.6
		V40.4z M45.2,47.4h1.6v1.6h-1.6V47.4z M39,39.6h1.6v1.6H39V39.6z M37.7,43.8c0.2-0.6,0.6-1.1,1.1-1.4c0.5-0.3,1.1-0.5,1.7-0.5
		c0.8,0,1.6,0.3,2.2,0.9c0.6,0.6,0.9,1.4,0.9,2.2c0,0.6-0.2,1.2-0.5,1.7c-0.3,0.5-0.8,0.9-1.4,1.1c-0.6,0.2-1.2,0.3-1.8,0.2
		c-0.6-0.1-1.2-0.4-1.6-0.8c-0.4-0.4-0.7-1-0.8-1.6C37.4,45,37.5,44.4,37.7,43.8z M36.7,48.9h-1.6v-1.6h1.6V48.9z"/>
	<path class="st0" d="M32.7,36.8c-0.3,0.2-0.5,0.4-0.6,0.7S32,38,32.1,38.3c0.1,0.3,0.2,0.6,0.4,0.8c0.2,0.2,0.5,0.4,0.8,0.4
		c0.3,0.1,0.6,0,0.9-0.1c0.3-0.1,0.5-0.3,0.7-0.6c0.2-0.3,0.3-0.6,0.3-0.9c0-0.4-0.2-0.8-0.5-1.1c-0.3-0.3-0.7-0.5-1.1-0.5
		C33.3,36.5,33,36.6,32.7,36.8z"/>
</g>
</svg>
