<?xml version="1.0" encoding="utf-8"?>
<!-- Generator: Adobe Illustrator 27.4.1, SVG Export Plug-In . SVG Version: 6.00 Build 0)  -->
<svg version="1.1" id="Layer_1" xmlns="http://www.w3.org/2000/svg" xmlns:xlink="http://www.w3.org/1999/xlink" x="0px" y="0px"
	 viewBox="0 0 63 63" style="enable-background:new 0 0 63 63;" xml:space="preserve">
<style type="text/css">
	.st0{fill:#FFFFFF;}
</style>
<g>
	<path class="st0" d="M46.5,17.6h-3.1c-0.4,0-0.7-0.3-0.7-0.7c0-0.4,0.3-0.7,0.7-0.7h2.6v-4h-12v4h6.5c0.4,0,0.7,0.3,0.7,0.7
		s-0.3,0.7-0.7,0.7h-7c-0.4,0.3-1.6,1.4-2.7,3.2c-1.3,2-2.9,5.5-3.3,10.7c0,0,0.3,0.1,0.4,0.1c0.9,0.2,1.8,0.5,2.5,0.9v-2.3
		c0-1.6,1.3-2.9,2.9-2.9h13.2c1.6,0,2.9,1.3,2.9,2.9v13.6c0,1.6-1.3,2.9-2.9,2.9h-9.8v3c0,1.6-0.7,3.1-1.9,4.1c0,0,0,0,0,0h13.9
		c2,0,3.7-1.7,3.7-3.7V33.7c0-3.4-0.5-8.3-3.1-12.6C48.2,19.1,47,18,46.5,17.6z"/>
	<path class="st0" d="M46.7,45.3c0.8,0,1.5-0.7,1.5-1.5V30.2c0-0.8-0.7-1.5-1.5-1.5H33.5c-0.8,0-1.5,0.7-1.5,1.5v3.5
		c0.2,0.2,0.4,0.4,0.5,0.7c0,0,0,0,0,0c0.1,0,0.3,0,0.4,0c0.9,0.1,1.7,0.5,2.4,1.2c1.1,1.1,1.5,2.8,1.5,4.3c0,0,0,5.3,0,5.3H46.7z"
		/>
	<path class="st0" d="M35.4,40.7h-16c-0.4,0-0.7-0.3-0.7-0.7c0-0.4,0.3-0.7,0.7-0.7h16c0,0,0,0,0,0c-0.2-1.3-0.7-2.7-2-3.2
		c-0.4-0.1-0.8-0.2-1.2-0.2c-0.2,0-0.5-0.1-0.6-0.3c-0.2-0.3-0.4-0.6-0.7-0.9c-1.2-1.3-2.7-1.6-4-1.7c0,0,0,0,0,0
		c-1.6-0.2-3.2,0-4.7-0.5c-1.1-0.4-1.7-1.2-2-2.4c0-0.1-0.1-0.2-0.2-0.2c-2.1,0.2-3.7,1.2-4.6,2.9c-0.7,1.3-0.8,2.5-0.8,2.5
		c0,0.4-0.3,0.7-0.7,0.7c-0.9,0-1.6,0.3-2.2,0.8c-0.7,0.8-1,1.9-1.1,2.6h6.1c0.4,0,0.7,0.3,0.7,0.7c0,0.4-0.3,0.7-0.7,0.7h-6.1v9.1
		c0,2.3,1.9,4.2,4.2,4.2h16.7c2.2,0,4.2-1.9,4.2-4.2V40.7z M16.2,46.7c0,0.4-0.3,0.7-0.7,0.7c-0.4,0-0.7-0.3-0.7-0.7v-1.3
		c0-0.4,0.3-0.7,0.7-0.7c0.4,0,0.7,0.3,0.7,0.7V46.7z M25.3,47.1c-0.6,0.7-1.4,1.1-2.4,1.1c-0.9,0-1.8-0.4-2.4-1.1
		c-0.3-0.3-0.2-0.7,0.1-1c0.3-0.3,0.7-0.2,1,0.1c0.3,0.4,0.8,0.6,1.3,0.6s1-0.2,1.3-0.6c0.3-0.3,0.7-0.3,1-0.1
		C25.5,46.3,25.5,46.8,25.3,47.1z M31.1,46.7c0,0.4-0.3,0.7-0.7,0.7c-0.4,0-0.7-0.3-0.7-0.7v-1.3c0-0.4,0.3-0.7,0.7-0.7
		c0.4,0,0.7,0.3,0.7,0.7V46.7z"/>
	<path class="st0" d="M43,8.4h-5.8c-1.5,0-2.7,1-3,2.4H46C45.7,9.4,44.4,8.4,43,8.4z"/>
	<path class="st0" d="M56,0H7C3.1,0,0,3.1,0,7v49c0,3.9,3.1,7,7,7h49c3.9,0,7-3.1,7-7V7C63,3.1,59.9,0,56,0z M54,50.2
		c0,2.8-2.3,5.1-5.1,5.1H14.6c-3.1,0-5.6-2.5-5.6-5.6V40c0-0.2,0-2.7,1.5-4.3c0.7-0.7,1.5-1.1,2.6-1.2c0.1-0.6,0.3-1.5,0.9-2.5
		c0.8-1.5,2.5-3.3,5.7-3.6c0.9-0.1,1.6,0.5,1.8,1.4c0.2,1.3,1.3,1.5,3.7,1.6c0.3,0,0.7,0,1,0.1c0.7-9.4,5.2-13.8,6.4-14.8v-5.1
		c0-2.5,2-4.5,4.5-4.5H43c2.5,0,4.5,2,4.5,4.5v5.1c1.3,1.1,6.5,6.1,6.5,17.2V50.2z"/>
</g>
</svg>
