<?xml version="1.0" encoding="utf-8"?>
<!-- Generator: Adobe Illustrator 27.4.1, SVG Export Plug-In . SVG Version: 6.00 Build 0)  -->
<svg version="1.1" id="Layer_1" xmlns="http://www.w3.org/2000/svg" xmlns:xlink="http://www.w3.org/1999/xlink" x="0px" y="0px"
	 viewBox="0 0 63 63" style="enable-background:new 0 0 63 63;" xml:space="preserve">
<style type="text/css">
	.st0{fill-rule:evenodd;clip-rule:evenodd;fill:#FFFFFF;}
</style>
<g>
	<polygon class="st0" points="23.8,27.8 20.1,29.3 18.2,33.8 22,32.3 	"/>
	<polygon class="st0" points="18.8,44.4 23.3,42.6 25.1,38 20.6,39.8 	"/>
	<polygon class="st0" points="18.7,40.6 15,42.1 13.2,46.6 16.9,45.1 	"/>
	<polygon class="st0" points="25.4,27.8 23.8,31.6 27.7,30.1 	"/>
	<polygon class="st0" points="21.3,34.2 17.5,35.7 15.7,40.2 19.5,38.7 	"/>
	<polygon class="st0" points="22,24.4 20.8,27.4 23.8,26.2 	"/>
	<polygon class="st0" points="25.1,41.9 29.7,40.1 31.5,35.5 27,37.3 	"/>
	<polygon class="st0" points="29.2,31.6 27.7,35.5 31.5,33.9 	"/>
	<polygon class="st0" points="21.3,38 25.9,36.2 27.7,31.6 23.1,33.4 	"/>
	<path class="st0" d="M56,0H7C3.1,0,0,3.1,0,7v49c0,3.9,3.1,7,7,7h49c3.9,0,7-3.1,7-7V7C63,3.1,59.9,0,56,0z M48.8,35.6v5.7
		c0,1.2-0.8,2.2-2,2.5c-1.2,0.2-2.3-0.4-2.8-1.4c-1.2,1.1-3,1-4.1,0L12.9,53c-0.8,0.3-1.7,0.1-2.2-0.5c-0.6-0.6-0.8-1.5-0.5-2.2
		l10.7-27c-1-1.1-1.1-2.8-0.2-4c0.9-1.2,2.6-1.5,3.9-0.8c2.6-5.4,8.1-8.7,14.1-8.5c6,0.2,11.2,3.9,13.4,9.5
		C54.3,25,53,31.3,48.8,35.6z"/>
	<polygon class="st0" points="35.7,42.4 38.7,41.2 36.9,39.3 	"/>
	<path class="st0" d="M11.5,50.8c-0.1,0.2,0,0.5,0.1,0.7c0.2,0.2,0.4,0.2,0.7,0.1l2.4-0.9l1.5-3.8l-3.8,1.5L11.5,50.8z"/>
	<path class="st0" d="M47.1,14.9c-5.4-4.7-13.5-4.5-18.6,0.6c-1.1,1.1-2.1,2.5-2.7,4l8.3,8.3c0.2,0.2,0.3,0.4,0.2,0.7
		c-0.1,0.2-0.3,0.4-0.5,0.5c-0.2,0.1-0.5,0-0.7-0.2L24.3,20c-0.6-0.5-1.4-0.6-2-0.3c-0.1,0.1-0.2,0.2-0.3,0.3
		c-0.1,0.1-0.2,0.2-0.2,0.3c-0.4,0.6-0.4,1.5,0.5,2.3l18.6,18.6c0.7,0.6,1.7,0.6,2.4,0c0.3-0.3,0.5-0.7,0.5-1.2
		c0-0.4-0.2-0.9-0.5-1.2l-4.4-4.4c-0.2-0.2-0.3-0.4-0.2-0.7c0.1-0.2,0.3-0.4,0.5-0.5c0.2-0.1,0.5,0,0.7,0.2l4,4V27.3
		c0-0.6-0.5-1.1-1.1-1.1s-1.1,0.5-1.1,1.1v1.1c0,1.4-1.1,2.5-2.5,2.5s-2.5-1.1-2.5-2.5v-3.2c0-0.4,0.3-0.7,0.7-0.7
		c0.4,0,0.7,0.3,0.7,0.7v3.2c0,0.6,0.5,1.1,1.1,1.1s1.1-0.5,1.1-1.1v-1.1c0-1.4,1.1-2.5,2.5-2.5c1.4,0,2.5,1.1,2.5,2.5v14
		c0,0.6,0.5,1.1,1.1,1.1s1.1-0.5,1.1-1.1V25.1c0-0.4,0.3-0.7,0.7-0.7c0.4,0,0.7,0.3,0.7,0.7v8.3C53.2,27.7,52.4,19.6,47.1,14.9z
		 M38.6,14.1c-0.1,0.1-0.3,0.2-0.5,0.2c-2.8,0-5.6,1.1-7.6,3.1c-0.3,0.3-0.7,0.3-1,0c-0.3-0.3-0.3-0.7,0-1c2.3-2.3,5.4-3.6,8.6-3.6
		c0.4,0,0.7,0.3,0.7,0.7C38.8,13.8,38.7,14,38.6,14.1z"/>
	<polygon class="st0" points="31.5,39.3 35.4,37.8 33.1,35.5 	"/>
	<polygon class="st0" points="16.5,50 21.1,48.2 22.6,44.4 18,46.2 	"/>
	<polygon class="st0" points="22.9,47.5 27.5,45.6 29,41.9 24.4,43.7 	"/>
	<polygon class="st0" points="29.3,44.9 33.9,43.1 35.4,39.3 30.8,41.2 	"/>
</g>
</svg>
