<?xml version="1.0" encoding="utf-8"?>
<!-- Generator: Adobe Illustrator 27.4.1, SVG Export Plug-In . SVG Version: 6.00 Build 0)  -->
<svg version="1.1" id="Layer_1" xmlns="http://www.w3.org/2000/svg" xmlns:xlink="http://www.w3.org/1999/xlink" x="0px" y="0px"
	 viewBox="0 0 63 63" style="enable-background:new 0 0 63 63;" xml:space="preserve">
<style type="text/css">
	.st0{fill:#FFFFFF;}
</style>
<g>
	<path class="st0" d="M17.8,33.6c-0.7,1.2-1.6,2.3-2.1,3.6c-0.7,1.8,0,3.7,2.2,3.8c2.3-0.1,2.8-2.3,2-4.2
		C19.3,35.4,18.6,34.7,17.8,33.6z"/>
	<path class="st0" d="M26.6,25c0-0.1,0-0.2,0.1-0.3l0.3-1.5c0.3-1,0.7-2.1,1.2-3l3.6-7.1c0.2-0.3,0.3-0.6,0.4-1
		c-0.6-0.1-1.3-0.2-1.9-0.3l-4.9-0.4l-9.7-0.5l-1.4,2.5c-1.8,3.1-3.8,6.1-4.5,9.7l16.6,2L26.6,25z M19.9,16.3c-0.5,0-1,0-1.5-0.1
		l-0.8,0c-0.2,0-0.4,0-0.5-0.1l-0.2-0.1c-0.8-0.5-0.6-1.5,0.3-1.7c0.4,0,0.7,0,1.1,0c0.5,0,1.6-0.1,2,0.2l0,0
		C20.9,15.2,20.6,16.1,19.9,16.3z"/>
	<path class="st0" d="M28.4,24.7c0.1,0,0.3-0.1,0.4-0.1l3.1-1.1l6.5-2.4l-4.8-7.9l-1.5,3C30.7,18.9,29.1,21.7,28.4,24.7z"/>
	<path class="st0" d="M32.1,10.3c0.1,0,0.1,0,0.2,0l-0.1-1.4c0-0.2,0-0.4-0.1-0.5c-1.8-1-7.3-1.4-9.3-1.5l-4-0.1
		c-0.8,0-1.6,0-2.4,0.1c-0.2,0.7-0.2,1.5-0.3,2.2l14,0.9L32.1,10.3z"/>
	<path class="st0" d="M26.5,26.8l-16.8-2l0,22.5c0,0.1,0,0.3,0,0.5l16.8,2.7L26.5,26.8z M21.1,41.3c-0.8,0.9-1.9,1.4-3.1,1.5
		c-2,0.1-3.8-1.4-4.3-3.3c-0.4-1.7,0.4-3.5,1.3-4.9l1.4-2.1c0.3-0.5,0.6-1,1.2-1.1c0.7,0,1,0.5,1.4,1c0.5,0.6,0.9,1.2,1.4,1.9
		C21.9,36.4,23,39.1,21.1,41.3z"/>
	<path class="st0" d="M41.1,42.4c-1.9-0.2-4.1-0.5-5.8-1.5c0.1,0.4,0.1,0.9,0.2,1.3l0.8,4.4c0.3,1.3,0.6,2.5,1,3.7l0.6,1.6
		c0.3,0.8,0.6,1.6,1.1,2.3c0.4,0.2,0.8,0.2,1.2,0.2l1.4,0.1c0.3,0,0.5,0.1,0.8,0.1l2.3,0c0.7,0,1.5,0,2.2-0.1
		c0.9-0.1,0.9-0.1,1.2-0.9l1.4-3.1c1.2-2.7,2.1-5.5,2.4-8.5l0.1-0.8c0-0.1,0-0.3,0-0.4c-2.6,1.2-5.3,1.4-8.1,1.4L41.1,42.4z"/>
	<path class="st0" d="M45,40.7c2.2,0,5.3-0.3,7.1-1.7c-2-1.7-7-2.2-9.6-2.1c-2.1,0.1-5.4,0.3-7.1,1.8c0.5,0.4,1.1,0.7,1.7,1
		C39.6,40.7,42.2,40.7,45,40.7z"/>
	<path class="st0" d="M56,0H7C3.1,0,0,3.1,0,7v49c0,3.9,3.1,7,7,7h49c3.9,0,7-3.1,7-7V7C63,3.1,59.9,0,56,0z M7.9,48.3l0-21.3
		c0-1.2-0.1-2.4,0.1-3.6c0.2-2.4,1.2-4.6,2.3-6.7l2.2-3.8c0.4-0.7,1.7-2.8,1.9-3.6c0.1-0.3,0.1-0.6,0.1-0.9c0.2-2.4,0.2-3.3,2.8-3.5
		L18.7,5l3.1,0l1.9,0.1c2.3,0.2,7.2,0.7,9.2,1.6c0.7,0.4,0.8,0.8,0.9,1.6L34,9.8c0.2,1.1,0.4,1.3,0.9,2.2l2.8,4.4l1,1.9
		c0.5,0.8,1,1.5,1.3,2.4c0.5,1.5,0.6,3.1,0.6,4.7l0,7.6c0,0.9-1.5,1.2-1.7,0.2c-0.1-0.2,0-0.5,0-0.8l0-9.3c0-0.1,0-0.2,0-0.4
		l-10,3.6c-0.2,0.1-0.4,0.1-0.6,0.2l0,20.9l0,2.4c0.4-0.1,0.7-0.4,1.1-0.5l2.1-1c0.4-0.2,1-0.6,1.5-0.6c1.1-0.1,1.3,1.2,0.1,1.8
		c-0.9,0.5-1.8,0.9-2.7,1.3l-1.7,0.9c-1,0.5-1.2,0.7-2.4,0.5L9.9,49.6C9.1,49.4,7.9,49.5,7.9,48.3z M53.9,39.8
		c0,3.5-0.9,7.2-2.2,10.4l-1.9,4.3c-0.7,1.6-1.2,1.7-2.9,1.8c-0.9,0.1-1.8,0.1-2.7,0.1l-3.9-0.2c-3.4-0.4-2.6-1.3-4-4
		c-0.9,0.2-1.8,0.6-2.7,1L29,55.4c-1.2,0.7-1,0.6-2.4,0.4l-6.2-1L9.9,53c-0.4-0.1-0.8-0.1-1.2-0.2c-0.8-0.4-0.5-1.6,0.3-1.7
		c0.4,0,0.9,0.1,1.2,0.2l17,2.7c0.3,0,0.3,0,0.6-0.1l2-1c1.8-0.9,3.7-1.7,5.6-2.4c-1.1-3-1.8-7.1-1.9-10.3l0-1c0-0.7,0-1.2,0.5-1.7
		c1.7-1.7,6-2.2,8.2-2.3c2.9-0.1,10,0.5,11.4,3.1C53.9,38.7,53.9,39.3,53.9,39.8z"/>
</g>
</svg>
