<?xml version="1.0" encoding="utf-8"?>
<!-- Generator: Adobe Illustrator 27.4.1, SVG Export Plug-In . SVG Version: 6.00 Build 0)  -->
<svg version="1.1" id="Layer_1" xmlns="http://www.w3.org/2000/svg" xmlns:xlink="http://www.w3.org/1999/xlink" x="0px" y="0px"
	 viewBox="0 0 63 63" style="enable-background:new 0 0 63 63;" xml:space="preserve">
<style type="text/css">
	.st0{fill:#FFFFFF;}
</style>
<g>
	<path class="st0" d="M41.5,23.1c0,0-13.4,0-13.4,0h-6.7c-1,0-1.9,0.8-2,1.8L19,27.8h4.9c1,0,1.9,0.9,1.9,1.9v5.5c0,0.1,0,0.2,0,0.2
		c0.4,3.1,4.8,2.6,4.7-0.4v-5.3c0-1.1,0.8-1.9,1.9-1.9l11.6,0l-0.4-2.8C43.4,23.9,42.6,23.1,41.5,23.1z"/>
	<path class="st0" d="M18.1,48h26.8c1.9,0,3.6-1.3,4-3.2H14.1C14.6,46.6,16.2,48,18.1,48z"/>
	<path class="st0" d="M34.1,21.1c0.2-1.6-1-3-2.6-3c-1.5,0-2.8,1.4-2.6,3H34.1z"/>
	<path class="st0" d="M56,0H7C3.1,0,0,3.1,0,7v49c0,3.9,3.1,7,7,7h49c3.9,0,7-3.1,7-7V7C63,3.1,59.9,0,56,0z M44.9,50H18.1
		c-3.4,0-6.1-2.8-6.1-6.3c0-0.6,0.4-1,1-1h33l-1.8-12.9H32.5V35c0,2.5-1.9,4.6-4.3,4.6c-2.4,0-4.3-2-4.3-4.4v-5.4h-5.1l-1.2,8.7
		c0,2.4-2.6,2-2-0.3l1.9-13.6c0.3-2,2-3.6,4-3.6h5.5c-0.2-2.3,1.4-4.5,3.7-4.9c0.2-1.6,1.5-2.9,3.1-3.1c1.3-0.2,1.6,1.8,0.3,2
		c-0.7,0-1.3,0.5-1.5,1.2c2.1,0.5,3.6,2.6,3.5,4.8h5.5c2,0,3.7,1.5,4,3.6L48,42.7h2c0.5,0,1,0.5,1,1C51,47.2,48.3,50,44.9,50z"/>
</g>
</svg>
