<?xml version="1.0" encoding="utf-8"?>
<!-- Generator: Adobe Illustrator 27.4.1, SVG Export Plug-In . SVG Version: 6.00 Build 0)  -->
<svg version="1.1" id="Layer_1" xmlns="http://www.w3.org/2000/svg" xmlns:xlink="http://www.w3.org/1999/xlink" x="0px" y="0px"
	 viewBox="0 0 63 63" style="enable-background:new 0 0 63 63;" xml:space="preserve">
<style type="text/css">
	.st0{fill:#FFFFFF;}
</style>
<g>
	<path class="st0" d="M18.5,29.7c-0.4,0-0.7,0.3-0.7,0.7s0.3,0.7,0.7,0.7c0.4,0,0.7-0.3,0.7-0.7S18.8,29.7,18.5,29.7z"/>
	<path class="st0" d="M14.7,39.3c-0.2-0.7-0.4-1.5-0.5-2c-0.6-3.1-0.7-6.3-0.3-9.5c0.1-0.6,0.2-1.3,0.4-1.9c0.1-0.3,0.3-0.6,0.7-0.6
		h14.2l0.9-1.5H13.5c-1.3,4.5-1.5,9.2-0.6,13.8c0.2,1.3,0.6,2.5,1,3.7h10.6v-1.5h-9.2C15.1,39.9,14.8,39.7,14.7,39.3z"/>
	<path class="st0" d="M31.9,22.8c0.1,0.2,0.1,0.5,0,0.7l-5.6,9.3c0,0,0.1,0,0.1,0c0.1,0,0.1,0,0.2,0c0.2,0,0.3,0.1,0.5,0.1l0,0
		c0.3,0,0.6,0.1,0.9,0.1c0.2,0,0.4,0.1,0.5,0.1c0.3,0,0.6,0.1,0.9,0.1c0,0,0.1,0,0.1,0c0.1,0,0.2,0,0.3,0c0.5,0,0.9,0,1.4,0
		c9.7,0,17.6-4.2,17.6-9.4c0-0.1,0-0.2,0-0.3v0l0-0.1c0-0.1,0-0.2,0-0.3c0,0,0,0,0,0c-0.6-4.9-8.3-8.8-17.6-8.8
		c-8.6,0-16.2,3.5-17.5,8h17.5C31.6,22.4,31.8,22.6,31.9,22.8z"/>
	<path class="st0" d="M56,0H7C3.1,0,0,3.1,0,7v49c0,3.9,3.1,7,7,7h49c3.9,0,7-3.1,7-7V7C63,3.1,59.9,0,56,0z M51,38
		c-0.6,2.9-1.4,5.9-3.9,8c-4.6,3.9-11.1,4.8-15.8,4.8h-0.1c-2.1,0-4.1-0.2-6.1-0.5c-0.3-0.1-0.6-0.4-0.6-0.7v-6.7H13.5
		c-0.3,0-0.5-0.2-0.6-0.4c-0.6-1.4-1-2.9-1.3-4.4c-1-5-0.8-10.1,0.7-15c0.8-5.7,8.9-10,19-10c10.1,0,18.1,4.3,18.9,10
		C51.8,27.8,52,33,51,38z"/>
	<path class="st0" d="M49.8,26.6L49.8,26.6c-0.1,0.3-0.3,0.5-0.4,0.8c0,0.1-0.1,0.1-0.1,0.2c-0.2,0.2-0.3,0.5-0.5,0.7
		c0,0,0,0.1-0.1,0.1c0,0,0,0,0,0c0,0,0,0,0,0c-0.2,0.2-0.4,0.5-0.6,0.7l0,0c-0.2,0.2-0.5,0.5-0.7,0.7l0,0c0,0-0.1,0.1-0.1,0.1
		c-0.2,0.2-0.5,0.4-0.8,0.6c0,0-0.1,0.1-0.1,0.1l0,0l-0.1,0c-0.3,0.2-0.6,0.4-0.9,0.6c0,0,0,0,0,0c0,0,0,0,0,0
		c-0.3,0.2-0.6,0.4-0.9,0.5l-0.1,0l0,0c0,0-0.1,0-0.1,0.1c-0.3,0.2-0.7,0.3-1,0.5l-0.2,0.1c-0.4,0.2-0.7,0.3-1.1,0.4
		c0,0-0.1,0-0.1,0c0,0-0.1,0-0.1,0c-0.4,0.1-0.7,0.3-1.1,0.4l0,0c0,0-0.1,0-0.1,0c-0.4,0.1-0.8,0.2-1.2,0.3l-0.3,0.1
		c-0.4,0.1-0.8,0.2-1.3,0.3c0,0-0.1,0-0.1,0c0,0-0.1,0-0.1,0c-0.4,0.1-0.9,0.2-1.3,0.2l0,0l0,0c0,0,0,0-0.1,0
		c-0.5,0.1-0.9,0.1-1.4,0.2c0,0-0.1,0-0.1,0h0c-0.1,0-0.1,0-0.2,0c-0.5,0-0.9,0.1-1.4,0.1c-0.1,0-0.1,0-0.2,0h0c0,0-0.1,0-0.1,0
		c-0.5,0-1,0-1.5,0c-0.5,0-1,0-1.5,0c-0.1,0-0.2,0-0.3,0c-0.1,0-0.1,0-0.2,0c-0.3,0-0.7-0.1-1-0.1c-0.2,0-0.3,0-0.5-0.1l-0.1,0
		c-0.3,0-0.6-0.1-0.9-0.1c-0.2,0-0.4-0.1-0.6-0.1c-0.1,0-0.1,0-0.2,0c-0.1,0-0.1,0-0.2,0v14.7c1.8,0.3,3.6,0.4,5.3,0.4h0.1
		c4.4,0,10.6-0.8,14.9-4.5c2.2-1.8,2.8-4.5,3.4-7.2c0.7-3.3,0.8-6.7,0.3-10C49.9,27.3,49.8,26.9,49.8,26.6z"/>
	<path class="st0" d="M15.6,26.8c-0.1,0.4-0.2,0.9-0.2,1.3c-0.4,3-0.4,6,0.2,8.9c0.1,0.4,0.2,0.9,0.3,1.4h8.7v-5.1l0,0l0,0
		c0,0,0,0,0,0c0-0.1,0-0.2,0.1-0.3c0,0,0,0,0,0c0,0,0,0,0,0c0,0,0,0,0,0l3.7-6.1H15.6z M18.5,32.6c-1.1,0-2-1-2-2.2
		c0-1.2,0.9-2.2,2-2.2s2,1,2,2.2C20.5,31.6,19.6,32.6,18.5,32.6z M22.5,35.5h-1.4v-1.5h1.4V35.5z M24.6,30.4h-1.4V29h1.4V30.4z"/>
</g>
</svg>
