<?xml version="1.0" encoding="utf-8"?>
<!-- Generator: Adobe Illustrator 27.4.1, SVG Export Plug-In . SVG Version: 6.00 Build 0)  -->
<svg version="1.1" id="Layer_1" xmlns="http://www.w3.org/2000/svg" xmlns:xlink="http://www.w3.org/1999/xlink" x="0px" y="0px"
	 viewBox="0 0 63 63" style="enable-background:new 0 0 63 63;" xml:space="preserve">
<style type="text/css">
	.st0{fill:#FFFFFF;}
</style>
<g>
	<polygon class="st0" points="32.7,7.4 43.8,7.4 32.7,7.4 	"/>
	<path class="st0" d="M34.4,31.9c-1.4-2.1-3.5-3.3-5.9-3.3c-2.4,0-4.5,1.3-5.9,3.3c-0.5,0.7-1.2,1.1-2,1.1h-6.8l0.5,7.1
		c0.1-0.1,0.2-0.1,0.4-0.1h6.8c0.7,0,1.4,0.4,1.9,1.1c1.3,2.1,3.4,3.3,5.6,3.3c2.3,0,4.3-1.3,5.6-3.3c0.4-0.7,1.1-1.1,1.9-1.1h5.6
		l0.5-7h-6.3C35.6,33,34.9,32.6,34.4,31.9z M32,34.7c0,0.7-0.6,1.3-1.3,1.3h-4.3c-0.7,0-1.3-0.6-1.3-1.3v-1.4c0-0.7,0.6-1.3,1.3-1.3
		h4.3c0.7,0,1.3,0.6,1.3,1.3V34.7z"/>
	<path class="st0" d="M35.8,42l-0.6-0.5L35.8,42c-1.6,2.4-4,4-6.8,4s-5.2-1.6-6.8-4c-0.2-0.2-0.4-0.4-0.7-0.4h-6.8
		c-0.1,0-0.2,0-0.2,0l0.4,5.5h26.4c0.1,0,0.2,0,0.2,0.1l0.4-5.5h-5.5C36.2,41.6,36,41.7,35.8,42z"/>
	<path class="st0" d="M26.3,33.2C26.3,33.2,26.3,33.3,26.3,33.2l0,1.5c0,0,0,0,0,0h4.3c0,0,0,0,0,0v-1.4c0,0,0,0,0,0H26.3z"/>
	<path class="st0" d="M15,49l0,0.1c0.1,1.2,0.9,2.1,2,2.3l0-0.4c0-0.3,0.1-0.5,0.2-0.7c0.1-0.2,0.3-0.3,0.5-0.3h20.6
		c0.2,0,0.4,0.1,0.5,0.3c0.1,0.2,0.2,0.4,0.2,0.7l0,0.5c1.3,0,2.3-1.1,2.4-2.4l0-0.1c0,0-0.1,0-0.1,0H15z"/>
	<path class="st0" d="M44.9,20.4h0.7c0.5,0,0.9-0.4,0.9-0.9c0-0.5-0.4-0.9-0.9-0.9H43c-0.1,0.3-0.3,0.6-0.6,0.6
		c-0.4,0-0.7-0.2-0.8-0.6H10.3c-0.5,0-0.9,0.4-0.9,0.9c0,0.5,0.4,0.9,0.9,0.9h0.8c0.2-0.2,0.6-0.4,1-0.4c0.5,0,1,0.2,1.2,0.4h30.3
		c0.1-0.3,0.4-0.5,0.7-0.4C44.6,20,44.8,20.2,44.9,20.4z"/>
	<path class="st0" d="M43.7,9.5c-0.9,1.2-1.3,2.6-1.2,4.1l0.4,3.3h2.8c1.3,0,2.3,1.1,2.3,2.5S47,22,45.7,22h-0.8l-0.1,1.5
		c3.6-0.4,6.8-2.7,8.2-6.2c0.9-2.3,0.8-4.8-0.4-6.9C50.7,6.9,46.1,6.5,43.7,9.5z"/>
	<path class="st0" d="M41.4,17L41,13.8c-0.2-1.9,0.3-3.8,1.5-5.3c0.4-0.5,0.8-0.9,1.2-1.2L28.3,17H41.4z"/>
	<path class="st0" d="M20.3,16.6l-3.9-8.1c-0.5-1.1-1.9-1.5-2.9-0.9c-1,0.6-1.4,2-0.7,3.1l3.7,5.9H20.3z"/>
	<path class="st0" d="M56,0H7C3.1,0,0,3.1,0,7v49c0,3.9,3.1,7,7,7h49c3.9,0,7-3.1,7-7V7C63,3.1,59.9,0,56,0z M54.3,17.8
		c-1.6,4-5.2,6.7-9.4,7.1l-0.2,0l-0.5,6.4h0.1c0.4,0,0.8,0.4,0.8,0.8c0,0.4-0.3,0.8-0.8,0.8h-0.2l-0.5,7c0.3,0.1,0.5,0.4,0.5,0.8
		c0,0.4-0.3,0.7-0.6,0.8l-0.6,7.7C42.7,51.4,41,53,38.9,53h0l0,0.2c-0.1,1.6-1.1,2.8-2.3,2.8H24.8c-0.4,0-0.7-0.4-0.7-0.9
		s0.3-0.9,0.7-0.9h11.8c0.5,0,0.8-0.5,0.9-1l0-0.1H18.6l0,0.1c0,0.6,0.4,1,0.9,1h2c0.4,0,0.7,0.4,0.7,0.9S21.8,56,21.4,56h-2
		c-1.2,0-2.2-1.2-2.3-2.8l0-0.3c-1.9-0.2-3.4-1.8-3.5-3.7l-1.3-16.4c-0.2-0.1-0.3-0.4-0.3-0.7c0-0.2,0.1-0.4,0.3-0.6L12,28.4
		c0-0.4,0.3-0.8,0.7-0.8c0.4,0,0.8,0.3,0.8,0.7l0.2,3.2h7c0.3,0,0.6-0.1,0.7-0.4c1.6-2.4,4.2-4,7.1-4c2.9,0,5.5,1.6,7.1,4h0
		c0.2,0.2,0.4,0.4,0.7,0.4h6.4l0.7-9.4H13.6l0.4,3.1c0.1,0.4-0.5,0.8-1.1,0.9c-0.7,0-1.3-0.3-1.3-0.7L11.1,22h-0.8
		C9,22,8,20.9,8,19.5S9,17,10.3,17H15l-3.5-5.5c-1.1-1.7-0.6-4,1.2-5c1.7-1,3.9-0.3,4.8,1.5l4.4,9h4.6L26,13.2
		c-0.2-1.7,0.3-3.4,1.5-4.8C28.9,6.8,30.8,6,32.7,6l14.5,0c0,0,0.1,0,0.1,0c2.5-0.2,5,1.1,6.4,3.5C55.2,12.1,55.4,15.1,54.3,17.8z"
		/>
</g>
</svg>
