<svg width="40" height="47" viewBox="0 0 40 47" fill="none" xmlns="http://www.w3.org/2000/svg">
<path fill-rule="evenodd" clip-rule="evenodd" d="M13.5054 -0.000488281H30.069V8.25093H27.2869V17.537L38.9297 38.2497C41.1343 41.9999 38.2152 46.8119 33.9392 46.8106H33.9386H9.72491C9.69479 46.8109 9.66464 46.811 9.63446 46.811C4.31349 46.811 0 42.4975 0 37.1766C0 31.8556 4.31349 27.5421 9.63446 27.5421C9.97182 27.5421 10.3051 27.5595 10.6336 27.5933L16.2861 17.5377V8.25093H13.5054V-0.000488281ZM9.63454 44.0678H9.7113C11.0891 44.0527 12.3699 43.6333 13.4406 42.9227L3.88836 33.3704C3.16451 34.461 2.74285 35.7695 2.74285 37.1766C2.74285 40.9827 5.82833 44.0682 9.63446 44.0682H9.63454V44.0678ZM5.82776 31.4308C6.91846 30.7068 8.2272 30.285 9.63446 30.285C13.4406 30.285 16.5261 33.3704 16.5261 37.1766C16.5261 38.5838 16.1043 39.8926 15.3802 40.9833L5.82776 31.4308ZM33.9397 44.0678H16.3675C18.1577 42.3184 19.2689 39.8773 19.2689 37.1766C19.2689 33.438 17.1395 30.1968 14.0274 28.5997C16.4783 28.5002 18.9409 29.0072 21.1786 30.1377C24.5941 31.8631 28.4335 32.3631 32.1023 31.7014L36.5531 39.6193L36.5608 39.6324C37.6526 41.4777 36.188 44.0686 33.9397 44.0678ZM19.0289 8.25093V18.2558L14.7627 25.8451C17.3854 25.865 20.006 26.4723 22.4154 27.6895C24.9876 28.9889 27.8574 29.4647 30.6639 29.1424L24.5441 18.255V8.25093H19.0289ZM16.2483 2.74237V5.50808H27.3262V2.74237H16.2483ZM28.6781 38.1821H31.421V35.4392H28.6781V38.1821ZM23.1692 40.9365H25.9121V38.1936H23.1692V40.9365ZM9.14101 9.75092L8.01387 10.5322L6.88673 9.75092L8.01387 8.12477L9.14101 9.75092ZM8.01386 13.061C7.89773 13.2517 7.77871 13.451 7.65989 13.6553C7.28748 14.2954 6.93079 14.9606 6.67131 15.5499C6.38709 16.1954 6.30653 16.5611 6.30653 16.6743C6.30653 17.6172 7.07089 18.3816 8.01378 18.3816C8.95672 18.3816 9.72111 17.6172 9.72111 16.6743C9.72111 16.5611 9.64055 16.1953 9.35635 15.5498C9.09687 14.9605 8.74019 14.2953 8.36779 13.6552C8.24899 13.451 8.12998 13.2517 8.01386 13.061ZM8.01387 10.5322C6.88673 9.75092 6.88665 9.75103 6.88656 9.75117L6.88339 9.75574L6.87565 9.76696L6.84755 9.80791C6.82338 9.84321 6.7886 9.89427 6.74471 9.95932C6.65697 10.0894 6.5326 10.2757 6.38377 10.5041C6.08689 10.9597 5.68898 11.5886 5.28908 12.276C4.8918 12.9588 4.4788 13.7229 4.16102 14.4446C3.86797 15.1101 3.56368 15.9373 3.56368 16.6743C3.56368 19.1319 5.55589 21.1244 8.01378 21.1244C10.4716 21.1244 12.464 19.1319 12.464 16.6743C12.464 15.9372 12.1597 15.1101 11.8666 14.4446C11.5489 13.7228 11.1359 12.9588 10.7386 12.2759C10.3387 11.5886 9.94083 10.9597 9.64396 10.5041C9.49513 10.2757 9.37077 10.0894 9.28303 9.95933C9.23914 9.89427 9.20435 9.84321 9.18019 9.80791L9.15209 9.76696L9.14435 9.75575L9.14118 9.75117C9.14109 9.75104 9.14101 9.75092 8.01387 10.5322ZM34.4231 9.75087L35.5503 10.5321C34.4231 9.75087 34.423 9.75098 34.423 9.75112L34.4198 9.75569L34.412 9.76691L34.3839 9.80785C34.3598 9.84316 34.325 9.89422 34.2811 9.95927C34.1934 10.0893 34.069 10.2756 33.9202 10.504C33.6233 10.9597 33.2254 11.5885 32.8255 12.2759C32.4282 12.9587 32.0152 13.7228 31.6974 14.4445C31.4044 15.1101 31.1001 15.9372 31.1001 16.6742C31.1001 19.132 33.0924 21.1244 35.5503 21.1244C38.0081 21.1244 40.0004 19.1319 40.0004 16.6742C40.0004 15.9372 39.6962 15.1101 39.4031 14.4445C39.0853 13.7228 38.6723 12.9587 38.275 12.2759C37.8751 11.5885 37.4772 10.9597 37.1803 10.504C37.0315 10.2756 36.9072 10.0893 36.8194 9.95927C36.7755 9.89422 36.7407 9.84316 36.7166 9.80785L36.6885 9.76691L36.6807 9.75569L36.6776 9.75111C36.6775 9.75098 36.6774 9.75087 35.5503 10.5321L36.6774 9.75087L35.5503 8.12477L34.4231 9.75087ZM35.1963 13.6552C35.3151 13.451 35.4341 13.2517 35.5503 13.0609C35.6664 13.2517 35.7854 13.451 35.9042 13.6552C36.2766 14.2953 36.6333 14.9605 36.8928 15.5498C37.177 16.1953 37.2576 16.561 37.2576 16.6742C37.2576 17.6171 36.4932 18.3815 35.5503 18.3815C34.6073 18.3815 33.8429 17.6172 33.8429 16.6742C33.8429 16.561 33.9235 16.1953 34.2077 15.5498C34.4672 14.9605 34.8239 14.2953 35.1963 13.6552Z" fill="white"/>
</svg>
